<?xml version="1.0" encoding="UTF-8" standalone="no"?> <!-- Created with Vectornator (http://vectornator.io/) --><!DOCTYPE svg PUBLIC "-//W3C//DTD SVG 1.1//EN" "http://www.w3.org/Graphics/SVG/1.1/DTD/svg11.dtd">
<svg height="100%" stroke-miterlimit="10" style="fill-rule:nonzero;clip-rule:evenodd;stroke-linecap:round;stroke-linejoin:round;" version="1.1" viewBox="0 0 3370.82 2384.24" width="100%" xml:space="preserve" xmlns="http://www.w3.org/2000/svg" xmlns:vectornator="http://vectornator.io" xmlns:xlink="http://www.w3.org/1999/xlink">
<metadata>
<vectornator:setting key="IsTimeLapseWatermarkDisabled" value="false"/>
<vectornator:setting key="UndoHistoryDisabled" value="true"/>
<vectornator:setting key="VNDimensionsVisible" value="true"/>
<vectornator:setting key="VNSnapToGuides" value="true"/>
<vectornator:setting key="WDCMYKEnabledKey" value="false"/>
<vectornator:setting key="WDDisplayWhiteBackground" value="false"/>
<vectornator:setting key="WDDynamicGuides" value="false"/>
<vectornator:setting key="WDGuidesVisible" value="true"/>
<vectornator:setting key="WDIsolateActiveLayer" value="false"/>
<vectornator:setting key="WDOutlineMode" value="false"/>
<vectornator:setting key="WDRulersVisible" value="true"/>
<vectornator:setting key="WDSnapToEdges" value="false"/>
<vectornator:setting key="WDSnapToGrid" value="false"/>
<vectornator:setting key="WDSnapToPoints" value="false"/>
<vectornator:setting key="WDUnits" value="Millimeters"/>
</metadata>
<defs/>
<g id="_" vectornator:layerName="_" visibility="hidden">
<path d="M1081.04 1001.48C1079.42 1001.85 1075.32 1004.7 1076.48 1003.51C1086.18 993.619 1096.25 984.047 1106.87 975.149C1109.81 972.682 1119.95 969.444 1124.09 971.098C1134.98 975.456 1138.84 987.573 1142.32 997.433C1150.47 1020.52 1158.93 1044.49 1164.6 1068.34C1165.32 1071.36 1165.83 1074.44 1166.63 1077.45C1167.07 1079.1 1170.49 1085.2 1167.64 1087.58C1164 1090.61 1158.2 1088.37 1153.46 1088.59C1149.4 1088.79 1145.37 1089.61 1141.31 1089.61C1121.78 1089.61 1119.33 1080.42 1106.87 1069.35C1103.97 1066.77 1101.75 1067.24 1099.78 1064.28C1098.1 1061.77 1097.4 1058.69 1095.73 1056.18C1093.33 1052.58 1089.56 1049.92 1087.62 1046.05C1082.81 1036.42 1080.27 1019.24 1082.56 1008.57C1083.1 1006.06 1086.14 1004 1085.6 1001.48C1085.28 999.999 1082.52 1001.15 1081.04 1001.48Z" fill="#9b9898" fill-opacity="0.563063" fill-rule="evenodd" opacity="0.451279" stroke="none"/>
<path d="M1165.55 1477.88C1164.91 1477.36 1163.91 1477.1 1163.63 1476.33C1161.13 1469.46 1159.41 1462.33 1157.33 1455.32C1156.17 1451.4 1155.91 1447.27 1155.48 1443.21C1154.78 1436.45 1153.9 1429.71 1153.37 1422.94C1152.76 1415.18 1152.1 1407.42 1152.11 1399.64C1152.11 1396.1 1152.56 1392.57 1152.76 1389.03C1153.2 1381.13 1152.29 1366.3 1159.12 1360.26C1162.65 1357.14 1167.44 1355.04 1171.9 1353.66C1173.99 1353.01 1179.59 1351.85 1181.69 1352.05C1193.95 1353.2 1205.54 1363.25 1213.07 1372.2C1220.68 1381.22 1226.47 1391.44 1233.08 1401.15C1239.29 1410.27 1246.33 1418.16 1251.68 1427.9C1253.74 1431.64 1255.8 1436.28 1258.75 1439.46C1263.77 1444.88 1272.11 1444.34 1278.31 1447.37C1279.8 1448.1 1285.47 1453.15 1285.93 1453.02C1292.63 1451.17 1293.44 1436.89 1297.2 1431.93C1301.32 1426.5 1309.22 1423.22 1315.35 1420.67C1315.67 1420.53 1321.36 1419.07 1321.54 1418.26C1321.85 1416.86 1312.84 1405.62 1311.79 1403.47C1310.02 1399.82 1307.82 1396.16 1306.53 1392.31C1305.27 1388.54 1304.53 1383.84 1302.36 1380.44C1297.51 1372.84 1291.48 1366.59 1283.96 1361.28C1280.41 1358.77 1277.99 1355.91 1273.85 1354.14C1265.68 1350.66 1258.47 1344.74 1249.41 1344.39C1247.75 1344.33 1244.32 1343.68 1244.41 1341.4C1244.49 1339.29 1246.33 1337.93 1247.4 1336.4C1252.47 1329.23 1256.03 1327.72 1263.63 1323.58C1270.75 1319.71 1276.77 1314.08 1283.22 1309.24C1290.07 1304.09 1296.72 1300.37 1296.53 1290.87C1296.32 1281.06 1289.09 1277.95 1282.3 1272.44C1269.48 1262.04 1249.14 1258.23 1233.23 1262.34C1226.99 1263.95 1221.19 1266 1215.82 1269.43C1214.47 1270.29 1212.43 1272.21 1211.3 1271.07C1208.81 1268.55 1212.4 1264.93 1213.35 1262.66C1215.18 1258.29 1215.68 1253.62 1216.02 1248.91C1217.67 1225.55 1208.24 1205.97 1182.33 1206.75C1179.42 1206.84 1176.46 1206.91 1173.64 1207.66C1162.76 1210.54 1150.45 1218.83 1142.2 1226.17C1135.11 1232.46 1129.09 1239.92 1123.34 1247.46C1109.89 1265.07 1098.12 1287.12 1098.22 1309.81C1098.31 1329.59 1106.41 1348.07 1110.64 1367.08C1111.09 1369.08 1112.85 1378.03 1112.61 1380.34C1112.37 1382.72 1108.78 1389.08 1107.85 1390.79C1104.03 1397.85 1098.8 1403.36 1094.02 1409.81C1086.56 1419.88 1078.39 1430.62 1072.77 1441.89C1070.1 1447.25 1066.28 1458.87 1071.02 1464.33C1073.01 1466.62 1075.53 1468.4 1077.54 1470.67C1080.19 1473.68 1080.98 1475.21 1084.63 1476.96C1098.89 1483.8 1110.83 1465.28 1122.12 1460.16C1125 1458.86 1128.09 1456.91 1131.2 1457.46C1139.84 1458.98 1147.86 1475.88 1158.21 1469.28C1163.61 1465.84 1165.48 1458.34 1170.72 1454.5C1173.6 1452.39 1176.71 1453.2 1179.8 1451.8C1186.65 1448.7 1190.35 1443.23 1194.69 1437.36C1197.2 1433.98 1199.85 1431 1202.48 1427.76C1204.93 1424.74 1206.19 1420.94 1208.46 1417.77C1209.77 1415.95 1211.45 1413.17 1213.77 1412.53C1219.22 1411.03 1221.98 1417.94 1224.07 1421.41C1228.62 1428.99 1241.86 1442.31 1252.01 1436.65C1260.73 1431.78 1262.14 1412.01 1259.11 1403.7C1258.35 1401.61 1257.08 1403.37 1255.45 1402.32C1254.61 1401.78 1252.03 1397.44 1252.01 1397.41" fill="#9b9898" fill-opacity="0.563063" fill-rule="evenodd" opacity="0.451279" stroke="none"/>
<path d="M942.399 1527.24C942.399 1546.67 942.399 1566.09 942.399 1585.52C942.399 1591.95 941.727 1600.5 944.731 1606.5C947.865 1612.77 961.253 1612.85 966.878 1611.17C972.612 1609.45 975.948 1606.34 979.701 1601.84C984.818 1595.7 989.037 1588.54 993.688 1582.02C994.325 1581.13 998.473 1574.21 999.517 1573.87C1002.84 1572.76 1005.24 1586.73 1006.51 1589.02C1010.15 1595.57 1021.51 1599.93 1028.66 1598.34C1036.34 1596.64 1043.9 1591.31 1050.81 1587.85C1054.55 1585.98 1058.8 1585.22 1062.46 1583.19C1065.59 1581.45 1067.64 1578.18 1070.62 1576.2C1074.43 1573.66 1077.86 1573.62 1081.11 1570.37C1083.18 1568.3 1082.85 1564.55 1084.61 1562.21C1089.11 1556.21 1094.78 1549.92 1098.6 1543.56C1099.62 1541.86 1097.99 1538.62 1099.76 1537.73C1101.63 1536.79 1110.74 1538.9 1111.42 1538.9C1118.11 1538.9 1123.3 1534.7 1128.91 1531.9C1135.51 1528.6 1145.93 1526.1 1144.06 1516.75C1142.66 1509.76 1136.53 1501.03 1133.57 1494.6C1130.64 1488.26 1127.58 1481.52 1121.91 1477.11C1115.89 1472.43 1107.38 1466.98 1099.76 1465.46C1080.19 1461.54 1060.98 1475.22 1042.65 1479.45C1036.39 1480.89 1029.23 1482.3 1022.83 1482.94C1018.82 1483.34 1014 1482.15 1010.01 1482.94C1004.91 1483.96 1000.58 1488.35 994.854 1486.44C987.926 1484.13 990.191 1474.31 990.191 1468.96C990.191 1461.14 993.543 1454.24 996.02 1446.81C999.765 1435.57 1009.44 1424.02 991.357 1420C966.22 1414.41 952.462 1441.38 936.571 1456.13C932.751 1459.68 927.595 1461.69 922.583 1463.13C921.748 1463.37 920.866 1464.91 920.252 1464.29C919.427 1463.47 920.252 1461.96 920.252 1460.8" fill="#9b9898" fill-opacity="0.563063" fill-rule="evenodd" opacity="0.451279" stroke="none"/>
<path d="M788.532 1319.75C788.532 1343.08 789.878 1366.38 790.863 1389.69C791.37 1401.69 791.6 1418.37 797.857 1429.32C803.657 1439.47 813.411 1436.22 822.336 1433.99C834.104 1431.04 867.841 1424.35 870.128 1408.34C870.348 1406.8 870.74 1405.11 870.128 1403.68C869.479 1402.16 867.505 1401.58 866.631 1400.18C865.745 1398.76 862.192 1388.48 861.968 1387.36C860.312 1379.07 860.476 1370.11 859.637 1361.71C859.228 1357.62 860.436 1356.32 858.472 1352.39C856.188 1347.82 851.349 1342.25 847.981 1338.4C842.159 1331.75 834.593 1324.31 826.999 1319.75C816.688 1313.56 803.045 1307.63 795.526 1297.6C791.484 1292.21 791.541 1283.89 790.863 1277.79" fill="#9b9898" fill-opacity="0.563063" fill-rule="evenodd" opacity="0.451279" stroke="none"/>
<path d="M830.496 1094.78C832.05 1097.11 834.205 1099.14 835.158 1101.77C840.843 1117.49 846.184 1133.37 850.312 1149.56C852.584 1158.48 849.036 1170.9 847.981 1179.87C846.856 1189.43 846.073 1199.37 846.815 1209.01C847.169 1213.61 850.111 1219.02 856.14 1216.01C874.914 1206.62 882.268 1185.05 896.938 1171.71C900.158 1168.78 905.885 1164.53 910.926 1167.05C925.139 1174.15 926.341 1196.51 940.068 1204.35C941.049 1204.91 953.564 1206.17 954.056 1205.52C956.867 1201.77 955.222 1192.17 955.222 1188.03C955.222 1179.82 952.556 1152.73 947.062 1147.23C943.57 1143.74 937.135 1139.33 933.074 1136.74C926.557 1132.59 918.877 1129.95 912.092 1126.25C905.78 1122.81 900.021 1118.75 893.441 1115.76C887.827 1113.21 881.371 1111.37 888.779 1106.43" fill="#9b9898" fill-opacity="0.563063" fill-rule="evenodd" opacity="0.451279" stroke="none"/>
<path d="M985.529 1149.56C997.801 1167.97 1006.97 1200.6 1033.32 1206.68C1049.42 1210.4 1061.14 1198.51 1069.46 1186.86C1069.78 1186.41 1072.7 1182.29 1072.95 1181.04C1073.89 1176.35 1069.52 1170.2 1068.29 1165.88C1067.41 1162.8 1067.15 1159.53 1065.96 1156.56C1064.8 1153.65 1063.18 1150.9 1061.3 1148.4C1055.14 1140.19 1044.83 1135.75 1035.65 1132.08C1012.11 1122.66 986.307 1119.48 961.05 1121.59C948.527 1122.63 932.822 1128.95 920.252 1123.92C907.163 1118.68 916.457 1098.99 909.761 1088.95C905.335 1082.31 897.14 1085.57 891.11 1081.96C887.173 1079.59 884.889 1074.57 881.785 1071.46C872.995 1062.67 858.368 1064.8 847.981 1069.13C844.995 1070.38 835.449 1077.07 831.661 1076.13C828.997 1075.46 831.217 1072.13 831.661 1071.46C838.608 1061.04 850.485 1056.83 860.803 1050.48C882.91 1036.88 899.29 1023.25 926.08 1021.34C933.758 1020.79 941.763 1018.57 949.393 1021.34C955.881 1023.7 961.743 1028.97 968.044 1031.83C976.385 1035.62 985.272 1038.58 993.688 1042.32C997.931 1044.21 998.374 1045.3 1003.01 1045.82C1012.09 1046.83 1023.53 1046.36 1032.16 1043.49C1034.75 1042.62 1041.49 1040.7 1043.81 1043.49C1046.8 1047.07 1043.02 1061.74 1046.14 1063.3C1053.09 1066.78 1056.15 1057.48 1062.46 1057.48C1064.44 1057.48 1066.37 1058.16 1068.29 1058.64C1092.48 1064.69 1090.47 1082.26 1092.77 1102.94C1093.32 1107.85 1096.11 1120.82 1093.94 1126.25C1091.08 1133.39 1084.19 1140.87 1079.95 1147.23C1077.9 1150.31 1074.65 1150.84 1072.95 1154.23" fill="#9b9898" fill-opacity="0.563063" fill-rule="evenodd" opacity="0.451279" stroke="none"/>
<path d="M1004.76 1164.13C1000.28 1165.84 994.41 1165.68 991.357 1169.38C984.724 1177.42 982.579 1188.32 977.369 1197.36C975.067 1201.35 959.912 1206.56 955.222 1205.52C947.166 1203.73 943.707 1193.22 941.234 1186.86C936.284 1174.14 928.134 1135.71 944.731 1127.42C949.909 1124.83 957.19 1121.85 962.216 1126.25C967.199 1130.61 969.197 1137.07 976.204 1139.07C985.101 1141.61 990.177 1130.62 996.02 1132.08C1000.14 1133.11 1000.76 1140.24 1005.35 1140.24C1008.39 1140.24 1013.34 1132.19 1014.67 1134.41C1017.82 1139.66 1015.84 1149.58 1015.84 1155.39C1015.84 1156.95 1017.06 1159.09 1015.84 1160.05C1012.75 1162.49 1008.44 1162.73 1004.76 1164.13Z" fill="#9b9898" fill-opacity="0.563063" fill-rule="evenodd" opacity="0.451279" stroke="none"/>
<path d="M768.829 982.564C770.299 980.551 774.236 976.704 771.929 975.76C766.605 973.582 760.405 976.04 754.7 976.784C752.32 977.095 750.027 977.969 747.817 978.907C744.323 980.39 741.749 983.595 739.394 986.572C731.924 996.019 727.346 1007.4 727.334 1019.53C727.323 1032.27 737.989 1035.83 748.009 1039.8C761.857 1045.28 777.792 1052.18 787.295 1063.94C800.079 1079.77 803.148 1101.65 815.86 1117.39C821.215 1124.01 830.563 1130.67 838.874 1124.59C851.751 1115.16 856.507 1095.86 854.954 1080.64C854.305 1074.29 851.865 1068.25 850.267 1062.07C847.267 1050.46 846.431 1038.05 841.636 1026.91C840.389 1024.02 838.215 1021.6 836.792 1018.79C832.093 1009.51 830.606 998.925 822.559 991.599C809.695 979.887 788.74 985.782 774.193 990.267C770.342 991.455 762.366 995.593 758.246 997.134C757.313 997.483 755.027 998.727 755.325 997.775C756.004 995.605 758.177 994.232 759.686 992.531C762.679 989.16 766.171 986.206 768.829 982.564Z" fill="#9b9898" fill-opacity="0.563063" fill-rule="evenodd" opacity="0.451279" stroke="none"/>
<path d="M1743.05 173.781C1723.94 173.781 1705.45 176.564 1686.47 176.564" fill="#9b9898" fill-opacity="0.563063" fill-rule="evenodd" opacity="0.451279" stroke="none"/>
<path d="M757.051 1255.32C756.61 1255.65 755.875 1255.79 755.729 1256.32C754.097 1262.27 753.141 1268.38 751.817 1274.4C750.692 1279.52 749.504 1284.62 748.384 1289.74C746.457 1298.53 741.795 1320.88 756.44 1322.23C764.887 1323.02 773.426 1315.53 780.123 1311.57C785.054 1308.66 790.638 1306.75 795.205 1303.24C800.111 1299.47 800.564 1297.9 804.937 1293.52C808.326 1290.13 812.177 1287.72 815.817 1284.69C819.186 1281.9 822.236 1275.13 825.572 1273.52C827.275 1272.71 828.242 1274.87 828.581 1276.04C830.003 1280.93 829.14 1286.19 831.105 1291.03C834.056 1298.3 840.367 1303.69 847.86 1305.66C871.06 1311.77 899.009 1297.29 903.097 1272.99C906.639 1251.93 888.863 1230.17 870.056 1222.98C861.748 1219.8 852.785 1219.59 844.154 1217.78C834.73 1215.81 825.159 1213.67 815.956 1210.81C802.562 1206.64 787.694 1198.9 773.14 1201.14C765.714 1202.28 766.024 1205.66 763.536 1211.88C761.495 1216.97 760.656 1217.87 758.135 1223.11C757.409 1224.63 753.587 1230.85 755.074 1233.23C755.727 1234.27 757.325 1234.25 758.386 1234.88C761.523 1236.73 762.6 1238.98 762.908 1242.79C763.385 1248.68 759.818 1254.46 761.618 1260.33C762.103 1261.91 763.608 1262.97 764.604 1264.3" fill="#9b9898" fill-opacity="0.563063" fill-rule="evenodd" opacity="0.451279" stroke="none"/>
<path d="M1069.22 1552.62C1067.9 1551.95 1066.59 1551.28 1065.28 1550.62" fill="#9b9898" fill-opacity="0.563063" fill-rule="evenodd" opacity="0.451279" stroke="none"/>
<path d="M803.749 1528.04C794.214 1542.74 789.45 1562.15 786.069 1579.08C784.669 1586.08 782.228 1594.36 785.133 1601.32C787.164 1606.19 792.837 1609.25 796.93 1612C800.763 1614.58 804.441 1617.45 808.559 1619.54C814.498 1622.57 821.424 1623.39 827.606 1625.84C834.231 1628.47 840.833 1630.6 847.622 1632.76C855.582 1635.31 863.418 1638.55 872.033 1637.58C883.857 1636.25 893.87 1627.48 902.57 1620.21C908.487 1615.27 915.426 1610.41 919.017 1603.35C920.667 1600.1 912.522 1597.94 910.526 1595.64C907.228 1591.83 906.565 1589.31 904.49 1584.56C903.301 1581.84 899.998 1573.36 897.716 1570.81C894.914 1567.67 889.598 1565.87 885.972 1564.29C878.897 1561.22 871.646 1558.64 864.588 1555.66C853.208 1550.85 843.798 1542.23 838.202 1531.38C833.291 1521.87 826.863 1512.47 826.995 1501.54C827.084 1494.1 826.991 1492.59 829.807 1485.74C831.485 1481.66 833.895 1477.91 835.809 1473.94C837.586 1470.24 838.258 1468.9 839.412 1464.98C842.139 1455.72 849.392 1426.54 830.835 1430.23C828.569 1430.68 826.484 1431.79 824.329 1432.62C821.956 1433.54 819.451 1434.19 817.252 1435.47C814.407 1437.12 811.635 1439 809.317 1441.33C805.237 1445.44 802.069 1450.39 798.92 1455.24C798.238 1456.29 797.766 1457.5 797.49 1458.72C797.405 1459.1 797.511 1459.89 797.888 1459.81C801.222 1459.09 803.371 1455.73 805.881 1453.42C808.04 1451.44 810.145 1449.4 812.277 1447.38C818.583 1441.43 826.045 1434.3 835.167 1433.32C853.322 1431.37 878.766 1445.3 889.39 1459.67C895.204 1467.54 895.999 1477.44 902.655 1485.07C906.603 1489.6 910.756 1490.55 915.767 1493.3C922.567 1497.04 929.738 1503.2 932.52 1510.77C938.375 1526.72 938.543 1547.48 931.838 1563.2C929.911 1567.72 926.715 1571.75 925.149 1576.48C923.621 1581.11 923.165 1585.95 920.001 1589.94C912.184 1599.8 900.531 1605.83 889.972 1612.04C887.704 1613.38 885.127 1615.82 882.665 1616.94C879.631 1618.33 878.191 1611.92 873.314 1612.25C867.837 1612.63 862.845 1616.15 857.223 1616.69C845.614 1617.8 835.02 1611.82 824.373 1608.32C810.409 1603.74 795.837 1602.56 783.257 1594.87C779.396 1592.52 775.909 1590.94 773.225 1586.99C772.326 1585.67 769.591 1579 769.07 1577.69C767.965 1574.91 767.034 1572.67 767.367 1569.7" fill="#9b9898" fill-opacity="0.563063" fill-rule="evenodd" opacity="0.451279" stroke="none"/>
<path d="M1194.74 1128.63C1191.35 1138.82 1187.94 1148.61 1186.31 1159.53C1185.39 1165.71 1185.22 1172.12 1186.31 1178.26C1188.14 1188.46 1201.17 1192.71 1209.73 1193.25C1227.95 1194.39 1246.1 1190.34 1262.17 1201.68C1275.18 1210.86 1278.44 1227.22 1284.64 1241.01C1286.46 1245.05 1290.58 1255.22 1297.76 1251.31C1303.94 1247.93 1310.54 1231.99 1314.61 1226.02C1326.09 1209.19 1335.03 1200.18 1338.02 1179.2C1338.41 1176.53 1339.42 1170.27 1338.96 1167.03C1338.52 1163.96 1334.02 1163.83 1332.41 1161.41C1330.1 1157.95 1329.77 1154.09 1326.79 1151.11" fill="#9b9898" fill-opacity="0.563063" fill-rule="evenodd" opacity="0.451279" stroke="none"/>
</g>
<g id="Layer-2" vectornator:layerName="Layer 2">
<path d="M799.43 870.152C800.665 866.419 800.485 862.191 802.329 858.717C810.943 842.492 829.206 842.069 845.281 838.274C853.123 836.422 861.405 833.158 869.698 833.553C872.317 833.678 874.733 835.071 877.321 835.486C882.09 836.252 886.058 835.571 890.735 836.649C897.764 838.269 902.34 842.419 908.199 846.113C911.519 848.206 915.636 848.715 919.102 850.556C932.275 857.549 942.404 867.4 948.14 880.579C950.973 887.09 964.955 903.53 962.316 909.632C961.223 912.159 958.643 913.791 957.295 916.192C956.23 918.091 956.294 920.504 955.17 922.368C948.828 932.886 936.041 937.637 925.155 929.306C924.29 928.644 924.186 927.264 923.322 926.603C920.269 924.266 893.654 917.254 891.381 919.064C885.887 923.441 892.313 931.13 886.261 935.951C882.048 939.306 882.45 937.118 877.767 938.553C866.639 941.963 853.145 945.207 841.384 941.918C828.977 938.449 815.874 929.286 811.477 916.43C809.985 912.071 809.426 909.471 807.041 905.234C801.409 895.229 795.457 882.157 799.43 870.152Z" fill="#ffdfd7" fill-rule="evenodd" opacity="1" stroke="#2222a6" stroke-linecap="round" stroke-linejoin="round" stroke-width="5"/>
<path d="M795.56 896.448C776.742 903.903 756.252 942.173 774.5 959.652C783.258 968.04 795.489 962.71 803.738 969.023C810.796 974.424 810.822 983.791 814.056 991.222C816.323 996.431 820.175 997.206 824.089 1000.2C827.624 1002.91 830.249 1008.64 835.57 1008.99C849.151 1009.87 858.241 997.3 862.02 986.318C862.959 983.589 867.726 970.827 870.229 970.494C879.147 969.308 883.097 982.942 888.655 987.196C894.12 991.377 903.701 992.969 910.27 994.634C913.368 995.42 917.49 998.418 920.788 996.182C922.93 994.729 921.184 990.126 921.273 988.751C921.487 985.481 923.315 985.112 924.846 982.383C926.876 978.765 925.262 974.432 924.754 970.61C924.489 968.62 925.301 966.629 925.432 964.626C925.527 963.169 923.645 961.103 924.854 960.284C928.941 957.512 932.636 963.652 935.758 964.727C943.963 967.55 952.469 968.18 960.945 965.797C965.253 964.586 969.241 962.392 973.589 961.169C975.521 960.626 977.678 960.275 979.187 958.952C988.048 951.176 979.579 944.045 975.044 938.877C974.029 937.72 974.097 935.826 973.019 934.727C971.495 933.173 968.572 933.925 966.843 932.602C965.979 931.94 965.988 930.378 965.011 929.899C963.209 929.015 960.778 930.203 959.028 929.221C955.57 927.281 953.391 925.9 949.572 924.586" fill="#ffdfd7" fill-rule="evenodd" opacity="1" stroke="#2222a6" stroke-linecap="round" stroke-linejoin="round" stroke-width="5"/>
<path d="M865.697 958.574C865.746 960.817 867.238 966.011 865.116 965.281C862.814 964.489 864.13 960.476 864.153 958.043C864.164 956.954 865.094 956.036 865.216 954.955C865.326 953.987 864.703 951.094 864.831 952.059C865.12 954.231 865.65 956.384 865.697 958.574Z" fill="none" fill-rule="evenodd" opacity="1" stroke="#2222a6" stroke-linecap="round" stroke-linejoin="round" stroke-width="5"/>
<path d="M1046.29 1306.02C1035.4 1284.25 1015.95 1267.14 1008.8 1243.28C1006.99 1237.26 1004.46 1228.98 1005.73 1222.62C1006.81 1217.24 1011.55 1211.32 1014.15 1206.55C1019.44 1196.85 1031.48 1185.89 1043.23 1185.89C1053.82 1185.89 1061.28 1196.6 1071.54 1196.6C1077.59 1196.6 1080.23 1188.08 1083.02 1184.36C1088.87 1176.55 1102.54 1167.48 1112.86 1171.35C1123.26 1175.25 1134.57 1183.41 1139.64 1193.54C1141.58 1197.43 1143.64 1213.47 1147.29 1214.2C1151.58 1215.06 1158.63 1210.33 1162.6 1208.85C1171.07 1205.67 1190.94 1202.36 1199.32 1206.55C1204.35 1209.06 1207.76 1214.74 1210.8 1218.79C1214.62 1223.89 1208.11 1236.37 1211.57 1240.98C1214.21 1244.51 1222.46 1243.59 1226.1 1244.04C1231.25 1244.69 1235.83 1247.03 1240.64 1248.63C1243.33 1249.53 1246.59 1248.86 1248.29 1251.7C1249.65 1253.96 1249.41 1256.98 1250.59 1259.35C1253.85 1265.86 1257.64 1278.32 1251.36 1284.6C1246.05 1289.9 1223.47 1296.01 1224.57 1303.73C1225.39 1309.41 1231.11 1312.75 1234.52 1316.74C1240.46 1323.67 1255.24 1343.75 1251.36 1353.46C1250.12 1356.55 1247.86 1356.12 1245.23 1357.29C1237.46 1360.74 1233 1365.71 1223.81 1364.18C1221.3 1363.76 1216.17 1360.8 1213.86 1362.65C1207.81 1367.49 1214.6 1376.23 1215.39 1381.77C1216.82 1391.78 1208.54 1398.39 1200.85 1403.2C1193.11 1408.04 1174.97 1406.88 1167.19 1402.43C1163.32 1400.23 1158.18 1393.64 1153.41 1395.55C1148.24 1397.62 1146.04 1404.27 1143.47 1408.56C1139.03 1415.95 1132.3 1426.3 1123.57 1429.22C1112.61 1432.87 1097.35 1433.39 1091.43 1421.56C1090.57 1419.83 1088.21 1405.5 1086.84 1405.5C1086.66 1405.5 1079.87 1411.75 1077.66 1412.38C1073.59 1413.54 1069.43 1413.98 1065.42 1415.44C1058.21 1418.06 1047.4 1423.2 1039.4 1420.8C1033.62 1419.06 1028.6 1413.04 1024.86 1408.56C1022.44 1405.64 1019.39 1401.7 1018.74 1397.84C1017.7 1391.58 1019.31 1386.3 1021.04 1380.24C1021.3 1379.32 1022.82 1374.87 1022.57 1374.12C1022.08 1372.65 1019.52 1373.19 1017.98 1373.36C1012.84 1373.93 1008.63 1374.56 1003.44 1373.36C992.048 1370.73 973.671 1365.79 965.946 1356.52C960.623 1350.14 960.445 1328.41 965.18 1322.09C969.16 1316.78 974.756 1313.27 978.188 1307.55C979.161 1305.93 985.537 1294.94 985.075 1293.78C983.863 1290.75 979.771 1287.76 978.188 1284.6C974.744 1277.71 976.678 1268.47 978.953 1261.64C981.109 1255.18 988.264 1250.27 994.257 1247.87C995.939 1247.2 998.758 1247.75 1000.38 1247.1C1003.53 1245.84 1004.13 1242.86 1008.03 1244.81" fill="#ffdfd7" fill-rule="evenodd" opacity="1" stroke="#2222a6" stroke-linecap="round" stroke-linejoin="round" stroke-width="5"/>
<path d="M1145.76 1216.5C1145.76 1223.05 1146.45 1228.9 1143.47 1234.86" fill="none" fill-rule="evenodd" opacity="1" stroke="#2222a6" stroke-linecap="round" stroke-linejoin="round" stroke-width="5"/>
<path d="M1222.28 1306.79C1218.8 1305.05 1216.11 1302.69 1212.33 1301.43C1208.53 1300.16 1204.68 1300.09 1200.85 1299.14" fill="none" fill-rule="evenodd" opacity="1" stroke="#2222a6" stroke-linecap="round" stroke-linejoin="round" stroke-width="5"/>
<path d="M1153.41 1393.25C1144.4 1384.24 1141.97 1375.75 1138.11 1364.18" fill="none" fill-rule="evenodd" opacity="1" stroke="#2222a6" stroke-linecap="round" stroke-linejoin="round" stroke-width="5"/>
<path d="M1019.51 1374.12C1023.02 1372.37 1027.42 1370.8 1030.22 1368C1034.94 1363.28 1038.75 1358.42 1043.99 1354.23" fill="none" fill-rule="evenodd" opacity="1" stroke="#2222a6" stroke-linecap="round" stroke-linejoin="round" stroke-width="5"/>
<path d="M894.647 1454.03C900.731 1435.77 887.293 1417.4 887.293 1399.4C887.293 1395.43 889.804 1382.22 894.122 1380.49C896.943 1379.36 906.324 1391.84 908.304 1394.15C915.491 1402.53 923.304 1409.05 932.467 1415.16C938.599 1419.25 946.35 1421.33 951.902 1426.19C953.437 1427.53 962.477 1436.08 960.306 1438.79C959.566 1439.72 948.075 1439.32 946.649 1439.32C937.481 1439.32 928.358 1442.44 919.86 1445.62C909.899 1449.36 918.811 1454.63 912.506 1458.23C909.097 1460.18 901.67 1461.41 897.799 1460.86C895.155 1460.48 891.475 1455.97 888.869 1457.7C885.644 1459.85 883.112 1463.28 879.94 1465.58C875.382 1468.9 870.188 1471.63 865.757 1475.04C854.35 1483.81 845.187 1498.27 839.493 1511.28C835.293 1520.88 833.093 1533.62 840.019 1542.27C847.603 1551.75 865.297 1549.54 875.737 1548.05C877.584 1547.79 879.823 1548.13 881.515 1547C885.7 1544.21 890.461 1539.25 895.698 1538.6C901.246 1537.9 903.524 1541.36 908.304 1542.8C912.77 1544.14 917.341 1543.85 921.961 1543.85C930.812 1543.85 940.29 1543.82 944.023 1533.87C945.064 1531.09 944.078 1528.28 944.548 1525.46C945.826 1517.8 945.369 1510.89 943.498 1503.4C942.846 1500.8 941.327 1498.26 940.871 1495.52C939.707 1488.54 936.474 1480.52 932.467 1474.51C929.257 1469.7 925.708 1465.37 922.487 1460.86C921.094 1458.91 918.122 1457.82 917.234 1455.6C916.452 1453.65 919.077 1449.03 920.386 1447.72C925.613 1442.5 931.195 1443.72 937.72 1443C942.329 1442.48 945.969 1439.46 950.326 1438.27C954.065 1437.25 958.199 1437.4 961.882 1436.17C967.1 1434.43 972.167 1434.61 977.64 1434.07C984.054 1433.43 989.188 1430.07 996.025 1431.44C1004.89 1433.21 1019.19 1443.44 1024.39 1450.88C1026.36 1453.69 1028.43 1458.9 1027.02 1462.43C1025.54 1466.12 1016.27 1473.83 1017.04 1477.66C1017.63 1480.64 1025.37 1479.11 1027.54 1479.77C1032.77 1481.33 1038.64 1484.62 1041.2 1489.75C1047.25 1501.85 1027.13 1514.11 1018.09 1517.59C1014.86 1518.83 1011.27 1519.3 1008.11 1520.74C1004.99 1522.16 1002.75 1523.59 999.176 1523.89C981.067 1525.4 973.992 1510.17 965.034 1497.62C961.521 1492.71 956.977 1488.81 952.427 1485.02C948.642 1481.86 945.378 1477.43 941.396 1475.04C940.447 1474.47 939.131 1474.65 938.245 1473.99C934.289 1471.02 932.065 1466.76 928.79 1463.48C927.897 1462.59 927.951 1460.33 926.689 1460.33C925.967 1460.33 926.891 1461.79 927.214 1462.43C928.5 1465 929.355 1467.48 930.891 1469.79C931.108 1470.11 931.241 1470.49 931.416 1470.84C934.619 1477.24 937.335 1483.43 939.821 1490.27C943.12 1499.34 944.653 1508.13 945.599 1517.59C946.148 1523.08 943.346 1528.23 948.225 1532.29C953.517 1536.7 972.315 1540.28 978.691 1537.55C981.679 1536.26 989.959 1524.79 986.045 1522.84" fill="#ffdfd7" fill-rule="evenodd" opacity="1" stroke="#2222a6" stroke-linecap="round" stroke-linejoin="round" stroke-width="5"/>
<path d="M828.997 1245.71C832.045 1254.31 836.308 1262.76 839.617 1271.28C850.281 1298.76 859.84 1326.53 872.884 1352.95C876.964 1361.21 882.642 1368.97 885.658 1377.55C885.806 1377.97 887.467 1383.43 888.855 1382.94C893.008 1381.48 889.924 1374.76 889.266 1372.37C886.795 1363.42 883.996 1355.24 880.618 1346.54C874.898 1331.8 869.411 1316.72 862.926 1302.39C858.718 1293.08 852.464 1284.51 848.554 1275.09C847.681 1272.99 847.393 1270.56 846.437 1268.45C842.35 1259.41 838.408 1250.72 832.415 1242.77C832.144 1242.41 826.607 1237.11 826.173 1237.36C823.946 1238.69 828.636 1244.69 828.997 1245.71Z" fill="none" fill-rule="evenodd" opacity="1" stroke="#2222a6" stroke-linecap="round" stroke-linejoin="round" stroke-width="5"/>
<path d="M790.56 1260.5C789.7 1260.15 788.514 1260.14 787.782 1260.71C785.34 1262.61 784.29 1265.82 782.435 1268.3C778.127 1274.06 775.383 1279.77 772.489 1286.33C764.366 1304.77 759.587 1325.4 762.915 1345.7C763.945 1351.97 765.512 1360.76 770.994 1364.86C778.779 1370.69 792.22 1355.28 801.614 1357.66C805.307 1358.59 807.027 1363.11 809.413 1365.78C813.588 1370.46 822.524 1373.96 828.798 1373.69C832.253 1373.55 834.876 1371.54 838.01 1370.43C841.069 1369.35 845.512 1369.6 848.239 1367.85C856.269 1362.69 849.054 1339.39 846.585 1332.42C840.227 1314.45 833.149 1295.3 820.524 1280.74C817.725 1277.51 815.183 1273.57 811.844 1270.85C808.671 1268.28 803.105 1263.75 799.099 1262.66C795.827 1261.77 793.828 1261.83 790.56 1260.5Z" fill="#ffdfd7" fill-rule="evenodd" opacity="1" stroke="#2222a6" stroke-linecap="round" stroke-linejoin="round" stroke-width="5"/>
<path d="M853.735 1276.29C853.297 1251.17 868.293 1231.73 880.648 1211.25C888.427 1198.36 897.198 1186.67 906.037 1174.52C913.844 1163.78 921.214 1152.62 930.407 1142.97C937.859 1135.14 946.849 1128.15 955.458 1121.64C969.453 1111.07 985.652 1104.3 1001.35 1097.01C1006.28 1094.72 1012.04 1092.84 1017.26 1091.39C1018.87 1090.95 1020.53 1090.65 1022.18 1090.34C1023.14 1090.16 1025.62 1088.77 1025.02 1089.55C1022.22 1093.18 1015.3 1094.8 1011.45 1096.98C1005.98 1100.07 1000.93 1104.55 995.297 1107.27C987.941 1110.81 980.399 1113.89 973.578 1118.48C964.555 1124.53 956.487 1132.2 947.485 1138.25C938.754 1144.11 929.961 1151.55 923.081 1159.7C919.151 1164.35 916.668 1169.88 912.771 1174.49C908.392 1179.68 903.528 1184.87 900.134 1190.85C896.732 1196.85 894.079 1203.18 890.483 1209.15C882.318 1222.68 872.311 1234.84 864.585 1248.47C860.913 1254.95 858.033 1262.59 855.72 1269.61C855.271 1270.97 853.838 1282.16 853.735 1276.29Z" fill="none" fill-rule="evenodd" opacity="1" stroke="#2222a6" stroke-linecap="round" stroke-linejoin="round" stroke-width="5"/>
<path d="M1012.78 1101.45C1014.19 1102.38 1008.7 1095.26 1008.29 1093.96C1006.39 1087.88 1005.19 1081.61 1004.02 1075.35C1000.84 1058.25 999.335 1040.37 1004.47 1023.46C1008.36 1010.66 1020.26 996.297 1029.03 986.191C1031.54 983.304 1038 977.209 1042.19 977.646C1045.75 978.017 1045.96 981.225 1047.67 983.647C1050.19 987.209 1054.48 992.643 1059.2 993.202C1062.95 993.645 1066.85 991.991 1070.66 991.996C1077.03 992.006 1085.09 994.299 1090.35 997.862C1100.09 1004.46 1102.93 1018.08 1105.08 1028.79C1106 1033.37 1107.96 1037.06 1108.04 1041.94C1108.07 1043.86 1108.91 1048.79 1107.37 1050.38C1106.68 1051.08 1104.63 1050.98 1104.86 1051.94C1105.39 1054.17 1110.96 1053.93 1112.51 1054.15C1116.68 1054.73 1122.33 1056.53 1123.79 1061.07C1125.73 1067.07 1116.62 1071.68 1112.63 1073.95C1103.83 1078.95 1093.91 1082.24 1084.51 1085.89C1077.45 1088.63 1070.74 1092.08 1063.32 1093.85C1052.51 1096.44 1041.53 1099.05 1030.65 1101.3C1027.82 1101.89 1024.95 1101.9 1022.14 1102.76C1020.69 1103.21 1012.67 1106.53 1012.38 1107.8C1012.16 1108.73 1014.71 1109.9 1015.26 1110.19C1018.64 1111.92 1022.13 1113.78 1025.01 1116.32C1030.52 1121.18 1032.8 1127.15 1037.06 1132.87C1039.3 1135.89 1042.06 1138.63 1044.51 1141.48C1050.58 1148.54 1058.74 1162.84 1068.26 1165.05C1075.37 1166.7 1082.65 1162.5 1089.63 1161.85C1100.6 1160.82 1114.81 1158.32 1119.42 1146.43C1120.26 1144.27 1120.86 1141.19 1120.31 1138.9C1119.69 1136.3 1118.74 1132.52 1117.63 1130.11C1116.71 1128.11 1114.57 1128.55 1113.62 1127.03C1113.47 1126.79 1114.16 1127.16 1114.43 1127.22C1114.98 1127.35 1115.51 1127.57 1116.07 1127.6C1117.08 1127.65 1118.1 1127.54 1119.11 1127.45C1122.67 1127.11 1122.78 1126.95 1126.3 1126.11C1133.73 1124.33 1140.14 1120.35 1140.78 1111.86C1141.02 1108.74 1139.36 1107.05 1137.72 1104.7C1131.17 1095.33 1116.37 1092.22 1105.61 1091.22C1097.36 1090.45 1089.37 1088.76 1081.02 1089.8C1062.32 1092.15 1044.4 1097.72 1025.75 1100.16C1018.8 1101.08 1012.61 1099.52 1005.64 1099.79C1002.16 1099.92 997.617 1099.87 995.138 1096.92C989.434 1090.13 986.472 1081.27 982.059 1073.68C975.454 1062.32 965.623 1049.98 965.395 1036.29C965.313 1031.36 966.657 1026.53 967.08 1021.64C967.882 1012.39 970.664 1006.18 975.117 998.155C976.408 995.828 978.59 992.125 981.402 991.451C985.564 990.453 986.004 997.12 990.334 997.394C994.618 997.665 996.687 990.952 1002.95 993.021C1006.9 994.325 1012.1 999.853 1012.38 1004.24C1012.7 1009.34 1007.09 1011.44 1005.05 1015.43C1004.29 1016.91 1003.41 1019.33 1002.91 1020.94C999.185 1033 996.271 1046.58 997.454 1059.21C998.338 1068.64 1001.32 1077.55 1004 1086.52C1005.41 1091.22 1005.94 1096.21 1007.08 1100.98C1008 1104.81 1012 1108.75 1011.65 1112.79C1011.41 1115.47 1010.26 1117.86 1010.25 1120.63C1010.24 1131.73 1015.95 1143.74 1020.65 1153.55C1022.81 1158.06 1026.88 1165.31 1032.24 1166.56C1037.66 1167.82 1039.97 1156.86 1039.63 1153.24C1038.54 1141.59 1035.13 1128.95 1027.7 1119.53C1025.9 1117.25 1023.29 1116.59 1021.02 1114.97C1018.47 1113.13 1015.83 1109.43 1014.29 1106.96C1013.19 1105.19 1009.44 1099.24 1012.78 1101.45Z" fill="#ffdfd7" fill-rule="evenodd" opacity="1" stroke="#2222a6" stroke-linecap="round" stroke-linejoin="round" stroke-width="5"/>
<path d="M851.79 1264C856.542 1258.27 858.771 1252.05 861.18 1245.18C863.968 1237.23 866.697 1229.27 868.5 1220.98C871.923 1205.25 872.793 1189.25 877.16 1173.84C880.129 1163.37 880.593 1151.41 882.244 1140.62C882.433 1139.38 883.36 1131.39 884.357 1131.54C884.787 1131.61 885.086 1144.45 885.129 1145.4C885.77 1159.46 882.179 1174.14 880.053 1188.03C879.324 1192.79 877.669 1198.2 878.489 1202.98C879.015 1206.05 879.128 1206.9 879.361 1206.73C880.572 1205.84 881.053 1200.4 881.15 1199.77C882.409 1191.55 882.189 1183.58 882 1175.31C881.7 1162.16 882.687 1149.1 881.479 1136.16C881.196 1133.13 883.775 1126.48 881.904 1123.93C880.696 1122.29 879.56 1123.4 877.772 1122.58C876.659 1122.07 872.797 1118.8 871.951 1118.07C864.493 1111.65 857.022 1103.11 852.469 1094.11C848.047 1085.37 846.464 1071.9 847.931 1062.31C848.091 1061.27 847.523 1053.53 848.631 1053.01C849.052 1052.82 861.475 1060.55 863.316 1061.05C867.81 1062.25 879.367 1074.23 881.591 1078.39C884.804 1084.39 888.226 1082.62 887.312 1088.59C885.923 1097.67 883.982 1107.92 884.4 1117.08C884.596 1121.39 885.351 1125.05 884.681 1129.42" fill="none" fill-rule="evenodd" opacity="1" stroke="#2222a6" stroke-linecap="round" stroke-linejoin="round" stroke-width="5"/>
<path d="M877.444 1070.84C874.994 1067.5 836.201 1054.02 832.972 1051.34C828.241 1047.42 822.662 1041.5 816.708 1039.45C800.827 1033.98 782.785 1034.26 770.266 1021.49C763.128 1014.21 753.328 1003.25 757.412 992.035C758.553 988.901 763.536 987.275 766.269 986.156C770.988 984.224 779.964 982.132 784.48 985.326C787.404 987.393 789.752 990.487 792.804 992.387C796.134 994.46 799.538 995.797 802.757 998.25C805.741 1000.52 806.234 1001.74 809.991 1002.97C815.577 1004.81 820.467 1004.99 825.924 1007.58C828.172 1008.65 830.348 1009.88 832.668 1010.78C837.374 1012.61 843.376 1010.65 847.295 1014.47C849.663 1016.78 850.621 1019.51 851.868 1022.4C855.14 1030 860.286 1035.67 857.105 1044.91C856.285 1047.29 874.499 1078.08 883.244 1076.05C888.625 1074.79 857.316 1041.7 857.48 1037.73C858.197 1020.32 857.143 985.383 881.575 984.269C884.751 984.125 889.39 984.25 892.177 985.892C897.98 989.31 899.362 998.765 906.487 1001.1C910.272 1002.34 912.811 999.559 916.217 998.974C924.203 997.604 930.912 994.713 939.102 995.966C942.458 996.48 947.158 996.986 948.457 1001.01C949.204 1003.33 949.647 1007.51 949.986 1009.93C950.357 1012.57 950.393 1015.26 950.21 1017.92C948.902 1036.93 945.504 1052.85 926.814 1062.08C919.261 1065.81 911.434 1065.87 903.496 1067.92C903.283 1067.97 890.109 1070.46 889.141 1071.31C877.903 1081.24 905.04 1071.3 905.891 1071.18C913.968 1070.04 921 1065.37 928.827 1063.11C936.821 1060.81 951.365 1062.88 959.869 1063.52C967.522 1064.1 975.742 1066.29 982.646 1061.22C989.089 1056.49 984.057 1047.28 978.772 1043.99C970.609 1038.91 897.079 1070 887.854 1072.97" fill="#ffdfd7" fill-rule="evenodd" opacity="1" stroke="#2222a6" stroke-linecap="round" stroke-linejoin="round" stroke-width="5"/>
<path d="M1043.08 1356.22C1048.32 1350.98 1051.16 1344.22 1056.4 1338.98" fill="none" fill-rule="evenodd" opacity="1" stroke="#2222a6" stroke-linecap="round" stroke-linejoin="round" stroke-width="5"/>
<path d="M1134.77 1349.95C1136.01 1356.11 1138.69 1362.7 1138.69 1368.76" fill="none" fill-rule="evenodd" opacity="1" stroke="#2222a6" stroke-linecap="round" stroke-linejoin="round" stroke-width="5"/>
<path d="M1095.79 1302.31C1089.64 1286.78 1090.34 1276.47 1097.02 1261.75C1098.9 1257.61 1100.27 1252.99 1103.9 1249.99C1105 1249.07 1108.28 1248.02 1107.13 1247.15C1104.74 1245.31 1101.24 1254.79 1105.2 1255.24C1111.59 1255.96 1105.08 1238.17 1102.99 1247.7C1102.69 1249.07 1102.88 1250.52 1102.95 1251.92C1103 1252.92 1102.72 1254.11 1103.34 1254.88C1103.72 1255.35 1104.76 1255.12 1105.12 1254.65C1107.04 1252.14 1112.58 1242.14 1106.35 1241.22C1097.91 1239.98 1106.34 1259.28 1105.48 1252.79" fill="none" fill-rule="evenodd" opacity="1" stroke="#2222a6" stroke-linecap="round" stroke-linejoin="round" stroke-width="5"/>
<path d="M1104.96 1253.46C1103.28 1252.88 1103.95 1253.4 1102.95 1251.92" fill="none" fill-rule="evenodd" opacity="1" stroke="#2222a6" stroke-linecap="round" stroke-linejoin="round" stroke-width="5"/>
<path d="M1095.28 1302.98C1098.56 1299.55 1102.64 1297.4 1106.18 1294.29C1113.48 1287.88 1120.08 1281.91 1129.4 1278.54C1134.87 1276.57 1140.57 1274.82 1146.18 1273.29C1148.61 1272.64 1152.72 1272.01 1154.83 1270.33C1160.34 1265.94 1148.17 1264.69 1152.34 1274.28C1152.57 1274.8 1153.14 1275.17 1153.69 1275.31C1157.38 1276.24 1161.64 1268.74 1159.1 1266.15C1155.92 1262.91 1153.63 1273.69 1157.83 1274.76C1159.5 1275.18 1160.58 1273.9 1161.15 1272.51C1162.81 1268.42 1157.98 1266.84 1158.54 1271.05" fill="none" fill-rule="evenodd" opacity="1" stroke="#2222a6" stroke-linecap="round" stroke-linejoin="round" stroke-width="5"/>
<path d="M1099.94 1301.76C1106.49 1304.01 1113.25 1307.6 1120.16 1308.71C1129.56 1310.22 1138.1 1310.58 1147.32 1313.53C1149.19 1314.13 1151.08 1314.65 1152.97 1315.19C1153.66 1315.39 1161.18 1318.37 1162.25 1316.97C1162.95 1316.05 1160.13 1316.03 1159.05 1315.59C1158.22 1315.25 1157.36 1315.01 1156.52 1314.72C1156.1 1314.57 1155.34 1313.85 1155.26 1314.28C1154.61 1317.68 1161.89 1319.66 1162.84 1316.89C1164.08 1313.29 1155.61 1316.15 1160.87 1320.17C1162.9 1321.73 1166.51 1318.39 1162.84 1316.89C1160.07 1315.76 1154.85 1319.76 1160.71 1318.98" fill="none" fill-rule="evenodd" opacity="1" stroke="#2222a6" stroke-linecap="round" stroke-linejoin="round" stroke-width="5"/>
<path d="M942.344 1539.02C940.704 1542.3 942.009 1551.23 943.022 1555.28C943.561 1557.44 944.588 1559.47 945.732 1561.38C945.992 1561.81 946.41 1562.74 946.41 1562.74C946.41 1562.74 945.322 1560.86 944.377 1560.7C941.812 1560.28 941.272 1560.18 940.989 1562.74C940.41 1567.95 940.342 1575.64 944.377 1579.68C945.884 1581.18 947.765 1576.39 947.765 1574.25C947.765 1572.74 946.547 1568.7 945.732 1567.48C945.452 1567.06 944.537 1566.32 944.377 1566.8C943.804 1568.52 945.516 1579.3 948.442 1578.32C950.684 1577.57 948.384 1569.82 946.41 1568.83C946.006 1568.63 945.256 1568.43 945.054 1568.83C943.985 1570.97 944.697 1575.93 946.41 1577.64C946.767 1578 947.408 1578.68 947.765 1578.32C950.773 1575.31 945.078 1563.34 943.022 1569.51" fill="none" fill-rule="evenodd" opacity="1" stroke="#2222a6" stroke-linecap="round" stroke-linejoin="round" stroke-width="5"/>
<path d="M984.356 1534.28C986.727 1539.02 987.622 1544.34 989.776 1549.18C989.828 1549.3 991.636 1554.01 993.164 1553.25C994.307 1552.68 991.358 1549.64 990.454 1550.54C989.371 1551.62 990.354 1564.09 993.842 1564.09C999.105 1564.09 993.334 1555.79 991.809 1555.28C988.124 1554.05 989.152 1565.57 993.164 1564.77C996.023 1564.2 994.104 1557.31 992.487 1557.31C990.143 1557.31 992.584 1565.59 995.875 1564.77C999.286 1563.92 992.597 1552.95 991.132 1553.93C988.715 1555.54 991.162 1561.12 991.809 1562.74" fill="none" fill-rule="evenodd" opacity="1" stroke="#2222a6" stroke-linecap="round" stroke-linejoin="round" stroke-width="5"/>
<path d="M783.48 1208.23C783.214 1207.46 784.649 1206.53 785.298 1206.89C789.833 1209.39 793.813 1213.06 798.009 1216.26C801.955 1219.26 806.059 1221.98 810.12 1224.77C829.945 1238.4 848.281 1252.27 869.755 1262.54C884.388 1269.54 899.562 1275.96 914.915 1280.55C928.919 1284.75 943.317 1287.19 957.426 1290.42C962.979 1291.69 968.351 1294.09 973.986 1294.78C974.106 1294.79 979.35 1295.43 977.552 1292.86C976.057 1290.73 967.35 1292.86 965.335 1292.94C951.025 1293.55 936.378 1292.81 922.188 1290.05C906.41 1286.97 891.981 1277.53 877.099 1271.26C869.123 1267.9 860.614 1265.88 852.842 1262.05C843.675 1257.54 834.589 1252.24 825.725 1247.02C817.054 1241.91 807.035 1237.81 799.421 1230.52C798.442 1229.58 798.036 1227.98 797.02 1227.1C795.308 1225.61 792.893 1225.01 791.265 1223.27C788.025 1219.79 785.125 1213 783.48 1208.23Z" fill="none" fill-rule="evenodd" opacity="1" stroke="#2222a6" stroke-linecap="round" stroke-linejoin="round" stroke-width="5"/>
<path d="M802.221 897.451C803.917 902.541 810.034 904.883 813.475 908.706C820.492 916.502 830.503 924.218 841.029 926.558C845.358 927.52 849.843 926.896 854.224 927.334C857.137 927.625 859.752 928.486 862.762 928.11C867.136 927.563 871.069 924.357 874.792 922.289C880.062 919.361 892.138 916.7 898.077 918.02C902.803 919.07 906.929 922.299 911.272 924.229C914.685 925.746 918.553 924.647 922.138 925.005C927.361 925.527 932.872 926.133 938.05 925.393C940.051 925.107 946.938 925.468 947.752 923.841" fill="#ffdfd7" fill-rule="evenodd" opacity="1" stroke="#2222a6" stroke-linecap="round" stroke-linejoin="round" stroke-width="5"/>
<path d="M867.807 926.946C864.007 928.212 861.597 937.641 861.597 941.305" fill="#ffdfd7" fill-rule="evenodd" opacity="1" stroke="#2222a6" stroke-linecap="round" stroke-linejoin="round" stroke-width="5"/>
<path d="M880.225 922.289C881.429 925.299 883.387 927.95 884.882 930.826C886.526 933.987 886.731 937.651 887.987 940.917C888.113 941.246 890.519 945.962 891.092 945.962C892.464 945.962 890.14 942.433 889.539 943.633C889.062 944.587 888.869 945.676 888.763 946.738C888.595 948.422 888.321 959.184 893.032 956.828C895.981 955.353 894.934 950.625 893.42 948.678C892.847 947.942 891.651 946.38 891.092 947.126C890.17 948.354 890.453 954.111 892.644 954.111C895.818 954.111 892.862 943.788 892.256 944.797C891.594 945.9 892.827 958.996 894.584 953.723" fill="#ffdfd7" fill-rule="evenodd" opacity="1" stroke="#2222a6" stroke-linecap="round" stroke-linejoin="round" stroke-width="5"/>
<path d="M695.236 1167.76C691.956 1161.2 691.225 1154.49 689.019 1147.87C685.926 1138.59 681.603 1129.38 679.071 1119.89C676.938 1111.89 677.206 1101.94 677.206 1093.78C677.206 1082.78 678.044 1069.03 690.884 1065.18C695.982 1063.65 707.201 1064.63 712.022 1067.04C715.284 1068.68 716.434 1072.08 718.861 1074.5C722.503 1078.15 727.212 1078.54 731.916 1079.48C735.568 1080.21 738.2 1075.08 740.62 1073.26C743.852 1070.84 748.77 1069.81 752.433 1068.29C757.878 1066.02 763.197 1063.8 769.219 1064.56C777.581 1065.6 791.671 1081.95 795.953 1088.8C805.244 1103.67 799.064 1119.26 789.114 1131.7C787.119 1134.2 785.479 1137.1 782.897 1139.16C777.378 1143.58 772.097 1148 766.111 1151.6C763.22 1153.33 760.512 1154.71 758.028 1156.57C757.559 1156.92 756.261 1157.55 756.785 1157.81C758.358 1158.6 769.267 1149.79 771.084 1148.49C776.908 1144.33 783.018 1140.91 787.87 1136.05C791.324 1132.6 790.363 1127.7 795.953 1126.11C799.465 1125.1 815.021 1129.55 817.712 1131.7C822.235 1135.32 828.084 1153.33 825.795 1159.06C824.174 1163.11 814.157 1169.75 815.847 1173.98C816.381 1175.31 819.897 1176 820.821 1176.47C826.377 1179.24 831.174 1186.79 832.633 1192.63C833.809 1197.33 832.892 1195.63 833.255 1200.71C833.567 1205.07 834.245 1209.36 833.877 1213.77C832.567 1229.48 820.114 1240.38 806.522 1245.47C801.711 1247.28 797.95 1249.19 792.844 1249.83C788.189 1250.41 784.011 1252.5 779.166 1251.69C772.795 1250.63 766.253 1243.1 761.137 1239.26C759.282 1237.87 755.806 1237.04 754.298 1235.53C753.97 1235.2 754.14 1234.28 753.676 1234.28C752.75 1234.28 754.341 1236.05 754.92 1236.77C757.2 1239.62 760.795 1243.55 762.38 1246.72C767.119 1256.2 763.813 1263.32 756.785 1270.34C748.569 1278.56 735.034 1283.4 723.834 1277.8C720.525 1276.15 714.923 1273.81 712.643 1270.97C711.744 1269.84 710.476 1266.18 708.292 1266.61C705.147 1267.24 705.997 1270.71 705.805 1272.83C705.328 1278.07 704.65 1285.22 701.453 1289.62C693.067 1301.15 676.672 1307.56 662.285 1305.16C657.019 1304.28 652.58 1297.44 649.851 1293.35C647.625 1290.01 645.045 1286.54 643.634 1282.78C641.88 1278.1 642.369 1264.29 643.012 1259.15C643.644 1254.1 647.507 1249.88 648.607 1245.47C648.72 1245.03 649.486 1244.62 649.229 1244.23C648.574 1243.25 637.945 1243.43 636.173 1242.99C628.746 1241.13 622.162 1233.74 620.009 1226.2C617.354 1216.91 619.042 1210.99 626.848 1206.31C628.12 1205.54 633.515 1200.45 632.443 1198.85C631.834 1197.93 629.634 1197.05 628.713 1196.36C625.834 1194.2 623.553 1191.71 620.63 1189.52C614.827 1185.17 609.498 1174.49 607.575 1167.76C604.487 1156.96 614.41 1146.01 618.765 1137.3C623.825 1127.18 629.239 1111.41 638.66 1104.35C642.788 1101.25 648.897 1102.58 653.581 1101.86C656.57 1101.4 659.793 1099.37 662.907 1099.37C665.792 1099.37 667.749 1101.83 670.367 1102.48C673.093 1103.16 675.687 1103.43 678.449 1104.35" fill="#ffdfd7" fill-rule="evenodd" opacity="1" stroke="#2222a6" stroke-linecap="round" stroke-linejoin="round" stroke-width="5"/>
<path d="M685.339 968.739C665.398 958.768 663.038 932.95 657.382 914.095C655.066 906.376 654.618 895.867 663.736 892.069C670.203 889.374 685.336 888.508 691.269 892.069C693.458 893.382 700.173 901.388 702.283 901.388C704.27 901.388 704.643 898.905 705.248 897.575C707.014 893.689 709.744 890.297 712.872 887.409C725.343 875.898 746.318 879.747 753.961 895.034C758.573 904.259 760.623 924.434 754.808 933.157C752.485 936.641 748.987 938.541 745.913 941.205C741.159 945.325 737.065 949.285 731.934 953.066C727.386 956.417 723.044 960.688 717.956 963.232C712.359 966.03 706.146 966.82 700.165 968.315C692.045 970.345 683.247 973.022 674.749 972.127C666.344 971.243 658.698 965.797 651.452 961.961C649.102 960.718 646.341 959.891 644.25 958.149C638.65 953.482 635.209 946.844 631.966 940.358C629.198 934.822 625.713 929.71 625.189 923.414C624.61 916.474 627.282 912.413 633.237 909.436C634.94 908.584 636.516 907.919 638.32 907.318C638.337 907.312 641.34 906.101 641.285 906.047C639.966 904.728 638.879 905.58 637.473 904.776C636.73 904.352 635.351 902.399 634.931 901.811C631.968 897.663 633.11 883.067 637.049 879.784C642.333 875.381 651.272 871.535 658.229 873.854C661.114 874.816 663.469 876.645 666.277 877.666C668.389 878.434 677.714 883.157 677.714 886.138C677.714 886.844 676.443 885.432 676.02 884.867C675.47 884.134 675.596 884.008 675.596 883.173C675.596 879.989 675.712 878.443 677.291 875.548C680.818 869.082 687.82 862.168 694.234 858.605C700.579 855.08 710.194 856.346 717.108 857.334C720.065 857.756 721.038 861.954 724.733 860.723C725.13 860.59 727.622 858.647 727.698 858.605C731.853 856.296 744.988 853.316 749.725 854.369C756.07 855.779 768.554 867.714 769.21 874.278C769.871 880.886 767.062 887.679 768.363 894.186C769.157 898.154 771.485 901.764 770.057 906.047C768.732 910.024 765.238 912.209 763.704 915.79C762.362 918.92 763.454 922.73 761.586 925.532" fill="#ffdfd7" fill-rule="evenodd" opacity="1" stroke="#2222a6" stroke-linecap="round" stroke-linejoin="round" stroke-width="5"/>
<path d="M708.275 973.196C709.789 987.976 717.846 1001.37 726.342 1013.24C732.13 1021.33 736.409 1025.52 744.001 1031.7C749.187 1035.93 753.912 1041.1 759.328 1045C773.339 1055.1 788.301 1063.53 804.603 1069.19C807.819 1070.31 810.771 1072.12 814.021 1073.18C820.138 1075.18 826.548 1076.46 832.585 1078.49C836.116 1079.68 838.862 1081.45 842.758 1081.05" fill="none" fill-rule="evenodd" opacity="1" stroke="#2222a6" stroke-linecap="round" stroke-linejoin="round" stroke-width="5"/>
<path d="M712.814 969.127C711.651 972.203 714.106 975.096 715.065 977.906C718.203 987.102 723.692 995.526 728.55 1004C729.939 1006.43 730.568 1009.43 732.047 1011.76C736.075 1018.1 741.462 1024.8 746.985 1030.05C754.398 1037.09 764.275 1040.07 773.24 1044.48C781.913 1048.74 789.663 1054.98 798.203 1059.49C801.327 1061.14 805.062 1060.93 808.376 1062.05C812.49 1063.43 815.426 1066.64 819.36 1068.13C823.201 1069.58 827.563 1068.91 831.271 1070.07C836.929 1071.83 845.689 1078.56 848.873 1083.58" fill="none" fill-rule="evenodd" opacity="1" stroke="#2222a6" stroke-linecap="round" stroke-linejoin="round" stroke-width="5"/>
<path d="M908.701 1205.68C904.655 1202.98 902.755 1196.87 900.602 1192.57C893.681 1178.72 894.219 1163.47 905.616 1152.07C908.878 1148.81 916.679 1147.33 921.041 1146.67C924.49 1146.16 928.734 1144.96 932.225 1145.13C941.821 1145.61 956.886 1156.99 958.833 1166.73C959.327 1169.19 956.765 1180.71 958.448 1181.38C960.296 1182.12 963.651 1180.13 965.389 1179.84C970.372 1179.01 977.375 1178.44 982.357 1179.07C993.828 1180.5 991.96 1193.75 991.227 1201.82C990.821 1206.29 990.72 1210.33 988.913 1214.55C986.146 1221 977.457 1223.06 971.945 1226.5C968.178 1228.86 964.183 1232.3 959.99 1233.83C957.106 1234.88 954.042 1234.18 951.121 1234.6C943.873 1235.63 937.581 1234.21 930.296 1233.83C921.839 1233.38 913.815 1235.26 905.23 1233.83C889.579 1231.22 875.421 1223.21 862.424 1214.55C851.25 1207.1 836.014 1195 839.672 1179.45C844.249 1160 856.452 1151.07 875.921 1152.84C880.686 1153.28 884.861 1155.72 888.647 1158.24C888.908 1158.42 892.487 1162.12 892.889 1161.71C892.995 1161.61 890.983 1159.43 890.961 1159.4C890.048 1158.26 889.449 1157.39 889.033 1155.93C887.882 1151.9 889.326 1149.85 892.118 1147.06C898.316 1140.86 915.87 1132.41 924.512 1134.33C927.731 1135.05 931.588 1137.3 934.153 1139.35C936.33 1141.09 936.579 1142.99 939.552 1143.59C941.507 1143.98 943.67 1141.89 945.722 1141.66C953.7 1140.77 963.071 1140.01 970.788 1142.82C979.076 1145.83 984.483 1162.43 978.887 1169.43C977.647 1170.98 975.213 1171.26 973.488 1172.13" fill="#ffdfd7" fill-rule="evenodd" opacity="1" stroke="#2222a6" stroke-linecap="round" stroke-linejoin="round" stroke-width="5"/>
<path d="M650.123 1422.54C650.123 1419.53 652.471 1416.97 653.949 1414.34C658.78 1405.76 665.982 1398.71 673.082 1391.93C681.206 1384.18 690.419 1379.25 699.867 1373.35C704.928 1370.18 710.229 1366.28 716.266 1365.15C722.908 1363.9 727.659 1367.45 733.759 1368.97C755.79 1374.48 769.364 1392.63 779.129 1412.16C781.59 1417.08 784.613 1426.83 783.503 1432.38C782.452 1437.63 772.784 1438.34 768.743 1439.49C759.472 1442.14 755.301 1441.36 746.878 1437.85C742.137 1435.87 737.175 1435.09 732.665 1432.38C729.872 1430.71 728.314 1428.29 725.012 1427.46C723.695 1427.13 721.89 1427.96 720.639 1427.46C719.793 1427.13 719.814 1424.87 718.999 1425.28C718 1425.78 718.999 1430.67 718.999 1431.29C718.999 1434.57 718.662 1437.54 717.359 1440.58C715.972 1443.82 705.346 1448.91 702.054 1450.97C685.21 1461.5 663.026 1456.9 651.763 1441.13C649.096 1437.4 649.03 1434.6 649.03 1430.2C649.03 1429.41 649.92 1426.42 649.03 1425.82C648.252 1425.31 641.016 1427.37 639.19 1426.92C636.266 1426.19 634.171 1419.56 633.177 1417.08C631.337 1412.48 629.313 1406.31 630.444 1401.23C632.78 1390.71 642.962 1381.56 652.856 1378.27C660.572 1375.69 668.496 1374.62 676.362 1372.8C680.123 1371.93 678.834 1371.51 682.375 1371.16C688.685 1370.53 695.205 1371.86 701.507 1371.16C707.642 1370.48 710.801 1365.69 715.173 1362.41C716.133 1361.69 717.278 1361.95 718.453 1360.77" fill="#ffdfd7" fill-rule="evenodd" opacity="1" stroke="#2222a6" stroke-linecap="round" stroke-linejoin="round" stroke-width="5"/>
<path d="M1306.36 1198.11C1302.36 1191.86 1303.85 1184.59 1304.37 1177.54C1304.65 1173.76 1304.19 1168.52 1305.31 1164.92C1306.89 1159.78 1311.47 1155.55 1314.72 1151.5C1321.44 1143.15 1327.35 1134.78 1338.48 1134.19C1341.17 1134.05 1344.14 1133.33 1346.91 1134.09C1351.05 1135.24 1356.54 1137.09 1359.81 1139.96C1361.98 1141.84 1360.71 1144.84 1364.29 1145.91C1372.8 1148.47 1381.11 1151.47 1388.01 1157.49C1389.73 1158.99 1390.78 1161.29 1392.53 1162.75C1396.92 1166.4 1399.79 1167.99 1401.53 1173.97C1402.98 1178.93 1402.59 1184.85 1398.35 1188.54C1397.78 1189.03 1391.91 1191.85 1392.4 1193.04C1393.59 1195.95 1410.68 1197.15 1413.79 1198.11C1418.39 1199.53 1429.58 1205.8 1432.62 1209.33C1439.15 1216.93 1440.87 1229.74 1434.03 1237.62C1425.39 1247.57 1403.65 1248 1391.94 1246.56C1373.36 1244.28 1358.94 1235.62 1342.85 1226.82C1335.87 1223 1328.14 1220.6 1321.12 1216.8C1316.54 1214.31 1312.22 1211.34 1307.68 1208.78C1303.42 1206.38 1298.76 1206.51 1294.67 1204.32C1291.68 1202.72 1289.59 1199.27 1286.75 1197.41C1281.12 1193.71 1276.76 1190.06 1274.47 1183.13C1273.1 1179 1273.62 1173.23 1273.41 1168.96C1273.12 1163.17 1272.83 1157.84 1273.26 1152.04C1274.46 1135.76 1276.67 1118.69 1285.22 1104.28C1289.32 1097.36 1295.56 1091.8 1300.64 1085.66C1302.54 1083.36 1303.88 1080.23 1306.1 1078.3C1308.75 1076 1313.67 1077.11 1316.73 1076.95C1322.61 1076.64 1329.17 1076.68 1334.89 1078.26C1337.24 1078.91 1340.6 1082.39 1342.91 1083.77C1344.43 1084.68 1348.06 1085.66 1348.99 1087.03C1350.38 1089.07 1350.31 1090.69 1350.67 1092.79C1351.18 1095.79 1353.88 1098.15 1354.99 1100.85C1355.74 1102.69 1355.47 1103.79 1355.32 1105.81C1355.27 1106.51 1355.62 1108.44 1355.17 1107.91C1352.48 1104.79 1353.16 1096.66 1352.76 1092.94C1352.31 1088.6 1352.02 1083.78 1353.75 1079.62C1358.02 1069.37 1379.53 1063.86 1389.37 1063.16C1393.3 1062.88 1395.23 1064.01 1399.05 1065.27C1401.18 1065.97 1405.48 1067.1 1407.27 1067.97C1415.22 1071.86 1419.37 1084.71 1418.78 1092.76C1418.28 1099.43 1418.91 1104.2 1415.39 1110.14C1415.12 1110.58 1413.07 1114.61 1412.28 1114.14C1409.29 1112.36 1420.67 1107.49 1421.93 1107.08C1428.81 1104.88 1440.09 1108.09 1445.37 1113C1450.81 1118.06 1449.92 1129.98 1445.1 1135.53C1444.45 1136.28 1437.83 1138.48 1439.1 1140.74C1439.98 1142.3 1446.52 1142.48 1448.07 1142.79C1457.83 1144.74 1465.13 1146.63 1471.79 1154.37C1472.52 1155.21 1474.74 1157.5 1474.97 1158.83C1476.16 1165.74 1470.54 1169.69 1465.5 1172.94C1462.58 1174.82 1457.98 1174.61 1456.65 1178.65C1454.86 1184.08 1466.82 1193.72 1467.67 1200.58C1469.56 1215.9 1467.52 1240.39 1450.87 1247.29C1448.32 1248.34 1445.15 1251 1442.23 1250.19C1439.79 1249.51 1438.34 1246.77 1436.25 1245.53" fill="#ffdfd7" fill-rule="evenodd" opacity="1" stroke="#2222a6" stroke-linecap="round" stroke-linejoin="round" stroke-width="5"/>
<path d="M1195.41 1204.03C1195.73 1204.69 1196.63 1206.59 1197.12 1206.89C1200.91 1209.16 1217.59 1203.75 1221.67 1202.89C1231.77 1200.76 1240.52 1195.64 1250.23 1192.61C1259.64 1189.67 1270.43 1189.65 1279.35 1185.19" fill="none" fill-rule="evenodd" opacity="1" stroke="#2222a6" stroke-linecap="round" stroke-linejoin="round" stroke-width="5"/>
<path d="M1211.97 1216.6C1224.86 1216.6 1236.89 1210.39 1248.52 1205.75C1258.09 1201.92 1269.14 1199.6 1279.35 1198.32C1283.21 1197.84 1286.94 1198.89 1290.77 1198.89" fill="none" fill-rule="evenodd" opacity="1" stroke="#2222a6" stroke-linecap="round" stroke-linejoin="round" stroke-width="5"/>
<path d="M1206.8 1201C1203.89 1194.5 1207.11 1189.96 1208.53 1182.56C1210.08 1174.48 1210.45 1167.11 1210.77 1158.97C1211.1 1150.44 1212.65 1142.43 1214.03 1134.05C1215.52 1124.97 1214.49 1117.3 1214.19 1108.34C1214.18 1107.81 1214.44 1103.22 1215.25 1102.83C1217.06 1101.95 1219.13 1110.79 1219.44 1111.83C1221.88 1120.17 1222.58 1129.16 1221.69 1137.81C1221.04 1144.21 1220.91 1151.06 1219.49 1157.21C1218.76 1160.42 1217.18 1163.3 1216.56 1166.56C1215.28 1173.23 1215.09 1180.17 1213.26 1186.71C1213 1187.64 1210.55 1199.36 1210.2 1199.66C1209.27 1200.44 1207.3 1202.12 1206.8 1201Z" fill="none" fill-rule="evenodd" opacity="1" stroke="#2222a6" stroke-linecap="round" stroke-linejoin="round" stroke-width="5"/>
<path d="M1218.48 1102.4C1217.56 1101.7 1216.04 1102.32 1215.1 1101.65C1214.22 1101.03 1211.85 1096.11 1211.23 1095C1207.36 1088.13 1203.88 1080.66 1202.32 1072.89C1201.77 1070.18 1201.25 1067.46 1200.64 1064.75C1200.42 1063.79 1200.52 1062.77 1200.25 1061.82C1200.13 1061.4 1199.07 1060.78 1199.51 1060.72C1201.13 1060.51 1204.7 1066.84 1205.21 1067.73C1206.51 1069.96 1212.73 1084.04 1214.6 1084.4C1216.16 1084.7 1216.54 1078.77 1216.75 1078.14C1218.02 1074.45 1226.59 1062.48 1231.94 1066.57C1235.24 1069.1 1232.93 1074.45 1232.17 1077.29C1231.84 1078.5 1231.48 1082.14 1230.6 1083.47C1227.77 1087.72 1224.08 1091.45 1221.52 1096.02C1219.91 1098.89 1218.53 1101.88 1217.33 1104.94C1217.1 1105.52 1216.35 1106.71 1216.97 1106.78C1218.03 1106.9 1219.41 1106.22 1219.75 1105.22C1220.09 1104.24 1219.3 1103.02 1218.48 1102.4Z" fill="none" fill-rule="evenodd" opacity="1" stroke="#2222a6" stroke-linecap="round" stroke-linejoin="round" stroke-width="5"/>
<path d="M1377.87 1144.53C1376.95 1137.61 1382.71 1133.9 1385.31 1128.61" fill="none" fill-rule="evenodd" opacity="1" stroke="#2222a6" stroke-linecap="round" stroke-linejoin="round" stroke-width="5"/>
<path d="M1387.64 1125.91C1387.87 1125.54 1386.46 1121.64 1386.64 1120.66C1387.03 1118.64 1393.5 1115.9 1395.14 1117.15C1400.48 1121.24 1382.99 1133.51 1387.64 1125.91Z" fill="none" fill-rule="evenodd" opacity="1" stroke="#2222a6" stroke-linecap="round" stroke-linejoin="round" stroke-width="5"/>
<path d="M1391.75 1163.58C1398.71 1162.66 1405.21 1152.84 1413.47 1151.74" fill="none" fill-rule="evenodd" opacity="1" stroke="#2222a6" stroke-linecap="round" stroke-linejoin="round" stroke-width="5"/>
<path d="M1412.24 1153.7C1410.52 1153.8 1412.7 1150.15 1413.67 1148.73C1416.57 1144.43 1425.59 1148.33 1416.48 1151.94C1415.06 1152.5 1413.77 1153.6 1412.24 1153.7Z" fill="none" fill-rule="evenodd" opacity="1" stroke="#2222a6" stroke-linecap="round" stroke-linejoin="round" stroke-width="5"/>
<path d="M699.281 1192.34C701.133 1194.08 704.072 1194.03 706.535 1194.63C709.803 1195.43 713.475 1200.26 716.185 1202.22" fill="none" fill-rule="evenodd" opacity="1" stroke="#2222a6" stroke-linecap="round" stroke-linejoin="round" stroke-width="5"/>
<path d="M718.991 1216.59C719.422 1217.94 718.954 1219.56 719.66 1220.79C719.913 1221.23 720.635 1220.34 720.897 1219.9C723.523 1215.56 715.295 1210.8 718.672 1210.27C719.464 1210.14 719.514 1211.77 719.383 1212.56C719.2 1213.67 716.84 1217.26 718.419 1218.4C720.679 1220.04 726.085 1212.05 720.883 1210.09C717.443 1208.79 718.549 1215.2 718.991 1216.59Z" fill="none" fill-rule="evenodd" opacity="1" stroke="#2222a6" stroke-linecap="round" stroke-linejoin="round" stroke-width="5"/>
<path d="M710.655 1169.69C718.713 1173.18 725.567 1178.39 733.752 1181.68C737.152 1183.05 742.82 1183.21 745.695 1185.29" fill="none" fill-rule="evenodd" opacity="1" stroke="#2222a6" stroke-linecap="round" stroke-linejoin="round" stroke-width="5"/>
<path d="M751.683 1198.55C751.665 1199.37 751.016 1200.83 751.82 1201.02C753.077 1201.32 754.218 1200.04 755.354 1199.43C756.436 1198.84 758.364 1197.75 757.56 1195.97C756.057 1192.65 753.542 1196 752.433 1197.31C752.174 1197.61 751.373 1198.09 751.727 1198.28C754.283 1199.63 757.04 1194.49 755.7 1194.03C755.096 1193.82 749.037 1195.83 750.223 1197.49C750.553 1197.95 751.444 1196.89 751.903 1197.22C752.265 1197.48 751.693 1198.1 751.683 1198.55Z" fill="none" fill-rule="evenodd" opacity="1" stroke="#2222a6" stroke-linecap="round" stroke-linejoin="round" stroke-width="5"/>
<path d="M702.86 1160.77C703.466 1157.11 708.604 1154.5 710.719 1152.8C717.722 1147.17 725.58 1143.92 733.871 1141.36" fill="none" fill-rule="evenodd" opacity="1" stroke="#2222a6" stroke-linecap="round" stroke-linejoin="round" stroke-width="5"/>
<path d="M742.038 1133.17C740.169 1133.67 739.304 1136.65 739.791 1138.52C740.017 1139.39 741.588 1139.22 742.445 1138.96C742.943 1138.8 746.531 1135.14 745.444 1134C744.636 1133.16 743.167 1132.87 742.038 1133.17Z" fill="none" fill-rule="evenodd" opacity="1" stroke="#2222a6" stroke-linecap="round" stroke-linejoin="round" stroke-width="5"/>
<path d="M632.354 1201.46C639.676 1191.36 651.322 1191.7 661.957 1187.27" fill="none" fill-rule="evenodd" opacity="1" stroke="#2222a6" stroke-linecap="round" stroke-linejoin="round" stroke-width="5"/>
<path d="M718.352 1361.96C717.504 1362.98 716.819 1365.12 715.541 1364.77C715.51 1364.77 715.588 1357.35 715.541 1356.59C715.221 1351.48 714.828 1346.37 714.518 1341.26C713.558 1325.41 711.035 1308.14 715.541 1292.69C716.818 1288.31 719.096 1284.19 720.653 1279.91C720.967 1279.05 721.314 1278.2 721.675 1277.35C721.825 1277 722.357 1275.99 722.187 1276.33C718.231 1284.24 719.939 1292.74 719.63 1301.38C719.228 1312.65 716.504 1323.76 717.586 1335.12C718.166 1341.21 718.878 1347.51 719.63 1353.53C719.692 1354.02 720.847 1358.17 720.653 1358.64C720.14 1359.88 719.215 1360.93 718.352 1361.96Z" fill="none" fill-rule="evenodd" opacity="1" stroke="#2222a6" stroke-linecap="round" stroke-linejoin="round" stroke-width="5"/>
<path d="M1198.82 1064.67C1197.12 1063.46 1194.59 1063.69 1192.99 1062.34C1191.47 1061.05 1190.63 1055.65 1189.89 1053.79C1187.88 1048.76 1184.99 1044.05 1182.89 1039.03C1180.79 1033.98 1177.89 1031.03 1175.12 1026.6C1167.17 1013.87 1162.56 990.843 1176.68 980.761C1179.16 978.991 1182.56 978.209 1185.22 976.876C1196.41 971.282 1205.06 974.898 1211.64 985.423C1213.62 988.592 1216.82 1002.08 1218.63 1003.29C1220.24 1004.36 1222.48 1001.77 1223.29 1000.96C1227.26 996.995 1231.02 991.472 1235.73 988.53C1244.83 982.841 1254.61 987.656 1262.92 993.192C1267.94 996.538 1274.92 1003.56 1276.9 1009.51C1280.05 1018.96 1261.19 1042.51 1253.59 1047.58C1251.95 1048.67 1249.85 1048.89 1248.16 1049.91C1246.01 1051.19 1244.36 1053.53 1241.94 1054.57C1239.57 1055.59 1236.44 1055.54 1234.17 1056.9C1230.37 1059.18 1229.41 1065.54 1226.4 1068.55C1224.88 1070.07 1222.81 1069.84 1220.96 1070.11C1212.59 1071.3 1205.87 1069.67 1198.82 1064.67Z" fill="#ffdfd7" fill-rule="evenodd" opacity="1" stroke="#2222a6" stroke-linecap="round" stroke-linejoin="round" stroke-width="5"/>
<path d="M903.237 1544.61C901.945 1543.72 901.279 1547.52 901.058 1548.53C900.349 1551.75 899.834 1555.34 900.623 1558.56C900.852 1559.49 901.166 1560.41 901.54 1561.29C901.718 1561.71 902.105 1562.76 902.363 1562.39C903.217 1561.15 899.817 1560.85 899.306 1560.98C897.234 1561.49 896.863 1569.29 897.914 1570.87C898.483 1571.73 904.056 1573.65 904.846 1572.5C905.274 1571.88 901.825 1565.66 901.366 1564.85C900.841 1563.92 900.404 1561.84 899.446 1562.3C898.248 1562.88 899.441 1565.01 899.864 1566.27C901.88 1572.27 906.314 1569.24 903.645 1564.84C903.243 1564.18 902.531 1563.76 901.909 1563.3C901.445 1562.95 900.905 1562.72 900.403 1562.44" fill="#ffdfd7" fill-rule="evenodd" opacity="1" stroke="#2222a6" stroke-linecap="round" stroke-linejoin="round" stroke-width="5"/>
</g>
</svg>
