<?xml version="1.0" encoding="UTF-8" standalone="no"?> <!-- Created with Vectornator (http://vectornator.io/) --><!DOCTYPE svg PUBLIC "-//W3C//DTD SVG 1.1//EN" "http://www.w3.org/Graphics/SVG/1.1/DTD/svg11.dtd">
<svg height="100%" stroke-miterlimit="10" style="fill-rule:nonzero;clip-rule:evenodd;stroke-linecap:round;stroke-linejoin:round;" version="1.1" viewBox="0 0 3370.82 2384.24" width="100%" xml:space="preserve" xmlns="http://www.w3.org/2000/svg" xmlns:vectornator="http://vectornator.io" xmlns:xlink="http://www.w3.org/1999/xlink">
<metadata>
<vectornator:setting key="IsTimeLapseWatermarkDisabled" value="false"/>
<vectornator:setting key="UndoHistoryDisabled" value="true"/>
<vectornator:setting key="VNDimensionsVisible" value="true"/>
<vectornator:setting key="VNSnapToGuides" value="true"/>
<vectornator:setting key="WDCMYKEnabledKey" value="false"/>
<vectornator:setting key="WDDisplayWhiteBackground" value="false"/>
<vectornator:setting key="WDDynamicGuides" value="false"/>
<vectornator:setting key="WDGuidesVisible" value="true"/>
<vectornator:setting key="WDIsolateActiveLayer" value="false"/>
<vectornator:setting key="WDOutlineMode" value="false"/>
<vectornator:setting key="WDRulersVisible" value="true"/>
<vectornator:setting key="WDSnapToEdges" value="false"/>
<vectornator:setting key="WDSnapToGrid" value="false"/>
<vectornator:setting key="WDSnapToPoints" value="false"/>
<vectornator:setting key="WDUnits" value="Millimeters"/>
</metadata>
<defs/>
<g id="Layer-2" vectornator:layerName="Layer 2">
<path d="M1389.74 568.686C1389.06 568.989 1388.36 569.963 1387.72 569.596C1387.15 569.267 1387.48 567.009 1387.82 567.585C1390.93 572.907 1392.91 581.179 1394.74 587.075C1401.41 608.464 1407.9 628.767 1418.31 648.706C1431.45 673.869 1442.76 699.973 1458.97 723.269C1466.16 733.587 1483.39 762.945 1489.81 773.813C1499.04 789.436 1496.45 784.373 1504.08 802.136C1508.96 813.519 1518.3 828.988 1523.16 840.31C1529.47 855.014 1537.9 868.857 1545.7 882.739C1550.12 890.609 1555.07 904.153 1563.13 908.791" fill="none" fill-rule="evenodd" opacity="1" stroke="#2222a6" stroke-linecap="round" stroke-linejoin="round" stroke-width="5"/>
<path d="M1374.16 567.332C1384.69 573.416 1386.21 591.892 1390.62 602.226C1402.87 630.932 1417.17 662.208 1429.46 691.016C1439.06 713.513 1456.29 726.957 1468.54 748.065C1473 755.76 1471.68 762.691 1476.41 770.272C1481.02 777.666 1483.41 786.467 1488.07 793.935C1498.13 810.055 1510.44 825.757 1518.8 842.723C1525.94 857.215 1528.8 873.254 1535.84 887.543C1541.27 898.551 1548.72 907.943 1553.52 919.198" fill="none" fill-rule="evenodd" opacity="1" stroke="#2222a6" stroke-linecap="round" stroke-linejoin="round" stroke-width="5"/>
<path d="M1524.71 1039.68C1521.05 1035.65 1519.86 1024.88 1518.56 1019C1515.54 1005.35 1514.42 992.442 1517.22 978.732C1521.18 959.382 1520.87 931.849 1536.74 917.454C1544.25 910.64 1555.6 909.928 1565.22 909.484C1584.19 908.609 1612.66 915.796 1627.04 929.029C1631.11 932.771 1634.65 938.539 1637.36 943.302C1640.59 948.975 1642.32 955.367 1643.07 961.755C1643.74 967.513 1644.89 973.509 1643.86 979.417C1642.62 986.495 1631.56 992.411 1625.03 992.815C1622.21 992.989 1619.53 992.727 1616.73 993.511C1614.3 994.193 1611.87 995.973 1609.43 996.458C1604.82 997.374 1599.5 997.174 1596.5 1001.88C1592.99 1007.37 1600.05 1019.64 1597.51 1026.17C1596.53 1028.7 1593.51 1031.37 1591.67 1033.04C1584.58 1039.46 1577.5 1046.78 1568.26 1050.07C1555.77 1054.51 1542.96 1052.69 1532.76 1043.93C1529.44 1041.07 1526.47 1038.16 1523.85 1034.68C1522.96 1033.5 1523.32 1030.8 1521.84 1030.73C1520.45 1030.66 1522.39 1038.51 1522.54 1039.02C1524.08 1044.52 1526.92 1052.43 1522.2 1057.18C1519.77 1059.63 1514.99 1061.49 1511.99 1063.29C1496.9 1072.31 1480.74 1070.92 1472.23 1054.18C1458.77 1027.7 1481.12 1012.58 1489.16 989.476C1490.66 985.175 1490.71 980.601 1492.55 976.424C1493.98 973.185 1496.53 970.812 1498.48 967.902C1501.64 963.176 1504.57 958.638 1507.97 954.047C1510.92 950.059 1512.61 945.354 1515.2 941.184C1518.6 935.722 1525.01 931.769 1529.64 927.57C1530.76 926.553 1530.37 924.49 1531.5 923.256C1532.76 921.89 1535.89 919.461 1537.24 918.58C1546.62 912.429 1557.79 912.241 1568.46 910.744C1578.87 909.284 1588.85 907.222 1599.42 908.403C1613.51 909.978 1629.09 918.302 1640.39 926.377C1644.94 929.623 1650.02 932.544 1653.64 936.938C1656.35 940.227 1657.98 944.963 1659.67 948.798C1667.26 966.02 1664.65 987.674 1652.12 1001.85C1650.92 1003.21 1649.71 1004.69 1648.09 1005.51C1645.2 1006.98 1637.86 1007.96 1636.23 1011.54C1635.06 1014.09 1644.08 1021.78 1645.5 1024.66C1646.43 1026.54 1647.9 1031.42 1646.72 1033.53C1645.96 1034.88 1643.76 1036.01 1642.68 1037.19C1638.65 1041.57 1633.26 1045.44 1627.83 1048.02C1619.52 1051.99 1611.85 1056.08 1602.27 1052.83C1597.24 1051.13 1592.45 1048.23 1587.73 1046.06C1586.46 1045.48 1585 1043.29 1583.96 1044.23C1583.12 1044.99 1589.22 1050.73 1589.68 1051.12C1592.47 1053.42 1603.96 1064.15 1600.42 1068.16C1594.31 1075.07 1584.49 1074.58 1576.36 1075.8C1573.47 1076.23 1570.65 1077.61 1567.99 1078.14C1564.33 1078.87 1559.23 1074.24 1555.95 1076.45C1555.12 1077.02 1556.69 1086.81 1554.24 1089.04C1549.83 1093.03 1540.65 1092.78 1535.34 1092.52C1531.68 1092.34 1527.94 1092.73 1524.35 1091.98C1510.64 1089.12 1507.4 1078.21 1508.01 1065.85" fill="#ffdfd7" fill-rule="evenodd" opacity="1" stroke="#2222a6" stroke-linecap="round" stroke-linejoin="round" stroke-width="5"/>
<path d="M1302.66 698.575C1300.91 697.292 1300.45 694.828 1299.43 692.908C1296.47 687.315 1290.96 680.596 1285.21 677.929C1269.99 670.875 1265.82 682.515 1260.49 694.691C1259.32 697.368 1257.5 699.674 1256.4 702.377C1254.51 707.017 1253.61 712.231 1252.51 717.081C1251.63 720.967 1250.43 724.77 1250.06 728.77C1249.87 730.909 1253.05 743.766 1255.76 744.631C1262.54 746.802 1270.65 743.01 1277.2 741.745C1279.62 741.276 1282.75 741.232 1285.19 741.238C1286.58 741.242 1289.34 741.475 1289.34 741.475C1289.34 741.475 1286.44 742.31 1284.96 742.596C1281.53 743.26 1278.13 742.916 1274.7 742.719C1265.86 742.214 1251.97 748.068 1246.9 755.7C1239.44 766.939 1244 779.267 1247.49 790.714C1249.81 798.324 1252.57 806.284 1257.24 812.849C1258.6 814.764 1260.24 817.509 1262.28 818.823C1266.69 821.667 1271.32 821.439 1276.23 821.652C1285.48 822.054 1293.78 821.967 1300.7 814.624C1305.74 809.267 1309.3 802.713 1314.32 797.38C1316.19 795.402 1318.62 791.861 1321.06 790.607C1321.36 790.45 1321.99 789.969 1322.04 790.307C1322.27 791.777 1316.67 798.52 1315.75 799.949C1313.68 803.166 1311.56 807.056 1308.93 809.967C1304.89 814.44 1299.25 820.347 1299.08 826.919C1298.99 830.199 1303.21 832.335 1305.32 834.029C1314.23 841.155 1319.27 841.141 1330.21 838.245C1332.19 837.72 1335.39 836.728 1337.16 835.697C1337.54 835.476 1338.67 833.794 1339.35 833.741C1339.96 833.694 1343.65 842.033 1344.31 842.96C1347.86 847.963 1353.79 850.438 1359.76 850.698C1370.47 851.163 1371.27 834.327 1373.48 827.418C1373.89 826.131 1374.59 825.332 1374.54 823.874C1374.52 822.995 1374.06 815.153 1374.19 814.969C1374.39 814.693 1374.78 815.327 1375.02 815.575C1376.74 817.391 1377.97 819.771 1380.14 821.097C1384.48 823.753 1390.83 824.34 1395.38 821.816C1406.12 815.85 1412.33 807.385 1416.12 795.537C1417.11 792.453 1418.78 788.604 1418.79 785.281C1418.8 782.088 1416.83 776.832 1415.57 774.03C1413.78 770.011 1405.55 767.842 1405.56 764.42C1405.58 759.519 1408.8 754.999 1408.02 749.939C1407.47 746.412 1404.87 742.435 1403.29 739.362C1401.35 735.598 1395.11 734.113 1391.39 732.691C1391.07 732.57 1389.97 741.109 1389.91 741.172C1389.28 741.84 1384.71 735.34 1384.23 736.124C1381.82 740.072 1359.93 741.305 1355.45 741.499C1348.31 741.809 1328.34 737.736 1325.2 735.911C1322.32 734.236 1311.18 718.897 1309.39 712.115C1307.61 705.333 1302.14 698.917 1304.42 690.959C1305.36 687.668 1313.01 677.734 1336.97 673.399C1363.63 668.574 1374.99 683.544 1382.98 682.755C1410.04 680.082 1431.54 762.71 1331.29 741.557" fill="#ffdfd7" fill-rule="evenodd" opacity="1" stroke="#2222a6" stroke-linecap="round" stroke-linejoin="round" stroke-width="5"/>
<path d="M1395.61 726.685C1408.79 718.02 1421.96 697.529 1427.82 683.248C1428.67 681.178 1428.21 679.939 1428.9 678.026" fill="none" fill-rule="evenodd" opacity="1" stroke="#2222a6" stroke-linecap="round" stroke-linejoin="round" stroke-width="5"/>
<path d="M1427.92 688.895C1421.11 707.816 1405.59 721.682 1391.52 735.094" fill="none" fill-rule="evenodd" opacity="1" stroke="#2222a6" stroke-linecap="round" stroke-linejoin="round" stroke-width="5"/>
<path d="M1633.83 779.108C1636.06 778.751 1638.36 778.673 1640.53 778.038C1646.07 776.421 1652.95 768.611 1657.89 765.354C1672.67 755.602 1683.98 749.617 1701.47 746.987C1710.64 745.607 1714.42 743.524 1723.82 746.985C1736.25 751.567 1757.5 768.624 1754.7 783.646C1753.38 790.732 1746.25 795.731 1742.14 801.256C1739.06 805.398 1736.71 809.999 1733.02 813.709C1729.3 817.461 1723.22 819.812 1718.1 820.837C1716.18 821.222 1713.79 820.716 1712.96 823.228C1712.39 824.981 1716.71 829.824 1717.18 832.577C1717.9 836.792 1718.9 842.848 1718.44 847.041C1717.22 858.021 1701.83 860.443 1693.32 859.914C1688.19 859.595 1683.74 857.968 1678.92 856.31C1674.67 854.848 1670.03 853.332 1666.72 850.085C1656.49 840.054 1653 824.725 1646.45 812.5C1643.25 806.525 1640.28 800.32 1637.1 794.368C1636.75 793.714 1635.61 788.856 1634.66 788.75C1633.69 788.642 1632.67 789.956 1631.81 789.484C1631.18 789.138 1631.38 787.808 1630.68 787.64C1628.5 787.118 1628.04 795.969 1628.06 796.612C1628.26 803.619 1629.6 810.381 1628.9 817.428C1628.23 824.193 1626.9 831.066 1625.32 837.658C1624.78 839.904 1623.41 841.91 1622.97 844.177C1622.26 847.861 1623.18 852.108 1623.5 855.791C1624.08 862.492 1625.41 867.088 1632.47 869.584C1644.36 873.786 1658.52 874.731 1662.78 860.63C1663.49 858.288 1664.64 855.289 1663.56 852.79C1662.34 849.975 1659.74 847.05 1658.42 844.007C1652.88 831.212 1649.24 817.86 1642.44 805.562C1640.66 802.345 1639.52 798.691 1637.22 795.815C1635.41 793.544 1631.94 791.82 1631.29 789.044C1629.2 780.048 1632.72 767.864 1636.53 759.926C1639.62 753.468 1643.21 745.844 1647.43 740.032C1650.47 735.835 1654.67 731.943 1658.03 727.935C1660.85 724.578 1663.39 721.077 1666.92 718.417C1670.38 715.813 1673.79 714.55 1677.59 712.63C1684.08 709.356 1689.04 707.183 1696.23 709.065C1703.57 710.989 1711.4 719.518 1713.33 727.008C1714.18 730.293 1710.61 734.743 1710.92 738.391C1710.97 738.965 1712.25 740.912 1713.06 740.634C1713.92 740.336 1714.08 739.073 1714.82 738.537C1717.89 736.313 1723.42 734.919 1727.06 734.071C1731.12 733.128 1735.65 737.005 1739.1 738.367C1742.01 739.521 1745.53 740.572 1748.59 741.427C1751.46 742.227 1754.35 741.774 1756.6 744.131C1761.6 749.374 1754.48 756.396 1757.06 760.608C1757.55 761.407 1760.26 761.685 1761.09 762.2C1765 764.633 1770.06 767.306 1772.58 771.402C1779.87 783.29 1773.41 807.537 1762.29 815.048C1757.01 818.613 1747.17 818.077 1741.07 816.894C1740.32 816.748 1733.66 815.098 1733.63 815.113C1732.88 815.576 1737.79 821.063 1738.08 821.527C1741.61 827.282 1746.55 832.502 1745.98 839.785C1745.49 846.041 1736.98 846.57 1732.63 848.235C1731.11 848.817 1731.14 849.155 1729.3 849.011C1728.94 848.982 1728.35 848.256 1728.29 848.612C1728.16 849.425 1728.82 850.174 1728.98 850.981C1729.61 854.098 1730.09 858.545 1729.42 861.63C1727.5 870.56 1717.97 876.789 1710.16 880.31C1694.34 887.44 1677.54 888.403 1667.69 872.348C1665.74 869.179 1660.47 863.377 1663.66 859.582" fill="#ffdfd7" fill-rule="evenodd" opacity="1" stroke="#2222a6" stroke-linecap="round" stroke-linejoin="round" stroke-width="5"/>
<path d="M1492.6 819.529C1490.61 818.806 1491.97 815.242 1492.43 813.176C1493.85 806.908 1497.44 799.623 1500.7 794.124C1509.58 779.192 1524.78 766.802 1542.57 765.839C1551.92 765.332 1560.67 769.028 1564.88 777.705C1568.99 786.175 1565.92 796.5 1564.57 805.145C1562.48 818.555 1560.71 833.638 1549.24 842.831C1543.96 847.057 1534.59 851.337 1527.75 851.937C1523.98 852.267 1518.5 850.564 1514.81 849.654C1511.85 848.922 1506.11 847.613 1503.87 845.332C1500.33 841.712 1498.24 835.296 1495.85 830.892C1494.6 828.593 1492.85 826.31 1492.34 823.667C1492.1 822.401 1493.68 819.921 1492.6 819.529Z" fill="#ffdfd7" fill-rule="evenodd" opacity="1" stroke="#2222a6" stroke-linecap="round" stroke-linejoin="round" stroke-width="5"/>
<path d="M1567.82 769.604C1568.93 764.334 1573.38 760.46 1577.37 757.196C1585.11 750.868 1597.59 743.421 1607.57 750.823C1610.25 752.815 1610.8 754.693 1612.28 757.631C1614.02 761.11 1617.23 767.336 1616.06 771.511C1613.64 780.139 1606.32 786.718 1597.89 789.256C1592 791.029 1583.94 795.006 1577.95 792.091C1572.66 789.519 1573.81 782.383 1566.97 784.743" fill="#ffdfd7" fill-rule="evenodd" opacity="1" stroke="#2222a6" stroke-linecap="round" stroke-linejoin="round" stroke-width="5"/>
<path d="M1581.19 793.67C1587.03 794.44 1592.49 795.923 1598.37 796.513C1608.04 797.483 1615.79 797.071 1624.26 803.096C1625.78 804.176 1627.65 807.371 1628.56 808.699C1633.13 815.404 1632.81 821.117 1630.38 828.652C1629.38 831.789 1628.9 836.579 1625.65 838.386C1619.83 841.619 1610.27 841.831 1603.89 840.837C1602.4 840.605 1598.49 838.311 1597.41 838.687C1596.77 838.906 1598.1 839.88 1598.63 840.287C1599.62 841.038 1600.73 841.694 1601.48 842.678C1603.15 844.852 1604.9 847.059 1606.2 849.487C1609.24 855.208 1618.76 873.809 1610.14 878.495C1606.9 880.252 1601.8 878.804 1598.24 879.227C1595.76 879.522 1593.29 880.087 1590.79 880.113C1585.04 880.174 1579.47 880.179 1573.83 878.882C1564.23 876.674 1555.13 871.234 1552.86 861.151C1552.24 858.419 1554.58 855.248 1555.39 852.852C1556.3 850.198 1556.89 847.009 1557.52 844.357C1558.34 840.923 1557.16 837.3 1557.61 833.865C1558.27 828.887 1560.51 823.716 1561.49 818.694C1562.72 812.381 1564.65 805.85 1565.32 799.488C1565.83 794.599 1565.99 788.674 1568.99 784.722" fill="#ffdfd7" fill-rule="evenodd" opacity="1" stroke="#2222a6" stroke-linecap="round" stroke-linejoin="round" stroke-width="5"/>
<path d="M1521.9 852.604C1520.53 853.166 1518.92 853.233 1517.68 854.061C1513 857.193 1518.96 865.256 1521.06 867.743C1525.83 873.414 1541.9 882.412 1549.44 880.554C1554.81 879.229 1553.54 870.097 1554.33 866.38C1554.86 863.851 1555.73 861.368 1556.47 858.893C1557.7 854.741 1556.98 850.632 1557.54 846.374C1557.66 845.505 1558.19 843.744 1557.32 843.754C1556.77 843.76 1556.44 844.456 1555.91 844.576C1553.65 845.087 1550.65 844.432 1548.25 844.859C1545.63 845.324 1543.18 846.473 1540.61 847.16C1534.08 848.904 1528.21 850.033 1521.9 852.604Z" fill="#ffdfd7" fill-rule="evenodd" opacity="1" stroke="#2222a6" stroke-linecap="round" stroke-linejoin="round" stroke-width="5"/>
<path d="M1554.06 603.023C1551.76 603.236 1557.92 600.48 1559.95 599.392C1560.73 598.978 1561.48 598.506 1562.28 598.148C1569.75 594.823 1577.81 592.798 1585.79 591.086C1596.05 588.884 1618.97 584.318 1629.07 590.802C1634.12 594.046 1635.56 601.008 1636.82 606.406C1637.56 609.596 1638.8 616.153 1636.98 619.243C1635.8 621.235 1621.84 618.941 1620.05 618.241C1613.84 615.824 1605.37 612.599 1598.47 612.787C1589.43 613.034 1580.49 613.177 1571.63 610.262C1570.27 609.817 1553.57 601.867 1553.66 609.101C1553.8 620.563 1570.43 626.742 1577.97 631.523C1585.43 636.252 1593.22 643.786 1602.84 643.355C1607.56 643.143 1611.89 640.225 1616.32 639.021C1620.08 637.997 1626.08 636.255 1628.91 633.484C1630.94 631.503 1628.33 616.195 1626.35 615.473C1618.73 612.695 1609.54 615.037 1601.59 613.269C1596.23 612.075 1589.89 609.804 1584.87 607.493C1581.99 606.169 1579.49 603.824 1576.56 602.48C1572.45 600.591 1560.2 600.151 1558.51 594.899C1557.5 591.745 1566.03 583.458 1568.06 581.42C1573.67 575.759 1580.69 573.033 1587.95 570.066C1590.34 569.09 1592.48 567.124 1594.93 566.334C1598.02 565.341 1603.56 566.833 1606.4 568.099C1608.27 568.93 1611.31 570.637 1612.1 572.711C1613.63 576.692 1610.23 583.703 1606.01 584.586C1601.47 585.534 1598.25 585.448 1593.81 587.515C1588.49 589.99 1583.33 592.074 1577.85 594.136C1569.63 597.224 1562.88 602.206 1554.06 603.023Z" fill="#ffdfd7" fill-rule="evenodd" opacity="1" stroke="#2222a6" stroke-linecap="round" stroke-linejoin="round" stroke-width="5"/>
<path d="M1552.51 604.387C1537.17 613.946 1516.29 608.76 1498.66 609.185C1494 609.298 1489.34 610.031 1484.7 609.708C1469.67 608.663 1456.24 601.061 1441.53 598.8C1432 597.335 1424.71 593.351 1416.34 589.055C1412.69 587.182 1408.89 586.15 1405.35 584.161C1401.99 582.276 1398.24 580.871 1394.96 578.827C1393.87 578.15 1392.69 577.623 1391.47 577.223C1390.94 577.049 1389.54 576.79 1389.98 576.461C1390.03 576.424 1398.43 577.759 1398.85 577.824C1405.55 578.855 1414.96 583.438 1420.23 588.051C1422.65 590.169 1424.05 593.302 1427.25 594.469C1431.36 595.969 1436.6 595.734 1440.89 596.032C1449.13 596.605 1457.49 596.971 1465.72 597.715C1479.93 598.999 1494.38 603.095 1508.65 603.248C1519.45 603.363 1530.93 604.887 1541.7 603.526C1544.63 603.156 1555.38 602.604 1552.51 604.387Z" fill="none" fill-rule="evenodd" opacity="1" stroke="#2222a6" stroke-linecap="round" stroke-linejoin="round" stroke-width="5"/>
<path d="M1627.4 789.131C1624.11 786.795 1617.28 784.456 1612.96 785.843" fill="none" fill-rule="evenodd" opacity="1" stroke="#2222a6" stroke-linecap="round" stroke-linejoin="round" stroke-width="5"/>
<path d="M1564.48 762.64C1565.14 763.578 1564.79 765.075 1564.22 766.07C1563.96 766.528 1563.13 766.07 1562.66 765.829C1559.39 764.154 1556.56 761.51 1552.79 760.575C1542.77 758.088 1532.35 756.379 1522.26 754.28C1516.13 753.004 1511.01 753.458 1504.81 753.198C1499.06 752.957 1493.27 751.43 1487.52 751.073C1485.41 750.943 1483.37 750.2 1481.26 750.111C1480.6 750.083 1476.67 751.263 1476.41 750.432C1475.88 748.785 1477.41 747.834 1476.53 746.18C1476.1 745.376 1472.48 744.012 1473.72 743.613C1476.16 742.827 1482.26 744.926 1484.67 745.297C1492.07 746.435 1499.36 746.788 1506.81 747.1C1515.5 747.465 1523.22 751.143 1531.53 753.035C1536.45 754.158 1541.64 755.025 1546.49 756.404C1549.55 757.275 1552.47 759.057 1555.56 759.933C1560.74 761.406 1560.99 757.665 1564.48 762.64Z" fill="none" fill-rule="evenodd" opacity="1" stroke="#2222a6" stroke-linecap="round" stroke-linejoin="round" stroke-width="5"/>
<path d="M1426.23 530.914C1429.03 527.364 1424.86 525.531 1425.57 519.681C1427.66 502.189 1422.73 496.593 1441.12 490.068C1447.78 487.705 1459.59 484.684 1465.99 489.539C1474.59 496.069 1474.89 510.601 1473.6 520.039C1473.07 523.971 1470.98 527.823 1469.91 531.637C1469.73 532.272 1469.03 533.475 1469.68 533.602C1472.12 534.083 1473.24 532.786 1475.38 531.956C1480.05 530.147 1485.31 528.822 1490.36 529.532C1498.62 530.695 1506.24 536.057 1511.66 542.148C1514.91 545.804 1515.89 551.597 1517.49 556.06C1519.38 561.329 1521.33 567.137 1521.24 572.872C1521.11 580.971 1513.01 588.686 1506.08 591.659C1504.2 592.466 1493.94 590.766 1494.52 593.018C1494.77 594.028 1495.84 594.652 1496.29 595.594C1497.98 599.17 1500.03 602.621 1501.09 606.479C1503.05 613.574 1502.96 620.894 1504.46 627.994C1505.44 632.646 1509.84 640.482 1505.04 644.292C1499.84 648.43 1486.79 641.306 1481.98 638.442C1480.9 637.801 1478.91 634.42 1477.43 635.32C1477.19 635.471 1477.13 635.837 1477.11 636.126C1476.89 639.896 1477.58 642.958 1476.44 646.691C1474.57 652.824 1468.14 661.221 1463.63 665.67C1454.74 674.439 1438.3 661.743 1431.99 655.09C1430.43 653.436 1429.05 649.756 1427.16 648.489C1425.59 647.436 1422.98 645.934 1421.1 645.883C1420.51 645.867 1416.1 647.039 1415.72 646.724C1415.41 646.461 1417.47 644.221 1418.43 641.826C1419.22 639.839 1419.91 637.813 1420.65 635.801C1422.35 631.103 1422.96 626.286 1424.12 621.498C1424.65 619.307 1425.12 617.596 1425.95 615.506C1426.24 614.775 1426.76 612.665 1426.14 613.154C1425.24 613.875 1422.82 621.374 1421.9 622.852C1418.88 627.66 1415.46 632.059 1412.98 637.223C1411.73 639.824 1410.94 642.478 1409.35 644.923C1404.25 652.741 1392.73 653.372 1384.93 650.863C1381 649.599 1378.86 648.265 1375.56 645.811C1371.89 643.082 1368.07 640.179 1366.53 635.669C1365.32 632.111 1364.84 626.936 1366.69 623.59C1368.76 619.831 1376.19 616.444 1372.22 610.67C1370.54 608.232 1364.94 607.722 1362.49 606.037C1360.98 605.002 1359.86 603.444 1358.3 602.496C1355.33 600.698 1351.08 600.075 1347.86 598.701C1344.27 597.169 1341.22 594.943 1337.68 593.327C1329.79 589.722 1323.14 589.184 1323.95 578.131C1324.58 569.483 1333.44 555.388 1340.72 550.646C1344.37 548.263 1348.49 548.244 1352.51 547.322C1353.65 547.059 1354.7 546.5 1355.95 546.644C1356.36 546.69 1357.55 546.899 1357.14 546.933C1341.93 548.209 1341.83 524.267 1348.72 516.111C1352.74 511.359 1365.84 511.895 1371.14 514.231C1373.92 515.459 1377.37 517.963 1380.67 516.545C1383.18 515.471 1382.45 510.529 1382.73 508.588C1383.24 505.023 1385.9 499.994 1389.26 498.309C1391.94 496.971 1395.64 497.567 1398.51 497.145C1401.92 496.642 1405.38 495.325 1408.88 495.497C1424.37 496.254 1419.18 481.569 1422.38 491.828C1424.53 498.714 1426.02 496.45 1423.71 503.992" fill="#ffdfd7" fill-rule="evenodd" opacity="1" stroke="#2222a6" stroke-linecap="round" stroke-linejoin="round" stroke-width="5"/>
<path d="M1374.56 621.041C1367.72 618.385 1363.36 613.441 1357.34 609.695C1352.86 606.912 1347.58 605.503 1343.14 602.537C1334.81 596.968 1327.6 590.713 1319.79 584.426C1313.05 579.004 1308.79 575.573 1305.26 567.555C1300.91 557.672 1296.5 547.021 1294.67 536.332C1294.11 533.071 1293.21 529.788 1292.72 526.541C1292.52 525.21 1292.85 523.854 1292.92 522.51C1292.94 521.973 1293.02 520.361 1293 520.898C1292.47 531.608 1299.38 545.423 1304.28 554.579C1307.79 561.149 1308.94 568.804 1312.97 575.204C1318.97 584.747 1327.64 592.37 1336.01 599.764C1338.99 602.398 1348.37 616.429 1352.22 615.101C1354.27 614.395 1356.04 613.027 1358.02 612.153" fill="none" fill-rule="evenodd" opacity="1" stroke="#2222a6" stroke-linecap="round" stroke-linejoin="round" stroke-width="5"/>
<path d="M1239.54 661.602C1240.52 660.587 1241.51 659.571 1242.49 658.556" fill="none" fill-rule="evenodd" opacity="1" stroke="#2222a6" stroke-linecap="round" stroke-linejoin="round" stroke-width="5"/>
<path d="M1333.45 570.26C1333.05 574.842 1333.14 582.056 1335.13 586.331C1336.84 590.013 1341.88 591.242 1344.84 593.396C1354.26 600.248 1360.76 599.703 1371.99 602.007C1378.48 603.338 1387.2 607.409 1393.89 604.57C1396.93 603.279 1398.51 600.55 1400.65 598.345C1404.05 594.839 1408.38 591.868 1412.04 588.809C1414.3 586.915 1415 584.903 1418.22 584.394" fill="none" fill-rule="evenodd" opacity="0.567829" stroke="#ff9c83" stroke-linecap="round" stroke-linejoin="round" stroke-opacity="0.673659" stroke-width="19.4167"/>
<path d="M1422.86 499.404C1423.89 505.905 1426.53 511.719 1427.59 518.433C1428.91 526.803 1428.45 534.786 1429.75 543.026" fill="none" fill-rule="evenodd" opacity="0.567829" stroke="#ff9c83" stroke-linecap="round" stroke-linejoin="round" stroke-opacity="0.673659" stroke-width="19.4167"/>
<path d="M1300.59 705.272C1296.33 701.128 1297.82 697.468 1295.39 694.057C1293.02 690.743 1283.24 684.598 1279.27 684.563C1272.1 684.502 1268.89 689.526 1265.5 695.335C1259.77 705.12 1252.09 724.25 1260.55 734.806C1263 737.867 1270.48 737.278 1273.92 737.853C1288.87 740.345 1303.57 736.496 1318.3 741.168" fill="none" fill-rule="evenodd" opacity="0.567829" stroke="#ff9c83" stroke-linecap="round" stroke-linejoin="round" stroke-opacity="0.673659" stroke-width="19.4167"/>
<path d="M1304.16 825.936C1314.94 811.117 1323.81 799.352 1332.6 782.759C1335.17 777.901 1337.3 772.82 1339.71 767.88C1340.23 766.801 1342.01 766.153 1341.83 764.967C1341.67 763.958 1340.18 766.216 1339.58 767.041C1339.2 767.553 1339.19 768.248 1339 768.852C1338.43 770.662 1337.85 772.472 1337.28 774.282C1335.61 779.535 1332.53 783.441 1330.04 788.322C1325.74 796.728 1322.37 805.25 1318.64 814.193C1316.29 819.838 1315.59 818.586 1315.91 824.083C1316.57 835.801 1324.65 835.608 1334.1 835.828C1339.58 835.956 1345 836.687 1350.43 835.829C1352.29 835.537 1359.52 835.404 1361.34 834.108C1363.95 832.245 1366.76 827.436 1367.56 824.528C1369.24 818.478 1368.76 813.282 1368.27 807.221C1367.82 801.624 1369.17 801.972 1367.39 796.183C1364.49 786.773 1356.44 779.771 1350.7 772.164C1349.56 770.648 1348.72 768.882 1347.39 767.528C1344.27 764.354 1337.99 767.895 1336.71 759.756C1335.65 753.038 1341.21 746.898 1344.12 741.39" fill="none" fill-rule="evenodd" opacity="0.567829" stroke="#ff9c83" stroke-linecap="round" stroke-linejoin="round" stroke-opacity="0.673659" stroke-width="19.4167"/>
<path d="M1634.99 786.621C1642.09 781.545 1649.72 775.77 1657.59 771.876C1664.31 768.554 1671.75 766.442 1678.61 763.4C1682.38 761.73 1685.9 759.445 1689.83 758.191C1698.74 755.342 1708.26 757.778 1717.33 758.149C1722.19 758.348 1741.79 756.894 1744.66 762.433C1749.1 770.999 1743.62 783.442 1742.45 792.014C1741.56 798.576 1739.62 804.921 1736.84 810.955" fill="none" fill-rule="evenodd" opacity="0.567829" stroke="#ff9c83" stroke-linecap="round" stroke-linejoin="round" stroke-opacity="0.673659" stroke-width="19.4167"/>
<path d="M1521.29 937.83C1518.43 942.841 1514.2 947.22 1511.53 952.267C1506.32 962.1 1506.09 974.409 1504.69 985.159C1503.68 992.848 1501.62 1000.46 1500.58 1008.16C1497.28 1032.42 1501.54 1047.54 1527.6 1048.61" fill="none" fill-rule="evenodd" opacity="0.567829" stroke="#ff9c83" stroke-linecap="round" stroke-linejoin="round" stroke-opacity="0.673659" stroke-width="19.4167"/>
<path d="M1532.67 1058.98C1535.91 1061.33 1542.69 1061.08 1546.89 1061.9C1556.49 1063.77 1569.81 1064.18 1578.06 1057.84C1584.01 1053.26 1588.42 1046.92 1593.56 1041.63C1597.4 1037.68 1599.06 1031.81 1600.67 1026.76C1600.94 1025.9 1600.34 1024.56 1601.11 1024.11C1605.3 1021.61 1604.98 1028.99 1608.08 1024.73C1610.21 1021.8 1610.19 1016.32 1611.4 1013.03C1613.1 1008.37 1616.27 1003.94 1619.74 1000.53C1624.37 995.982 1627.61 997.527 1633.03 997.574C1634.6 997.587 1640.22 994.578 1641.86 993.601C1645.9 991.195 1645.72 981.318 1646.19 977.442C1646.78 972.619 1645.46 969.446 1644.2 964.859C1641.72 955.777 1642.09 945.545 1635.64 937.838C1632.44 934.011 1625.77 933.082 1621.6 930.596C1617.05 927.88 1611.41 923.705 1607.87 919.866" fill="none" fill-rule="evenodd" opacity="0.567829" stroke="#ff9c83" stroke-linecap="round" stroke-linejoin="round" stroke-opacity="0.673659" stroke-width="19.4167"/>
<path d="M1504.56 837.297C1498.9 835.502 1499.95 823.558 1500.81 818.974C1502.84 808.241 1511.57 784.995 1521.26 779.637C1525.59 777.24 1535.2 773.636 1540.15 774.075C1554.96 775.388 1559.63 791.567 1563.64 803.04C1564.65 805.932 1565.88 808.125 1565.8 811.296C1565.61 819.466 1561.32 824.601 1556.84 830.766C1552.47 836.778 1548.62 843.086 1544.25 849.088" fill="none" fill-rule="evenodd" opacity="0.567829" stroke="#ff9c83" stroke-linecap="round" stroke-linejoin="round" stroke-opacity="0.673659" stroke-width="19.4167"/>
<path d="M1575.34 806.352C1566.7 815.246 1569.07 830.372 1568.89 841.761C1568.8 847.257 1568.03 852.732 1568.05 858.229C1568.08 865.231 1570.64 873.968 1578.38 874.654" fill="none" fill-rule="evenodd" opacity="0.567829" stroke="#ff9c83" stroke-linecap="round" stroke-linejoin="round" stroke-opacity="0.673659" stroke-width="19.4167"/>
<path d="M1475.97 541.748C1494.8 528.301 1506.47 549.594 1511.51 565.372C1512.63 568.869 1515.52 573.858 1515.18 577.69C1514.24 588.293 1501.52 588.613 1494.25 592.17C1488.96 594.759 1488.84 595.603 1483.74 596.408C1482.37 596.623 1485.53 595.482 1487.23 596.717C1488.05 597.318 1488.59 598.241 1489.3 598.969C1492.92 602.653 1492.15 601.337 1495.53 605.725C1502.63 614.953 1513.22 631.426 1504.84 642.944C1502.62 645.994 1497.27 644.529 1494.64 643.694C1486.17 641.006 1480.94 635.312 1472.96 631.64C1470.76 630.623 1466.85 630.902 1464.89 629.476C1464.37 629.103 1463.97 627.327 1463.78 627.93C1461.02 636.64 1468.27 647.766 1463.25 657.247C1457.84 667.464 1438.96 662.237 1432.12 656.141C1429.34 653.654 1428.03 650.087 1427.18 646.604C1425.15 638.302 1423.84 628.931 1423.91 620.466C1423.92 619.394 1424.2 610.196 1424 610.135C1422.28 609.587 1421.19 612.55 1420.34 614.152C1417.55 619.409 1416.25 624.405 1412.39 629.163C1407.09 635.7 1399.96 637.171 1393.85 642.407C1390.79 645.024 1388.98 648.935 1385.81 651.413C1374.72 660.088 1371.11 640.02 1370.18 634.105C1369.44 629.436 1369.62 625.111 1368.9 620.551" fill="none" fill-rule="evenodd" opacity="0.567829" stroke="#ff9c83" stroke-linecap="round" stroke-linejoin="round" stroke-opacity="0.673659" stroke-width="19.4167"/>
<path d="M1428.24 571.635C1435.53 572.85 1442.67 568.994 1448.82 565.809C1454.23 563.001 1460.25 562.285 1466.17 561.351" fill="none" fill-rule="evenodd" opacity="1" stroke="#2222a6" stroke-linecap="round" stroke-linejoin="round" stroke-width="5"/>
<path d="M1432.04 584.793C1435.63 591.708 1444.75 594.096 1449.08 600.158" fill="none" fill-rule="evenodd" opacity="1" stroke="#2222a6" stroke-linecap="round" stroke-linejoin="round" stroke-width="5"/>
<path d="M1449.7 601.35C1451.74 600.744 1453.9 599.295 1455.92 599.938C1458.81 600.852 1454.59 607.886 1452.92 608.15C1452.76 608.176 1447.36 602.856 1447.67 602.101C1447.94 601.432 1449.01 601.556 1449.7 601.35Z" fill="none" fill-rule="evenodd" opacity="1" stroke="#2222a6" stroke-linecap="round" stroke-linejoin="round" stroke-width="5"/>
<path d="M1460.74 567.796C1460.17 565.746 1464.84 566.415 1466.96 566.384C1470.65 566.33 1461.39 570.15 1460.74 567.796Z" fill="none" fill-rule="evenodd" opacity="1" stroke="#2222a6" stroke-linecap="round" stroke-linejoin="round" stroke-width="5"/>
<path d="M1334.32 744.657C1327.56 745.723 1323.82 766.756 1322.36 772.338C1321.58 775.288 1320.32 781.257 1320.32 781.257C1320.32 781.257 1320.62 779.491 1320.77 778.608" fill="none" fill-rule="evenodd" opacity="1" stroke="#2222a6" stroke-linecap="round" stroke-linejoin="round" stroke-width="5"/>
<path d="M1343.95 745.717C1345.69 749.827 1348.43 753.634 1350.13 757.638C1352.69 763.669 1354.59 772.383 1358.47 777.816" fill="none" fill-rule="evenodd" opacity="1" stroke="#2222a6" stroke-linecap="round" stroke-linejoin="round" stroke-width="5"/>
<path d="M1359.99 779.295C1360.74 779.117 1361.46 777.549 1361.96 778.125C1362.89 779.194 1362.26 780.95 1362.62 782.319C1362.99 783.716 1362.7 786.606 1364.12 786.381C1366.44 786.015 1363.71 771.87 1363.28 770.178C1363 769.046 1362.99 766.499 1361.92 766.955C1360.78 767.438 1357.17 779.97 1359.99 779.295Z" fill="none" fill-rule="evenodd" opacity="1" stroke="#2222a6" stroke-linecap="round" stroke-linejoin="round" stroke-width="5"/>
<path d="M1609.28 1007.77C1608.69 1007.2 1606.7 1006.07 1606.98 1006.84C1607.47 1008.17 1608.72 1009.27 1610.03 1009.8C1610.7 1010.07 1609.79 1008.27 1609.28 1007.77Z" fill="none" fill-rule="evenodd" opacity="1" stroke="#2222a6" stroke-linecap="round" stroke-linejoin="round" stroke-width="5"/>
<path d="M1617.51 1024.53C1627.75 1020.65 1619.54 1017.12 1616.83 1014.75C1615.92 1013.96 1614.62 1011.66 1613.91 1012.63C1612.54 1014.52 1613.36 1017.27 1613.29 1019.6C1613.07 1027.24 1604.04 1029.63 1617.51 1024.53Z" fill="none" fill-rule="evenodd" opacity="1" stroke="#2222a6" stroke-linecap="round" stroke-linejoin="round" stroke-width="5"/>
<path d="M1561.39 805.115C1563.36 807.476 1575.54 827.814 1579.49 827.192" fill="none" fill-rule="evenodd" opacity="1" stroke="#2222a6" stroke-linecap="round" stroke-linejoin="round" stroke-width="5"/>
<path d="M1577.42 792.268C1576.08 796.462 1588.59 810.896 1592.03 814.035" fill="none" fill-rule="evenodd" opacity="1" stroke="#2222a6" stroke-linecap="round" stroke-linejoin="round" stroke-width="5"/>
</g>
</svg>
