<?xml version="1.0" encoding="UTF-8" standalone="no"?> <!-- Created with Vectornator (http://vectornator.io/) --><!DOCTYPE svg PUBLIC "-//W3C//DTD SVG 1.1//EN" "http://www.w3.org/Graphics/SVG/1.1/DTD/svg11.dtd">
<svg height="100%" stroke-miterlimit="10" style="fill-rule:nonzero;clip-rule:evenodd;stroke-linecap:round;stroke-linejoin:round;" version="1.1" viewBox="0 0 3370.82 2384.24" width="100%" xml:space="preserve" xmlns="http://www.w3.org/2000/svg" xmlns:vectornator="http://vectornator.io" xmlns:xlink="http://www.w3.org/1999/xlink">
<metadata>
<vectornator:setting key="IsTimeLapseWatermarkDisabled" value="false"/>
<vectornator:setting key="UndoHistoryDisabled" value="true"/>
<vectornator:setting key="VNDimensionsVisible" value="true"/>
<vectornator:setting key="VNSnapToGuides" value="true"/>
<vectornator:setting key="WDCMYKEnabledKey" value="false"/>
<vectornator:setting key="WDDisplayWhiteBackground" value="false"/>
<vectornator:setting key="WDDynamicGuides" value="false"/>
<vectornator:setting key="WDGuidesVisible" value="true"/>
<vectornator:setting key="WDIsolateActiveLayer" value="false"/>
<vectornator:setting key="WDOutlineMode" value="false"/>
<vectornator:setting key="WDRulersVisible" value="true"/>
<vectornator:setting key="WDSnapToEdges" value="false"/>
<vectornator:setting key="WDSnapToGrid" value="false"/>
<vectornator:setting key="WDSnapToPoints" value="false"/>
<vectornator:setting key="WDUnits" value="Millimeters"/>
</metadata>
<defs/>
<g id="Layer-1" vectornator:layerName="Layer 1">
<path d="M1062.47 690.436L2312.89 690.436L2312.89 2139.4L1062.47 2139.4L1062.47 690.436Z" fill="#ffffff" fill-rule="evenodd" opacity="1" stroke="#2222a6" stroke-linecap="round" stroke-linejoin="round" stroke-width="5"/>
<path d="M1154.69 775.313L2225.17 775.313C2230.06 775.313 2234.02 779.364 2234.02 784.362L2234.02 1943.68C2234.02 1948.67 2230.06 1952.73 2225.17 1952.73L1154.69 1952.73C1149.8 1952.73 1145.83 1948.67 1145.83 1943.68L1145.83 1227.74L1145.83 784.362C1145.83 779.364 1149.8 775.313 1154.69 775.313Z" fill="#c0d5dd" fill-rule="evenodd" opacity="1" stroke="#2222a6" stroke-linecap="round" stroke-linejoin="round" stroke-width="5"/>
<path d="M2474.31 1534.66L2474.31 1534.66C2474.72 1534.66 2475.06 1534.99 2475.06 1535.41L2475.06 1535.41C2475.06 1535.83 2474.72 1536.17 2474.31 1536.17L2474.31 1536.17C2473.89 1536.17 2473.55 1535.83 2473.55 1535.41L2473.55 1535.41C2473.55 1534.99 2473.89 1534.66 2474.31 1534.66Z" fill="none" fill-rule="evenodd" opacity="1" stroke="#2222a6" stroke-linecap="round" stroke-linejoin="round" stroke-width="5"/>
<path d="M1151.54 1446.73C1156.05 1444.39 1143.39 1405.38 1146.09 1410.26C1157.59 1430.96 1137.36 1307.75 1153.05 1306.17C1158.33 1305.64 1220.17 1301.2 1225.56 1301.59C1229.25 1301.86 1232.78 1303.47 1236.49 1303.62C1243.92 1303.93 1251.68 1302.37 1259.18 1302.69C1270.96 1303.18 1282.81 1304.58 1294.66 1304.49C1323.51 1304.28 1352.25 1302.38 1381.01 1301.19C1394.52 1300.64 1408.57 1302.4 1422.19 1301.98C1437.14 1301.51 1452 1299.64 1467 1298.83C1494.81 1297.31 1522.83 1296.76 1550.56 1294.47C1577.28 1292.26 1603.83 1287.83 1630.54 1285.55C1651.54 1283.76 1672.93 1280.85 1693.75 1278.77C1701.57 1277.98 1709.3 1276.26 1717.15 1275.97C1753.33 1274.65 1789.42 1271.78 1825.62 1270.46C1834.73 1270.13 1843.84 1271.13 1852.96 1271.29C1875.38 1271.7 1897.89 1270.23 1920.33 1270.34C1951.67 1270.5 1982.97 1272.1 2014.33 1272.09C2029.32 1272.08 2044.38 1270.92 2059.36 1271.15C2066.28 1271.25 2073.15 1272.35 2080.07 1272.64C2087.2 1272.94 2094.34 1272.21 2101.48 1272.28C2126.58 1272.55 2209.22 1269.35 2234.33 1268.93C2240.23 1268.83 2227 1314.81 2232.9 1314.84C2234.13 1314.84 2231.84 1367.71 2233.38 1367.44C2242.51 1365.81 1145.77 1604.69 1149.27 1563.22" fill="#f2dd51" fill-rule="evenodd" opacity="1" stroke="#2222a6" stroke-linecap="round" stroke-linejoin="round" stroke-width="5"/>
<path d="M1153.69 1451.03C1153.57 1450.3 1154.17 1449.05 1154.91 1449.16C1157.71 1449.56 1160.18 1451.2 1162.77 1452.33C1173.98 1457.24 1182.64 1459.46 1194.87 1461.78C1204.63 1463.64 1214.69 1464.96 1224.32 1467.38C1240.06 1471.33 1254.87 1478.64 1270.52 1482.86C1289.25 1487.92 1309.28 1492 1328.6 1493.9C1335.59 1494.58 1342.86 1493.57 1349.84 1493.74C1357.85 1493.93 1365.43 1495.28 1373.38 1494.85C1378.75 1494.56 1384.34 1497.83 1389.74 1497.96C1397.02 1498.13 1404.65 1498.34 1411.8 1497.95C1415.37 1497.76 1419.4 1496.56 1423.06 1496.73C1427.85 1496.96 1437.36 1497.35 1441.85 1496.11C1448.56 1494.24 1456.35 1494.3 1463.71 1492.71C1471.97 1490.92 1479.9 1487.83 1488 1485.58C1495.01 1483.63 1502.13 1482.74 1509.21 1481.21C1514.15 1480.15 1518.89 1477.89 1523.71 1476.42C1535.71 1472.74 1547.77 1469.26 1559.74 1465.64C1577.68 1460.2 1596.49 1457.83 1614.7 1453.42C1637.26 1447.96 1659.71 1441.96 1682.38 1436.91C1728.55 1426.63 1775.41 1419.42 1821.7 1409.67C1840.41 1405.73 1858.94 1400.72 1877.64 1396.8C1907.93 1390.46 1939.01 1384.19 1968.47 1374.62C1975.96 1372.19 1983.05 1367.96 1990.62 1365.4C2009.96 1358.86 2030.57 1355.91 2049.8 1348.95C2075.35 1339.71 2101.29 1333.6 2127.73 1327.68C2134.23 1326.22 2140.54 1323.41 2146.8 1321.23C2158.99 1316.99 2172.83 1315.18 2185.62 1313.5C2193.97 1312.41 2202.01 1309.4 2210.26 1308.95C2213.4 1308.78 2216.74 1306.83 2219.89 1307.42C2221.98 1307.82 2225.08 1314.33 2225.84 1316.11C2228.51 1322.38 2227.86 1328.08 2229.08 1334.34C2229.39 1335.91 2230.79 1337.25 2230.75 1338.85C2230.59 1345.24 2229.54 1351.6 2229.59 1357.93C2229.68 1369.12 2234 1937.88 2226.83 1948.94C2221.67 1956.9 1154.82 1947.99 1154.04 1947.39C1153.05 1946.64 1153.57 1944.95 1153.03 1943.84C1152.2 1942.16 1150.22 1488.87 1150.54 1476.02C1150.75 1467.51 1155.2 1459.62 1153.69 1451.03Z" fill="#ffef89" fill-rule="evenodd" opacity="1" stroke="#2222a6" stroke-linecap="round" stroke-linejoin="round" stroke-width="3.3284"/>
<path d="M1150.24 1448.66C1159.39 1450.02 1164.56 1453.96 1172.39 1458.3C1181.88 1463.56 1192.64 1465.34 1202.53 1469.12C1212.59 1472.98 1221.86 1478.25 1232.53 1480.84C1235.73 1481.61 1239.1 1481.51 1242.3 1482.28C1246.75 1483.36 1250.75 1485.8 1255.21 1486.92C1267.33 1489.98 1280.3 1489.68 1292.49 1492.46C1300.02 1494.18 1307.62 1496.33 1315.43 1496.77C1334.4 1497.85 1353.44 1496.89 1372.39 1497.97C1385.45 1498.71 1398.62 1502.22 1411.7 1501.99C1415.49 1501.92 1419.11 1500.32 1422.88 1500.02C1431.23 1499.36 1439.99 1499.55 1448.39 1499.27C1465.56 1498.72 1483.31 1500.03 1500.42 1497.02C1514.32 1494.57 1527.72 1488.89 1541.22 1484.94C1563.88 1478.3 1586.27 1472.3 1608.57 1465C1614.05 1463.21 1619.9 1462.36 1625.47 1461.16C1633.71 1459.4 1642.35 1455.64 1650.26 1453.05C1653.23 1452.08 1656.5 1452.5 1659.53 1451.71C1668.98 1449.22 1678.6 1447.15 1687.86 1444.12C1708.59 1437.34 1726.83 1424.11 1747.89 1418.57C1753.96 1416.97 1761.08 1415.97 1767.32 1416.01C1773.09 1416.04 1777.83 1417.26 1783.69 1415.72C1792.21 1413.47 1800.84 1409.57 1809.36 1407.74C1816.13 1406.29 1823.65 1406.12 1830.56 1405.44C1837.8 1404.74 1844.46 1402.15 1851.27 1400.35C1853.66 1399.73 1856.25 1400.26 1858.64 1399.63C1871.56 1396.23 1884.78 1394.67 1897.89 1391.86C1909.63 1389.33 1921.16 1383.72 1932.96 1381.64C1944.08 1379.68 1955.71 1378.42 1966.62 1374.85C1979.53 1370.62 1992.55 1366.14 2005.64 1362.5C2014.27 1360.11 2023.37 1359.23 2031.94 1356.43C2055.42 1348.74 2078.51 1340.25 2102.36 1334.23C2111.19 1332 2120.62 1331.7 2129.41 1329.17C2143.97 1325 2158.45 1323.77 2173.23 1321.17C2176.4 1320.61 2179.43 1319.32 2182.63 1318.93C2192.91 1317.71 2203.02 1315.89 2213.23 1314.41C2219.65 1313.48 2225.52 1313.76 2231.77 1311.72" fill="#f2dd51" fill-rule="evenodd" opacity="1" stroke="#2222a6" stroke-linecap="round" stroke-linejoin="round" stroke-width="5"/>
<path d="M1149.41 1241.76C1150.92 1237.8 1166.62 1236.99 1170.73 1236.05C1187.81 1232.15 1205.3 1230.53 1222.66 1228.16C1258.86 1223.22 1294.8 1221.01 1331.26 1219.5C1370.79 1217.87 1410.34 1214.81 1449.86 1212.52C1490.82 1210.16 1531.74 1209.31 1572.74 1208.24C1592.49 1207.73 1612.22 1206.39 1631.98 1206.33C1649.7 1206.26 1667.43 1206.96 1685.15 1206.35C1701.76 1205.79 1718.34 1204.39 1734.96 1204.04C1748.8 1203.75 1762.66 1204.47 1776.5 1203.9C1826.82 1201.82 1876.73 1195.76 1926.32 1187.53C1949.6 1183.67 1973.18 1182.6 1996.52 1179.15C2055.87 1170.38 2113.2 1152.25 2171.02 1137.08C2181.16 1134.42 2194.05 1131.37 2203.53 1127.12C2209.31 1124.52 2214.96 1121.22 2220.56 1118.71C2222.28 1117.93 2225.68 1119.12 2227.2 1118.04C2228.17 1117.35 2228.93 1116.08 2230.12 1115.96" fill="#c0d5dd" fill-rule="evenodd" opacity="1" stroke="#2222a6" stroke-linecap="round" stroke-linejoin="round" stroke-width="5"/>
<path d="M1148.06 1139.13C1141.32 1142.15 1152.96 1143.51 1154.78 1143.82C1163.84 1145.34 1173.2 1145.77 1182.34 1146.86C1197.74 1148.7 1213.11 1147.43 1228.52 1148.49C1236.89 1149.06 1245.27 1149.85 1253.65 1149.54C1328.43 1146.81 1403.19 1143.95 1478.02 1141.34C1526.03 1139.67 1574.49 1137.27 1622.54 1138.91C1670.3 1140.54 1717.98 1143.99 1765.73 1145.55C1782.88 1146.11 1799.89 1144.45 1817.04 1144.87C1829.51 1145.18 1841.92 1146.75 1854.38 1147.38C1871.33 1148.25 1888.4 1147.1 1905.34 1147.64C1930.93 1148.45 1956.72 1150.39 1982.23 1152.44C1992.92 1153.29 2003.32 1153 2013.99 1152.83C2020.6 1152.71 2027.15 1153.99 2033.76 1153.97C2040.14 1153.95 2046.58 1153.07 2052.96 1153.83C2069.33 1155.78 2085.66 1158.98 2101.8 1159.66" fill="#c0d5dd" fill-rule="evenodd" opacity="1" stroke="#2222a6" stroke-linecap="round" stroke-linejoin="round" stroke-width="5"/>
<path d="M1775.05 1268.71C1774.81 1269.51 1773.65 1270.27 1772.87 1269.96C1772.03 1269.62 1775.18 1264.01 1775.36 1263.74C1779.21 1257.97 1783.36 1255.39 1790.3 1254.4C1800.13 1253 1810.52 1252.6 1820.17 1250.67C1823.46 1250.01 1827.35 1250.95 1830.12 1248.18C1831.37 1246.94 1831.99 1245.07 1833.23 1243.82C1834.39 1242.67 1835.86 1242.81 1836.97 1241.33C1840.38 1236.78 1836.09 1228.26 1835.1 1223.29C1833.19 1213.75 1832.74 1204.25 1831.37 1194.67C1830.93 1191.62 1829.7 1185.97 1830.74 1182.84C1832.04 1178.95 1844.79 1180.83 1849.41 1177.24C1854.7 1173.13 1857.5 1167.29 1861.86 1162.31C1865.54 1158.1 1870.06 1155.26 1874.3 1151.73C1876.8 1149.64 1879.35 1146.19 1882.39 1144.88C1884.02 1144.19 1885.83 1143.9 1887.37 1143.02C1889.85 1141.6 1893.07 1138.66 1896.08 1138.66C1898.81 1138.66 1900.79 1143.69 1902.3 1145.51C1906.78 1150.87 1911.16 1156.17 1917.24 1159.82C1922.66 1163.07 1929.28 1164.43 1935.28 1162.93C1938.15 1162.21 1943.18 1155.06 1945.24 1156.71C1947.63 1158.62 1948.29 1161.56 1949.6 1164.17C1951.87 1168.73 1954.34 1173.55 1955.82 1178.49C1957.25 1183.25 1958.16 1188.89 1960.17 1193.42C1963.11 1200.03 1972.81 1208.28 1978.22 1212.71C1982.05 1215.84 1985.18 1219.32 1989.42 1222.04C2004.51 1231.75 2022.31 1233.92 2038.58 1225.78C2043.92 1223.11 2048.47 1219.55 2053.51 1216.44C2057.25 1214.14 2062.72 1212.46 2065.34 1208.98C2071.78 1200.38 2069.94 1181.88 2071.56 1171.64C2072.25 1167.26 2073.45 1162.97 2074.05 1158.57C2075.07 1151.09 2074.85 1143.58 2076.54 1136.17C2079.31 1123.98 2083.58 1111.97 2088.98 1100.7C2094.68 1088.84 2100.51 1076.64 2107.03 1065.23C2107.54 1064.35 2110.55 1056.47 2113.25 1057.15C2116.43 1057.94 2118.28 1066.06 2118.85 1068.35C2121.71 1079.8 2122.2 1091.7 2125.07 1103.19C2127.04 1111.07 2126.51 1119.03 2128.19 1126.84C2133.74 1152.74 2138.3 1178.45 2148.72 1202.75C2151.65 1209.6 2153.61 1216.45 2158.05 1222.67C2163.18 1229.85 2174.86 1222.28 2180.46 1220.18C2183.15 1219.17 2185.23 1220.15 2187.92 1219.56C2190.09 1219.07 2193.5 1217 2195.39 1215.82C2198.53 1213.86 2200.19 1211.34 2202.86 1208.98C2205.76 1206.4 2208.95 1204.57 2211.57 1201.51C2213.95 1198.73 2214.6 1194.75 2217.17 1192.18C2220.17 1189.18 2227.63 1189.36 2231.48 1187.82C2232.87 1187.26 2233.8 1184.86 2235.21 1185.33C2235.84 1185.54 2235.73 1186.55 2235.84 1187.2C2237.26 1195.71 2235.64 1205.59 2234.59 1213.96C2233.3 1224.31 2233.97 1235.18 2233.97 1245.69C2233.97 1252.93 2235.45 1263.25 2228.99 1268.09C2227.18 1269.45 2210.33 1267.47 2207.21 1267.47C2199.28 1267.47 2189.81 1269.65 2182.32 1268.71C2178.77 1268.27 2175.31 1266.62 2171.74 1266.23C2161.81 1265.12 2150.63 1264.77 2140.63 1265.6C2133.95 1266.16 2126.67 1265.21 2120.1 1266.23C2104.15 1268.68 2087.75 1270.19 2071.56 1271.2C2044.12 1272.92 2016.73 1268.84 1989.42 1267.47C1955.27 1265.76 1920.9 1268.71 1886.75 1268.71C1869.22 1268.71 1851.33 1270.58 1833.86 1269.34C1824.27 1268.65 1810.29 1267 1800.88 1268.71C1798.15 1269.21 1795.62 1270.85 1792.79 1271.2C1788.98 1271.68 1772.61 1275.3 1770.38 1273.07C1768.1 1270.79 1776.34 1264.46 1775.05 1268.71Z" fill="#5163f2" fill-rule="evenodd" opacity="1" stroke="#2222a6" stroke-linecap="round" stroke-linejoin="round" stroke-width="5"/>
<path d="M1939.82 1233.88C1960.09 1236.75 1980.89 1234 2001.28 1234.33C2005.81 1234.41 2010.6 1233.78 2015.15 1234.42C2016.38 1234.59 2018.37 1233.79 2018.83 1234.94C2020.05 1238.01 2019 1243.54 2018.68 1246.55C2018.17 1251.51 2017.55 1255.75 2018.18 1260.73" fill="none" fill-rule="evenodd" opacity="1" stroke="#2222a6" stroke-linecap="round" stroke-linejoin="round" stroke-width="5"/>
<path d="M1940.03 1232.41C1939.54 1235.88 1940.37 1240.14 1940.31 1243.7C1940.19 1250.67 1939.48 1257.59 1939.23 1264.55C1939.13 1267.33 1937.84 1272.85 1941.86 1272.43" fill="none" fill-rule="evenodd" opacity="1" stroke="#2222a6" stroke-linecap="round" stroke-linejoin="round" stroke-width="5"/>
<path d="M1999.36 1255.82C1999.94 1257.54 1999.14 1260.03 1998.9 1261.76C1998.73 1262.98 1998.55 1264.21 1998.38 1265.43C1998.27 1266.17 1998.08 1266.9 1998.07 1267.64C1998.06 1267.92 1998.21 1268.67 1998.33 1268.43C1999.83 1265.42 1996.51 1254.25 2001.46 1254.24C2005.49 1254.24 2009.58 1255.71 2013.6 1255.96C2025.33 1256.68 2037.02 1253.93 2048.74 1254.19C2064.82 1254.54 2080.91 1257.91 2097.02 1257.65C2105.6 1257.51 2113.95 1256.67 2122.5 1257.88C2123.53 1258.03 2125.96 1257.96 2126.91 1258.51C2130.08 1260.33 2130.48 1267.75 2130.02 1270.95" fill="none" fill-rule="evenodd" opacity="1" stroke="#2222a6" stroke-linecap="round" stroke-linejoin="round" stroke-width="5"/>
<path d="M2063.76 1254.06C2061.88 1236.08 2061.03 1217.23 2062.91 1199.17C2063.29 1195.54 2064.15 1192.11 2064.06 1188.45C2064.05 1188.15 2063.35 1183.26 2063.68 1183.15C2064.4 1182.91 2065.09 1183.89 2065.84 1183.83C2071.22 1183.41 2077.26 1181.51 2082.48 1180.19C2087.62 1178.89 2094.16 1177.34 2099.5 1179.22C2100.75 1179.66 2101.63 1180.5 2103.02 1180.85C2104.15 1181.12 2108.27 1180.84 2108.96 1181.31C2110.1 1182.1 2109.24 1184.41 2109.18 1185.09C2109.04 1186.58 2108.98 1188.07 2108.92 1189.56C2108.7 1194.78 2108.53 1200 2108.2 1205.21C2107.15 1222.04 2105.45 1240.4 2107.21 1257.22" fill="none" fill-rule="evenodd" opacity="1" stroke="#2222a6" stroke-linecap="round" stroke-linejoin="round" stroke-width="5"/>
<path d="M2050.09 1194.35C2059.03 1185.39 2069.53 1177.82 2078.79 1169.16C2082.06 1166.1 2085.38 1163.06 2089.03 1160.48C2089.52 1160.13 2092.31 1158.51 2093.17 1157.69C2093.38 1157.5 2093.92 1156.96 2093.65 1157.01C2091.32 1157.43 2089.74 1159.68 2087.82 1161.06C2085.62 1162.65 2083.33 1164.11 2081.15 1165.74C2072.36 1172.35 2063.81 1179.51 2055.65 1186.89C2053.43 1188.9 2051.21 1190.92 2049.14 1193.09C2048.14 1194.14 2045.7 1196.55 2047.1 1196.93C2051.4 1198.1 2056.46 1193.4 2059.17 1191.14C2066.35 1185.17 2072.85 1178.78 2079.48 1172.26C2083.64 1168.17 2088.75 1165.93 2092.92 1162.16C2093.06 1162.03 2095.72 1160.25 2095.12 1159.84C2093.69 1158.85 2090.88 1160.58 2091.03 1162.26C2091.41 1166.74 2096.13 1171.99 2098.55 1175.33C2101.96 1180.04 2104.29 1183.24 2108.49 1187.25C2111.56 1190.16 2115.31 1192.32 2118.22 1195.38C2119.34 1196.56 2121.34 1200.02 2120.85 1200.63C2119.91 1201.79 2118.07 1199.53 2116.07 1197.32C2114.42 1195.5 2112.77 1193.68 2111.23 1191.76C2104.24 1183.05 2098.12 1172.36 2088.14 1166.73C2087.25 1166.23 2086.32 1165.72 2085.3 1165.58C2083.77 1165.36 2086.06 1168.66 2086.94 1169.94C2088.53 1172.25 2090.21 1174.49 2091.99 1176.66C2095.83 1181.32 2100.3 1185.55 2105.24 1189.04C2110.28 1192.59 2115.03 1194.63 2118.75 1199.58" fill="none" fill-rule="evenodd" opacity="1" stroke="#2222a6" stroke-linecap="round" stroke-linejoin="round" stroke-width="5"/>
<path d="M2070.98 1179.31C2069.59 1189.08 2069.12 1199.49 2068.6 1209.36C2068.29 1215.19 2068.19 1221.04 2067.62 1226.85C2067.09 1232.27 2066.46 1237.69 2065.69 1243.08C2065.36 1245.41 2065.03 1247.74 2064.7 1250.07C2064.65 1250.44 2064.77 1251.47 2064.55 1251.17C2063.13 1249.28 2064.66 1246.44 2064.8 1244.08C2064.97 1241.35 2064.99 1238.61 2065.21 1235.89C2066.33 1222.07 2068.43 1208.65 2071.37 1195.12C2072.41 1190.32 2073.67 1185.67 2074.87 1180.98C2075.18 1179.78 2075.59 1178.57 2075.76 1177.36C2075.85 1176.73 2076.41 1174.94 2076.39 1175.57C2076.13 1181.74 2074.65 1187.85 2074.52 1194.06C2074.38 1200.04 2073.98 1206 2073.85 1211.98C2073.67 1220.57 2073.75 1229.21 2073.57 1237.82C2073.43 1244.38 2072.64 1251.06 2073.01 1257.63C2073.1 1259.15 2073.71 1260.68 2073.49 1262.19" fill="none" fill-rule="evenodd" opacity="1" stroke="#2222a6" stroke-linecap="round" stroke-linejoin="round" stroke-width="5"/>
<path d="M2010.14 1264.47C2020.36 1261.56 2033.21 1262.83 2043.76 1262.86C2062.03 1262.91 2080.58 1262.45 2098.81 1263.53C2102.27 1263.74 2105.72 1264.21 2109.16 1264.62C2113.22 1265.11 2117.46 1265.17 2121.25 1266.71C2121.73 1266.91 2122.35 1267.47 2122.19 1267.97C2121.5 1270.18 2117.62 1268.94 2115.31 1268.87C2109.12 1268.68 2102.98 1267.68 2096.82 1267C2077.56 1264.87 2058.18 1265.18 2039.03 1261.81C2033.88 1260.91 2028.19 1259.37 2023.06 1258.05C2021.97 1257.77 2020.9 1257.46 2019.8 1257.21C2019.32 1257.11 2017.84 1256.94 2018.33 1257.01C2024.36 1257.86 2030.69 1257.13 2036.71 1256.98C2052.86 1256.59 2068.9 1255.47 2085.04 1254.83C2101.46 1254.17 2118.58 1253.58 2134.79 1255.87" fill="none" fill-rule="evenodd" opacity="1" stroke="#2222a6" stroke-linecap="round" stroke-linejoin="round" stroke-width="5"/>
<path d="M2136.52 1256.87C2137.15 1260.31 2136.81 1263.94 2136.9 1267.43" fill="none" fill-rule="evenodd" opacity="1" stroke="#2222a6" stroke-linecap="round" stroke-linejoin="round" stroke-width="5"/>
<path d="M2138.33 1233.49C2148.14 1230.21 2160.56 1232.14 2170.59 1233.56C2173.16 1233.92 2175.71 1234.69 2178.31 1234.65C2179.25 1234.64 2180.87 1232.99 2181.04 1233.92C2181.34 1235.57 2179.22 1238.8 2178.95 1240.75C2178.8 1241.76 2178.83 1246.75 2178.01 1247.37C2177.3 1247.9 2171.95 1246.14 2171.81 1246.11C2170.35 1245.84 2168.87 1245.7 2167.39 1245.49C2158.71 1244.26 2149.95 1243.15 2141.23 1242.16C2139.5 1241.96 2137.77 1241.89 2136.03 1241.79C2134.38 1241.71 2132.03 1240.86 2131.09 1242.22C2130.88 1242.53 2131.83 1242.42 2132.2 1242.38C2133.25 1242.24 2134.26 1241.92 2135.29 1241.69C2138.19 1241.03 2144.24 1239.57 2146.9 1239.21C2154.89 1238.13 2162.98 1238.57 2171.01 1238.5C2172.36 1238.48 2177.56 1238.87 2179.36 1237.8C2179.7 1237.61 2178.69 1237.38 2178.31 1237.28C2176.63 1236.84 2174.93 1236.48 2173.21 1236.18C2171.02 1235.8 2168.79 1235.61 2166.59 1235.25C2157.97 1233.8 2149.63 1232.03 2140.9 1231.23C2138.93 1231.05 2136.94 1230.96 2134.97 1230.76C2133.98 1230.67 2132.99 1230.58 2132.02 1230.35C2131.76 1230.28 2131.18 1230.1 2131.34 1229.88C2132.44 1228.28 2134.92 1228.18 2136.85 1228.03C2138.97 1227.87 2141.1 1228.04 2143.21 1228.18C2146.06 1228.37 2148.88 1228.78 2151.72 1229.01C2161.37 1229.8 2171.08 1230.05 2180.72 1230.87C2184.27 1231.17 2188.58 1232.78 2192.17 1232.12" fill="none" fill-rule="evenodd" opacity="1" stroke="#2222a6" stroke-linecap="round" stroke-linejoin="round" stroke-width="5"/>
<path d="M2176.96 1246.84C2174.98 1251.7 2175.01 1256.83 2175.19 1261.97C2175.25 1263.72 2175.29 1265.48 2175.19 1267.23C2175.16 1267.84 2175.02 1268.45 2174.93 1269.06C2174.88 1269.43 2174.57 1270.47 2174.78 1270.17C2177.96 1265.56 2176.35 1253.79 2177.12 1248.37C2177.36 1246.63 2176.83 1243.36 2178.58 1243.32C2180.86 1243.27 2180.28 1247.66 2180.27 1249.94C2180.26 1253.16 2179.56 1256.34 2179.28 1259.55C2179.16 1260.94 2179.18 1262.05 2179.5 1263.33C2179.56 1263.6 2179.5 1264.21 2179.76 1264.12C2181.07 1263.68 2180.81 1261.54 2181.07 1260.18C2181.37 1258.6 2181.52 1256.99 2181.75 1255.4C2182.68 1248.82 2182.71 1237.43 2186.87 1232.49C2187.05 1232.28 2187.54 1232.69 2187.55 1232.96C2187.65 1234.7 2187.28 1236.43 2187.19 1238.16C2187.06 1240.65 2187 1243.14 2186.88 1245.62C2186.75 1248.48 2186.62 1251.33 2186.42 1254.19C2186.26 1256.54 2185.98 1258.88 2185.8 1261.23C2185.67 1262.83 2185.61 1264.45 2185.49 1266.06C2185.42 1266.97 2184.67 1271.15 2185.44 1271.68C2185.87 1271.98 2186.28 1271.05 2186.7 1270.73" fill="none" fill-rule="evenodd" opacity="1" stroke="#2222a6" stroke-linecap="round" stroke-linejoin="round" stroke-width="5"/>
<path d="M2195.46 1216.83C2195.52 1216.46 2195.4 1215.43 2195.62 1215.72C2197.21 1217.84 2195.98 1221.01 2196 1223.66C2196.03 1227.54 2196.06 1231.43 2196.22 1235.32C2196.7 1247.04 2197.71 1258.72 2198 1270.46" fill="none" fill-rule="evenodd" opacity="1" stroke="#2222a6" stroke-linecap="round" stroke-linejoin="round" stroke-width="5"/>
<path d="M1895.31 1262.08C1895.26 1263.42 1894.81 1268.42 1895.74 1269.65C1896.14 1270.18 1896.7 1268.58 1896.74 1267.91C1896.79 1266.97 1896.3 1266.08 1896 1265.18C1895.64 1264.12 1892.24 1255.88 1894.73 1255.62C1896.95 1255.39 1899.17 1256.32 1901.4 1256.19C1905.15 1255.98 1908.79 1254.76 1912.53 1254.39C1917.41 1253.92 1922.23 1255.15 1927.08 1254.96C1928.93 1254.88 1931.49 1254.38 1933.28 1253.58C1933.6 1253.44 1934.23 1253.28 1934.12 1252.95C1933.59 1251.38 1929.12 1251.85 1929.02 1251.85C1927.37 1251.91 1925.73 1252.16 1924.09 1252.28C1921.06 1252.49 1913.9 1252.79 1911.22 1253.08C1905.45 1253.72 1902.82 1254.86 1897.14 1254.47C1895.85 1254.38 1891.83 1254.1 1891.94 1251.48C1892.03 1249.14 1896.04 1249.03 1898.34 1248.63C1907.71 1247.01 1917.29 1246.55 1926.76 1246.66C1927.71 1246.67 1932.35 1246.47 1933.9 1246.54C1934.4 1246.57 1935.3 1247.24 1935.37 1246.75C1935.58 1245.27 1928.12 1244.32 1926.55 1245.5" fill="none" fill-rule="evenodd" opacity="1" stroke="#2222a6" stroke-linecap="round" stroke-linejoin="round" stroke-width="5"/>
<path d="M1925.13 1247.55C1926.13 1240.5 1928.35 1233.83 1928.47 1226.64C1928.52 1223.73 1928.09 1220.82 1927.83 1217.92C1927.75 1217.05 1927.95 1214.43 1927.83 1215.3C1925.97 1228.39 1927.58 1241.63 1928.24 1254.74C1928.28 1255.58 1929.8 1264.45 1926.36 1262.73C1924.67 1261.89 1925.06 1259.15 1924.88 1257.27C1924.67 1255.14 1924.64 1253 1924.66 1250.86C1924.72 1244.66 1924.85 1242.3 1926.33 1236.47C1927.08 1233.48 1929.05 1230.63 1929.1 1227.48C1929.11 1226.85 1927.8 1224.69 1928.05 1224.33C1928.82 1223.21 1930.19 1224.06 1931.09 1224.01C1932.38 1223.94 1933.66 1223.68 1934.93 1223.43C1939.24 1222.58 1943.73 1222.65 1948.11 1223.05C1953.06 1223.49 1958.01 1224.09 1962.98 1224.03C1968.03 1223.96 1973.06 1222.93 1978.11 1223.17C1981.85 1223.35 1985.77 1224.26 1989.51 1224.79C1990.12 1224.87 1988.29 1224.54 1987.67 1224.52C1986.04 1224.48 1984.41 1224.64 1982.78 1224.58C1978.45 1224.42 1974.16 1223.63 1969.86 1223.13C1964.56 1222.5 1957.77 1221.88 1952.42 1221.78C1950.16 1221.74 1947.9 1221.84 1945.64 1221.95C1944.62 1222 1943.51 1222.72 1942.59 1222.26C1941.79 1221.86 1945.59 1221.23 1945.75 1221.21C1948.16 1220.91 1950.56 1220.5 1952.99 1220.36C1956.25 1220.18 1959.51 1220.27 1962.76 1220.25C1972.52 1220.18 1982.33 1219.83 1992.07 1219.9C1993.94 1219.91 1995.79 1220.13 1997.64 1220.31C1999.49 1220.49 2001.69 1219.95 2003.16 1221.09C2003.56 1221.41 2003.28 1222.11 2003.32 1222.62C2003.45 1224.51 2003.63 1226.39 2003.64 1228.29C2003.72 1237.48 2002.64 1246.64 2001.62 1255.76C2001.29 1258.72 2000.98 1261.68 2000.37 1264.59C2000.24 1265.21 2000.12 1266.88 1999.74 1266.38C1999.3 1265.78 2000.09 1264.91 2000.06 1264.17C1999.99 1262.63 1998.8 1256.95 1998.63 1255.71C1997.25 1245.75 1995.86 1236.12 1993.03 1226.41C1992.56 1224.81 1992.16 1223.18 1991.45 1221.68C1991.18 1221.13 1990.7 1220.13 1990.13 1220.37C1989.44 1220.66 1989.48 1221.77 1989.45 1222.53C1989.33 1225.54 1989.55 1228.55 1989.67 1231.56C1989.86 1236.1 1990.14 1240.63 1990.37 1245.17C1990.54 1248.44 1990.68 1251.71 1990.85 1254.99C1991.11 1259.86 1991.35 1264.74 1990.66 1269.59" fill="none" fill-rule="evenodd" opacity="1" stroke="#2222a6" stroke-linecap="round" stroke-linejoin="round" stroke-width="5"/>
<path d="M2096.07 1188.1C2089.96 1190.14 2082.35 1201.13 2077.39 1205.45C2074.93 1207.59 2072.22 1209.52 2070.27 1212.12C2070.07 1212.39 2069.53 1212.87 2069.82 1213.01C2071.9 1214.05 2074.03 1211.03 2076.05 1209.9C2083.82 1205.55 2091.14 1200.39 2099.18 1196.55C2100.8 1195.78 2105.56 1193.66 2105.86 1193.89C2106.5 1194.36 2105.41 1195.45 2104.97 1196.11C2103.62 1198.13 2102.13 1200.07 2100.52 1201.89C2098.71 1203.93 2096.66 1205.75 2094.74 1207.68C2089.11 1213.3 2083.58 1219.08 2077.83 1224.58C2076.24 1226.1 2074.5 1227.47 2072.94 1229.03C2072.56 1229.41 2071.51 1230.36 2072.05 1230.36C2075.13 1230.36 2077.17 1226.91 2079.61 1225.02C2081.21 1223.79 2082.87 1222.65 2084.5 1221.47" fill="none" fill-rule="evenodd" opacity="1" stroke="#2222a6" stroke-linecap="round" stroke-linejoin="round" stroke-width="5"/>
<path d="M2103.63 1211.23C2102.27 1215.34 2095.96 1219.68 2092.96 1222.8C2084.42 1231.68 2074.5 1241.48 2068.94 1252.6" fill="none" fill-rule="evenodd" opacity="1" stroke="#2222a6" stroke-linecap="round" stroke-linejoin="round" stroke-width="5"/>
<path d="M1483.11 1204.35C1479.25 1200.73 1487.61 1197.52 1490.83 1196.85C1495.96 1195.78 1502.18 1195.08 1507.39 1195.53C1511.01 1195.83 1514.09 1198.12 1517.59 1198.04C1520.35 1197.98 1525.73 1194.87 1528.32 1193.56C1535.28 1190.04 1538.3 1179.49 1541.86 1173.25C1546.52 1165.08 1556.68 1149.53 1565.24 1145.45C1571.82 1142.32 1576.79 1151.53 1578.91 1156.39C1582.44 1164.45 1586.43 1189.97 1598.44 1190.37C1607.97 1190.69 1617.04 1187.93 1626.5 1188.25C1632.72 1188.46 1638.56 1192.37 1644.95 1192.23C1650.26 1192.11 1655.83 1191.93 1661.27 1192.28C1666.73 1192.64 1671.5 1195.36 1676.97 1195.78C1681.5 1196.12 1688.09 1195.5 1692.72 1195.02C1698.03 1194.47 1706.61 1195.77 1711.3 1198.31C1712.1 1198.75 1717.1 1201.05 1716.2 1202.73C1715.94 1203.2 1703 1204.23 1701.7 1204.42C1686.32 1206.69 1670.66 1208.02 1655.02 1207.5C1648.61 1207.28 1642.66 1205.56 1636.32 1204.89C1621.1 1203.3 1605.85 1206.32 1590.7 1206.03C1579.84 1205.83 1569.32 1207.19 1558.51 1207.43C1548.68 1207.64 1539 1207.41 1529.2 1208.62C1523.39 1209.34 1517 1210.45 1511.14 1210.39C1507.34 1210.35 1503.8 1209.23 1499.89 1209.81C1495.34 1210.48 1490.43 1213.81 1485.84 1213C1482.59 1212.42 1479.22 1209.94 1476.82 1207.85C1476.03 1207.17 1473.4 1206.5 1474.31 1205.99C1476.12 1204.95 1478.25 1204.59 1480.3 1204.21C1481.22 1204.04 1483.8 1205 1483.11 1204.35Z" fill="#2324a8" fill-rule="evenodd" opacity="1" stroke="#2222a6" stroke-linecap="round" stroke-linejoin="round" stroke-width="5"/>
<path d="M1216.84 1265.71C1215.62 1274.28 1217.48 1282.71 1217.48 1291.33" fill="#c0d5dd" fill-rule="evenodd" opacity="1" stroke="#2222a6" stroke-linecap="round" stroke-linejoin="round" stroke-width="5"/>
<path d="M1213.64 1255.46C1222.54 1252.5 1228.91 1249.07 1238.61 1248.42C1244.79 1248.01 1250.99 1248.42 1257.18 1248.42C1264.01 1248.42 1270.85 1248.42 1277.68 1248.42C1279.17 1248.42 1281.33 1247.18 1282.16 1248.42C1282.73 1249.27 1282.16 1254.74 1282.16 1255.46C1282.16 1257.39 1282.16 1259.31 1282.16 1261.23C1282.16 1264.22 1282.16 1267.2 1282.16 1270.19C1282.16 1281.79 1283.32 1292.28 1285.36 1303.49C1285.63 1304.98 1285.33 1306.63 1286 1307.98" fill="#c0d5dd" fill-rule="evenodd" opacity="1" stroke="#2222a6" stroke-linecap="round" stroke-linejoin="round" stroke-width="5"/>
<path d="M1213.64 1242.02C1213.64 1256.34 1214.92 1270.6 1214.92 1284.92C1214.92 1289.19 1214.92 1293.46 1214.92 1297.73C1214.92 1298.37 1214.47 1299.2 1214.92 1299.65C1216.07 1300.8 1216.72 1296.79 1216.84 1295.17C1217.28 1289.06 1216.9 1282.66 1216.2 1276.6C1214.8 1264.48 1212.38 1249.43 1216.84 1237.53C1217.18 1236.64 1218.68 1232.04 1220.04 1231.77C1221.42 1231.49 1225.71 1233.58 1227.09 1233.69C1231.13 1234.03 1235.2 1233.86 1239.25 1233.69C1249.4 1233.27 1259.07 1229.35 1269.35 1230.49C1271.1 1230.68 1272.78 1231.29 1274.47 1231.77C1275.77 1232.14 1277.01 1232.7 1278.32 1233.05C1278.49 1233.1 1284.32 1233.66 1284.72 1234.33C1285.86 1236.23 1284.08 1245.15 1284.08 1247.14C1284.08 1258.07 1284.34 1268.88 1284.72 1279.8C1284.9 1285.1 1284.71 1289.99 1286 1295.17C1286.11 1295.61 1287.66 1302.85 1286 1302.85C1284.65 1302.85 1285.18 1300.28 1284.72 1299.01C1283.45 1295.51 1281.78 1292.16 1280.24 1288.76C1275.02 1277.28 1269.67 1265.85 1264.87 1254.18C1263.69 1251.31 1262.92 1248.27 1262.31 1245.22C1262.13 1244.36 1261.79 1243.53 1261.67 1242.66C1261.58 1242.02 1262.31 1240.74 1261.67 1240.74C1260.7 1240.74 1261.03 1245.65 1261.03 1249.7C1261.03 1253.33 1261.03 1256.96 1261.03 1260.59C1261.03 1264.22 1261.03 1267.85 1261.03 1271.47C1261.03 1279.48 1259.75 1287.25 1259.75 1295.17" fill="#c0d5dd" fill-rule="evenodd" opacity="1" stroke="#2222a6" stroke-linecap="round" stroke-linejoin="round" stroke-width="5"/>
<path d="M1247.58 1238.17C1244.88 1246.28 1247.71 1255.26 1248.22 1263.79C1248.74 1272.54 1249.68 1281.29 1250.14 1290.05C1250.27 1292.6 1248.99 1295.44 1250.14 1297.73C1250.74 1298.94 1251.12 1295.2 1251.42 1293.89C1251.91 1291.77 1252.29 1289.62 1252.7 1287.48C1253.15 1285.14 1253.5 1282.78 1253.98 1280.44C1256.47 1268.52 1256.63 1256.44 1259.11 1244.58C1260.03 1240.15 1260.32 1233.68 1262.95 1234.33C1266.47 1235.21 1266.47 1245.31 1266.79 1249.7C1267.69 1262.07 1267.56 1274.48 1268.07 1286.84C1268.25 1291.23 1269.38 1295.35 1269.99 1299.65C1270.05 1300.07 1269.56 1300.93 1269.99 1300.93C1271.75 1300.93 1271.05 1297.56 1271.27 1295.81C1271.54 1293.68 1271.73 1291.54 1271.91 1289.4C1272.16 1286.42 1272.37 1283.43 1272.55 1280.44C1273.22 1269.8 1273.67 1258.99 1275.11 1248.42C1276.2 1240.49 1279.8 1235.38 1280.24 1247.78C1280.38 1251.83 1280.13 1255.89 1280.24 1259.95C1280.35 1264.22 1280.76 1268.48 1280.88 1272.75C1281.05 1278.94 1281.52 1285.16 1281.52 1291.33" fill="none" fill-rule="evenodd" opacity="1" stroke="#2222a6" stroke-linecap="round" stroke-linejoin="round" stroke-width="5"/>
<path d="M1216.2 1247.78C1215.77 1247.99 1214.55 1248.11 1214.92 1248.42C1216.39 1249.64 1218.27 1250.27 1220.04 1250.98C1225.82 1253.29 1232.54 1252.9 1238.61 1252.9C1251.36 1252.9 1263.09 1251.77 1275.76 1254.18C1279.28 1254.85 1284.41 1257.86 1287.92 1256.1" fill="none" fill-rule="evenodd" opacity="1" stroke="#2222a6" stroke-linecap="round" stroke-linejoin="round" stroke-width="5"/>
<path d="M1176.44 1295.59C1178.22 1294.2 1187.23 1287.33 1189.73 1287.09C1193.89 1286.68 1199.72 1288.79 1203.76 1289.29C1212.56 1290.39 1219.86 1292.48 1228.33 1295.01C1240.88 1298.75 1254.1 1300.99 1267.12 1302.37C1277.28 1303.45 1287.01 1301.14 1297.22 1302.54C1300.17 1302.94 1303.13 1303.31 1306.09 1303.64C1307.26 1303.77 1308.44 1303.94 1309.6 1304.19C1310.17 1304.31 1311.7 1304.36 1311.26 1304.74C1307.11 1308.3 1296.39 1305.99 1291.87 1305.68C1287.67 1305.39 1283.5 1304.79 1279.31 1304.58C1258.85 1303.53 1239.17 1302.45 1218.91 1299.26C1213.78 1298.45 1208.59 1297.89 1203.4 1297.79C1201.74 1297.76 1198.94 1296.4 1198.41 1297.98C1197.8 1299.83 1201.89 1299.85 1203.77 1300.38C1209.14 1301.88 1214.82 1302.31 1220.39 1302.21C1242.97 1301.8 1265.09 1296.05 1287.43 1293.12C1292.21 1292.5 1297.42 1292.17 1302.2 1291.27C1307.14 1290.34 1312.05 1288.74 1317.16 1288.86C1323.47 1289 1329.81 1289.17 1336.18 1289.03C1341.67 1288.91 1346.9 1287.76 1352.43 1288.28C1363.07 1289.29 1372.74 1295.6 1382.91 1298.42C1388.93 1300.1 1394.97 1300.04 1401.01 1301.37C1408.41 1302.99 1415.69 1305.4 1423.18 1306.89C1425.89 1307.44 1428.69 1307.5 1431.3 1308.37" fill="none" fill-rule="evenodd" opacity="1" stroke="#2222a6" stroke-linecap="round" stroke-linejoin="round" stroke-width="5"/>
<path d="M1299.62 1304.57C1301.77 1302.41 1307.43 1303.64 1310.52 1303.27C1317.41 1302.45 1323.95 1300.46 1330.83 1299.56C1356.39 1296.21 1383.61 1294.06 1409.14 1299.15C1419.24 1301.16 1426.13 1303.8 1437.21 1301.72C1438.13 1301.54 1444.25 1300.9 1444.59 1299.86C1444.72 1299.49 1443.87 1299.53 1443.49 1299.5C1440.68 1299.28 1439.37 1299.61 1436.65 1299.68C1431.76 1299.82 1426.68 1298.69 1421.88 1297.85C1404.48 1294.79 1387.77 1290.37 1370.16 1288.64C1366.17 1288.25 1362.17 1287.64 1358.16 1287.73C1356.67 1287.76 1354.39 1289.42 1353.72 1288.1C1353.53 1287.71 1354.34 1287.48 1354.65 1287.17" fill="none" fill-rule="evenodd" opacity="1" stroke="#2222a6" stroke-linecap="round" stroke-linejoin="round" stroke-width="5"/>
<path d="M1290.25 1252.18C1300.64 1243.3 1312.92 1243.48 1325.6 1240.54C1344.04 1236.25 1362.02 1236.98 1380.84 1235.8C1397.73 1234.73 1414.55 1232.73 1431.39 1231.35C1448.32 1229.96 1465.56 1226.97 1482.59 1227.18C1499.23 1227.39 1515.99 1229.52 1532.61 1229.36C1554.58 1229.15 1577.07 1228.44 1598.99 1227.06C1605.55 1226.64 1612.08 1225.62 1618.66 1225.5C1632.28 1225.26 1645.89 1226.53 1659.49 1226.07C1673.87 1225.58 1688.3 1224.59 1702.7 1224.6C1709.5 1224.6 1716.31 1225.21 1723.11 1224.88C1733.42 1224.38 1743.69 1222.64 1753.99 1221.99C1771.31 1220.9 1788.55 1220.04 1805.93 1219.66C1815.64 1219.44 1825.49 1219.86 1834.98 1217.51" fill="none" fill-rule="evenodd" opacity="1" stroke="#2222a6" stroke-linecap="round" stroke-linejoin="round" stroke-width="5"/>
<path d="M1585.53 1152.91C1593.58 1149.65 1604.1 1150.49 1612.64 1149.95C1628.73 1148.93 1644.7 1148.77 1660.91 1149.1C1678.78 1149.46 1696.14 1151.44 1713.89 1153.29C1730.75 1155.05 1747.56 1155.55 1764.39 1157.95C1782.36 1160.52 1800.27 1164.41 1818.48 1164.89C1835.24 1165.33 1851.83 1162.79 1868.49 1161.74" fill="none" fill-rule="evenodd" opacity="1" stroke="#2222a6" stroke-linecap="round" stroke-linejoin="round" stroke-width="5"/>
<path d="M1708.99 1244.75C1709.05 1243.54 1709.44 1239.9 1709.39 1241.12C1709.29 1243.33 1708.98 1245.53 1708.86 1247.74C1708.84 1248.26 1708.94 1249.83 1708.96 1249.3C1709.02 1247.79 1708.91 1246.27 1708.99 1244.75Z" fill="none" fill-rule="evenodd" opacity="1" stroke="#2222a6" stroke-linecap="round" stroke-linejoin="round" stroke-width="5"/>
<path d="M1721.87 1235C1722.5 1233.18 1722.61 1231.21 1722.76 1229.29C1722.78 1229.1 1720.21 1239.79 1721.87 1235Z" fill="none" fill-rule="evenodd" opacity="1" stroke="#2222a6" stroke-linecap="round" stroke-linejoin="round" stroke-width="5"/>
<path d="M1737.48 1208.91C1737.66 1211.86 1737.1 1214.81 1736.78 1217.74" fill="none" fill-rule="evenodd" opacity="1" stroke="#2222a6" stroke-linecap="round" stroke-linejoin="round" stroke-width="5"/>
<path d="M1751.87 1198.28C1752.43 1200.54 1752.99 1202.81 1753.55 1205.07" fill="none" fill-rule="evenodd" opacity="1" stroke="#2222a6" stroke-linecap="round" stroke-linejoin="round" stroke-width="5"/>
<path d="M1765.83 1195.83C1767.15 1199.06 1766.89 1197.59 1767.05 1200.14" fill="none" fill-rule="evenodd" opacity="1" stroke="#2222a6" stroke-linecap="round" stroke-linejoin="round" stroke-width="5"/>
<path d="M1659.23 1251.81C1659.28 1254.77 1659.68 1257.92 1658.53 1260.64" fill="none" fill-rule="evenodd" opacity="1" stroke="#2222a6" stroke-linecap="round" stroke-linejoin="round" stroke-width="5"/>
<path d="M1509.41 1254.52C1509.62 1253.6 1510.36 1250.88 1510.18 1251.8C1509.69 1254.36 1509.18 1256.93 1508.47 1259.44C1508.01 1261.05 1509.05 1256.15 1509.41 1254.52Z" fill="none" fill-rule="evenodd" opacity="1" stroke="#2222a6" stroke-linecap="round" stroke-linejoin="round" stroke-width="5"/>
<path d="M1464.84 1249.33C1464.95 1248.37 1465.36 1245.51 1465.29 1246.47C1465.1 1248.9 1464.87 1251.33 1464.49 1253.74C1464.26 1255.2 1464.68 1250.79 1464.84 1249.33Z" fill="none" fill-rule="evenodd" opacity="1" stroke="#2222a6" stroke-linecap="round" stroke-linejoin="round" stroke-width="5"/>
<path d="M1477.67 1238.79C1478.18 1241.46 1478.49 1244.17 1478.81 1246.88" fill="none" fill-rule="evenodd" opacity="1" stroke="#2222a6" stroke-linecap="round" stroke-linejoin="round" stroke-width="5"/>
<path d="M1475.65 1206.75C1475.62 1205.54 1475.89 1201.91 1476.05 1203.12C1476.41 1205.92 1476.57 1208.78 1476.27 1211.58C1476.09 1213.19 1475.69 1208.37 1475.65 1206.75Z" fill="none" fill-rule="evenodd" opacity="1" stroke="#2222a6" stroke-linecap="round" stroke-linejoin="round" stroke-width="5"/>
<path d="M1473.32 1189.8C1472.89 1193.31 1471.9 1196.77 1470.52 1200.02" fill="none" fill-rule="evenodd" opacity="1" stroke="#2222a6" stroke-linecap="round" stroke-linejoin="round" stroke-width="5"/>
<path d="M1450.48 1200.65C1450.63 1203.16 1450.52 1205.69 1450.32 1208.19" fill="none" fill-rule="evenodd" opacity="1" stroke="#2222a6" stroke-linecap="round" stroke-linejoin="round" stroke-width="5"/>
<path d="M1425.57 1203.79C1425.82 1205.55 1426.29 1207.49 1425.59 1209.13" fill="none" fill-rule="evenodd" opacity="1" stroke="#2222a6" stroke-linecap="round" stroke-linejoin="round" stroke-width="5"/>
<path d="M1318.52 1133.36C1318.55 1139.29 1318.97 1144 1318.32 1150" fill="none" fill-rule="evenodd" opacity="1" stroke="#2222a6" stroke-linecap="round" stroke-linejoin="round" stroke-width="5"/>
<path d="M1321.5 1140.7C1323.13 1146.52 1323.49 1152.42 1323.87 1158.43" fill="none" fill-rule="evenodd" opacity="1" stroke="#2222a6" stroke-linecap="round" stroke-linejoin="round" stroke-width="5"/>
<path d="M1356.17 1153.1C1356.16 1150.85 1355.64 1148.48 1356.37 1146.34C1356.91 1144.75 1357.57 1149.64 1357.31 1151.3C1357.01 1153.21 1357.44 1155.38 1356.41 1157.01C1355.71 1158.11 1356.17 1154.41 1356.17 1153.1Z" fill="none" fill-rule="evenodd" opacity="1" stroke="#2222a6" stroke-linecap="round" stroke-linejoin="round" stroke-width="5"/>
<path d="M1368.63 1176.63C1368.67 1177.16 1368.7 1177.68 1368.73 1178.2" fill="none" fill-rule="evenodd" opacity="1" stroke="#2222a6" stroke-linecap="round" stroke-linejoin="round" stroke-width="5"/>
<path d="M1333.41 1175.4C1333.79 1174.52 1334.5 1171.83 1333.86 1172.55C1332.78 1173.78 1332.2 1175.45 1331.95 1177.07C1331.83 1177.79 1333.12 1176.08 1333.41 1175.4Z" fill="none" fill-rule="evenodd" opacity="1" stroke="#2222a6" stroke-linecap="round" stroke-linejoin="round" stroke-width="5"/>
<path d="M1290 1193.52C1289.82 1193.95 1289.63 1194.38 1289.45 1194.81" fill="none" fill-rule="evenodd" opacity="1" stroke="#2222a6" stroke-linecap="round" stroke-linejoin="round" stroke-width="5"/>
<path d="M1152.25 1168.63C1171.71 1160.75 1191.65 1164.75 1212 1165.8C1223.69 1166.41 1235.28 1166.36 1246.95 1167.68C1265.5 1169.78 1284.04 1172.7 1302.61 1174.52C1314.84 1175.72 1327.17 1175.02 1339.39 1175.65C1347.94 1176.1 1356.41 1177.66 1364.96 1178.12C1390.91 1179.53 1414.6 1174.4 1439.67 1168.7C1445.69 1167.34 1451.89 1166.71 1458.06 1166.6C1460.49 1166.56 1464.41 1165.14 1465.32 1167.4C1466.15 1169.44 1462.02 1170.55 1459.91 1171.19C1452.93 1173.31 1445.41 1174.55 1438.23 1175.7C1411.24 1180 1384.07 1182.25 1357 1186.15C1346.34 1187.69 1335.62 1188.79 1324.92 1190.06C1305.25 1192.4 1285.59 1196.3 1265.74 1196.93C1240.94 1197.72 1216.14 1196.17 1191.35 1196.6C1183.15 1196.74 1174.72 1197.11 1166.72 1199.1C1160.8 1200.56 1154.95 1202.61 1148.71 1202.11" fill="none" fill-rule="evenodd" opacity="1" stroke="#2222a6" stroke-linecap="round" stroke-linejoin="round" stroke-width="5"/>
<path d="M1426.11 1310.6C1433.42 1306.95 1443.57 1310.47 1451.57 1308.87C1456.94 1307.79 1462.17 1305.74 1467.54 1304.54C1471.86 1303.58 1476.1 1303.71 1480.4 1302.64C1488.87 1300.54 1497.3 1298.09 1505.77 1295.98C1516.19 1293.4 1526.46 1289.37 1537.01 1287.25C1540.83 1286.49 1544.77 1286.28 1548.49 1285.18C1562.01 1281.16 1575.26 1276.15 1588.71 1271.95C1600.52 1268.26 1612.92 1266.37 1624.87 1263.13C1637.27 1259.78 1649.81 1255.94 1662.5 1253.8C1706.29 1246.39 1750.16 1246.11 1794.3 1242.87C1804.73 1242.1 1814.22 1238.74 1824.42 1237.5" fill="none" fill-rule="evenodd" opacity="1" stroke="#2222a6" stroke-linecap="round" stroke-linejoin="round" stroke-width="5"/>
<path d="M1827.49 1238.23C1827.13 1238.33 1826.06 1238.55 1826.41 1238.45C1827.61 1238.1 1828.81 1237.75 1830.03 1237.5C1830.9 1237.33 1828.34 1238.01 1827.49 1238.23Z" fill="none" fill-rule="evenodd" opacity="1" stroke="#2222a6" stroke-linecap="round" stroke-linejoin="round" stroke-width="5"/>
<path d="M1987.55 1211.54C1986.17 1211.37 1984.65 1210.4 1983.4 1211.02C1982.94 1211.26 1982.15 1211.98 1982.54 1212.32C1984.72 1214.2 1994.79 1210.28 1996.87 1209.9C1999.25 1209.46 2001.63 1208.95 2004.03 1208.69C2016.36 1207.33 2029.32 1208.23 2041.49 1206.34C2045.21 1205.76 2048.56 1204.63 2052.28 1204.18" fill="none" fill-rule="evenodd" opacity="1" stroke="#2222a6" stroke-linecap="round" stroke-linejoin="round" stroke-width="5"/>
<path d="M1851.03 1692.07C1849.39 1693.24 1847.76 1694.41 1846.12 1695.58" fill="#ffef89" fill-rule="evenodd" opacity="1" stroke="#2222a6" stroke-linecap="round" stroke-linejoin="round" stroke-width="3.3284"/>
<path d="M1914.81 1644.41C1914.07 1647.37 1914.11 1650.48 1914.11 1653.52" fill="#ffef89" fill-rule="evenodd" opacity="1" stroke="#2222a6" stroke-linecap="round" stroke-linejoin="round" stroke-width="3.3284"/>
<path d="M1930.93 1628.99C1930.93 1632.04 1930.73 1635.1 1930.23 1638.1" fill="#ffef89" fill-rule="evenodd" opacity="1" stroke="#2222a6" stroke-linecap="round" stroke-linejoin="round" stroke-width="3.3284"/>
<path d="M2007.33 1459.37C2007.33 1466.86 2006.63 1474.31 2006.63 1481.8" fill="#ffef89" fill-rule="evenodd" opacity="1" stroke="#2222a6" stroke-linecap="round" stroke-linejoin="round" stroke-width="3.3284"/>
<path d="M2017.14 1441.85C2015.11 1445.91 2016.44 1451.35 2016.44 1455.87" fill="#ffef89" fill-rule="evenodd" opacity="1" stroke="#2222a6" stroke-linecap="round" stroke-linejoin="round" stroke-width="3.3284"/>
<path d="M2041.67 1461.48C2041.67 1464.05 2041.67 1466.62 2041.67 1469.19" fill="#ffef89" fill-rule="evenodd" opacity="1" stroke="#2222a6" stroke-linecap="round" stroke-linejoin="round" stroke-width="3.3284"/>
<path d="M2127.88 1534.37L2126.48 1536.47L2126.48 1539.28L2126.48 1542.08L2126.48 1542.08" fill="#ffef89" fill-rule="evenodd" opacity="1" stroke="#2222a6" stroke-linecap="round" stroke-linejoin="round" stroke-width="3.3284"/>
<path d="M2153.82 1579.23C2153.82 1583.67 2153.82 1588.11 2153.82 1592.54" fill="#ffef89" fill-rule="evenodd" opacity="1" stroke="#2222a6" stroke-linecap="round" stroke-linejoin="round" stroke-width="3.3284"/>
<path d="M2139.1 1795.1C2139.1 1793.7 2139.1 1790.9 2139.1 1790.9L2139.1 1798.61C2139.1 1798.61 2139.1 1796.27 2139.1 1795.1Z" fill="#ffef89" fill-rule="evenodd" opacity="1" stroke="#2222a6" stroke-linecap="round" stroke-linejoin="round" stroke-width="3.3284"/>
<path d="M2151.71 1801.41C2151.71 1802.35 2151.71 1803.28 2151.71 1804.22" fill="#ffef89" fill-rule="evenodd" opacity="1" stroke="#2222a6" stroke-linecap="round" stroke-linejoin="round" stroke-width="3.3284"/>
<path d="M2149.61 1784.59C2149.61 1785.52 2149.61 1786.46 2149.61 1787.39" fill="#ffef89" fill-rule="evenodd" opacity="1" stroke="#2222a6" stroke-linecap="round" stroke-linejoin="round" stroke-width="3.3284"/>
<path d="M2201.48 1779.68C2201.18 1782.95 2200.78 1786.22 2200.78 1789.5" fill="#ffef89" fill-rule="evenodd" opacity="1" stroke="#2222a6" stroke-linecap="round" stroke-linejoin="round" stroke-width="3.3284"/>
<path d="M1396.85 1817.53C1396.85 1825.48 1396.85 1833.42 1396.85 1841.36" fill="#ffef89" fill-rule="evenodd" opacity="1" stroke="#2222a6" stroke-linecap="round" stroke-linejoin="round" stroke-width="3.3284"/>
<path d="M1403.86 1816.13C1403.86 1820.8 1403.86 1825.48 1403.86 1830.15" fill="#ffef89" fill-rule="evenodd" opacity="1" stroke="#2222a6" stroke-linecap="round" stroke-linejoin="round" stroke-width="3.3284"/>
<path d="M1414.37 1813.33C1412.95 1819.72 1413.08 1825.79 1412.27 1832.25" fill="#ffef89" fill-rule="evenodd" opacity="1" stroke="#2222a6" stroke-linecap="round" stroke-linejoin="round" stroke-width="3.3284"/>
<path d="M1508.29 1667.54C1508.29 1674.5 1508.61 1680.7 1508.99 1687.87" fill="#ffef89" fill-rule="evenodd" opacity="1" stroke="#2222a6" stroke-linecap="round" stroke-linejoin="round" stroke-width="3.3284"/>
<path d="M1533.52 1678.75C1533.52 1684.83 1533.52 1690.9 1533.52 1696.98" fill="#ffef89" fill-rule="evenodd" opacity="1" stroke="#2222a6" stroke-linecap="round" stroke-linejoin="round" stroke-width="3.3284"/>
<path d="M1636.56 1564.51C1635.72 1570.37 1635.85 1576.12 1635.85 1582.03" fill="#ffef89" fill-rule="evenodd" opacity="1" stroke="#2222a6" stroke-linecap="round" stroke-linejoin="round" stroke-width="3.3284"/>
<path d="M1691.23 1525.96C1690.79 1529.91 1690.52 1533.9 1690.52 1537.87" fill="#ffef89" fill-rule="evenodd" opacity="1" stroke="#2222a6" stroke-linecap="round" stroke-linejoin="round" stroke-width="3.3284"/>
<path d="M1667.39 1507.04L1667.39 1509.84L1667.39 1511.24L1667.39 1513.34L1667.39 1513.34" fill="#ffef89" fill-rule="evenodd" opacity="1" stroke="#2222a6" stroke-linecap="round" stroke-linejoin="round" stroke-width="3.3284"/>
<path d="M1656.18 1471.99C1656.18 1473.86 1656.18 1475.73 1656.18 1477.6" fill="#ffef89" fill-rule="evenodd" opacity="1" stroke="#2222a6" stroke-linecap="round" stroke-linejoin="round" stroke-width="3.3284"/>
<path d="M1649.87 1444.66C1650.11 1446.52 1650.34 1448.39 1650.57 1450.26" fill="#ffef89" fill-rule="evenodd" opacity="1" stroke="#2222a6" stroke-linecap="round" stroke-linejoin="round" stroke-width="3.3284"/>
<path d="M1881.87 1432.74C1881.87 1434.14 1881.87 1435.54 1881.87 1436.95" fill="#ffef89" fill-rule="evenodd" opacity="1" stroke="#2222a6" stroke-linecap="round" stroke-linejoin="round" stroke-width="3.3284"/>
<path d="M1862.94 1398.4C1862.22 1406.32 1861.89 1414.28 1861.54 1422.23" fill="#ffef89" fill-rule="evenodd" opacity="1" stroke="#2222a6" stroke-linecap="round" stroke-linejoin="round" stroke-width="3.3284"/>
<path d="M1189.63 1530.1C1190.25 1530.34 1191.47 1530.16 1191.49 1530.83C1191.65 1535.68 1190.86 1540.53 1190.12 1545.32C1189.91 1546.64 1189.15 1547.8 1188.66 1549.05" fill="#ffef89" fill-rule="evenodd" opacity="1" stroke="#2222a6" stroke-linecap="round" stroke-linejoin="round" stroke-width="3.3284"/>
<path d="M1201.21 1538.92C1201.48 1541.89 1201.75 1544.86 1202.02 1547.83" fill="#ffef89" fill-rule="evenodd" opacity="1" stroke="#2222a6" stroke-linecap="round" stroke-linejoin="round" stroke-width="3.3284"/>
<path d="M1229.38 1493.26C1229.14 1493.88 1228.9 1494.5 1228.65 1495.12" fill="#ffef89" fill-rule="evenodd" opacity="1" stroke="#2222a6" stroke-linecap="round" stroke-linejoin="round" stroke-width="3.3284"/>
<path d="M1262.66 1493.82C1262.28 1498.91 1262.25 1504.02 1262.25 1509.13" fill="#ffef89" fill-rule="evenodd" opacity="1" stroke="#2222a6" stroke-linecap="round" stroke-linejoin="round" stroke-width="3.3284"/>
<path d="M1409.69 1629.51C1409.66 1633.14 1410.21 1636.98 1408.89 1640.36" fill="#ffef89" fill-rule="evenodd" opacity="1" stroke="#2222a6" stroke-linecap="round" stroke-linejoin="round" stroke-width="3.3284"/>
<path d="M1377.23 1667.48C1376.63 1673.12 1377.37 1678.84 1377.88 1684.49" fill="#ffef89" fill-rule="evenodd" opacity="1" stroke="#2222a6" stroke-linecap="round" stroke-linejoin="round" stroke-width="3.3284"/>
<path d="M1196.04 1847.4C1195.6 1853.39 1195.34 1859.35 1195.88 1865.37" fill="#ffef89" fill-rule="evenodd" opacity="1" stroke="#2222a6" stroke-linecap="round" stroke-linejoin="round" stroke-width="3.3284"/>
<path d="M1209.57 1867.72C1209.67 1868.9 1209.78 1870.09 1209.89 1871.28" fill="#ffef89" fill-rule="evenodd" opacity="1" stroke="#2222a6" stroke-linecap="round" stroke-linejoin="round" stroke-width="3.3284"/>
<path d="M1149.66 1949.49L1148.04 1951.44L1146.34 1952.49L1144.48 1951.76L1144.48 1951.76" fill="#ffef89" fill-rule="evenodd" opacity="1" stroke="#2222a6" stroke-linecap="round" stroke-linejoin="round" stroke-width="3.3284"/>
<path d="M1207.54 1766.43C1206.32 1775.34 1206.48 1784.44 1207.3 1793.39" fill="#ffef89" fill-rule="evenodd" opacity="1" stroke="#2222a6" stroke-linecap="round" stroke-linejoin="round" stroke-width="3.3284"/>
<path d="M1185.92 1834.85C1185.29 1838.19 1184.67 1841.53 1184.14 1844.89" fill="#ffef89" fill-rule="evenodd" opacity="1" stroke="#2222a6" stroke-linecap="round" stroke-linejoin="round" stroke-width="3.3284"/>
<path d="M1159.78 1892.9C1160.6 1901.91 1161.6 1911.08 1159.53 1919.86" fill="#ffef89" fill-rule="evenodd" opacity="1" stroke="#2222a6" stroke-linecap="round" stroke-linejoin="round" stroke-width="3.3284"/>
<path d="M1148.44 1906.5C1149.16 1914.4 1149.55 1922.68 1149.74 1930.63C1149.85 1935.16 1148.76 1939.64 1149.17 1944.15" fill="#ffef89" fill-rule="evenodd" opacity="1" stroke="#2222a6" stroke-linecap="round" stroke-linejoin="round" stroke-width="3.3284"/>
<path d="M1150.79 1942.21C1150.95 1943.99 1151.12 1945.77 1151.28 1947.55" fill="#ffef89" fill-rule="evenodd" opacity="1" stroke="#2222a6" stroke-linecap="round" stroke-linejoin="round" stroke-width="3.3284"/>
<path d="M1490.39 1944.09C1490.3 1943.01 1489.32 1939.97 1489.22 1941.05C1488.98 1943.73 1488.98 1946.57 1489.95 1949.07C1490.55 1950.62 1490.54 1945.75 1490.39 1944.09Z" fill="#ffef89" fill-rule="evenodd" opacity="1" stroke="#2222a6" stroke-linecap="round" stroke-linejoin="round" stroke-width="3.3284"/>
<path d="M1523.55 1933.44C1523.79 1936.11 1524.03 1938.78 1524.28 1941.46" fill="#ffef89" fill-rule="evenodd" opacity="1" stroke="#2222a6" stroke-linecap="round" stroke-linejoin="round" stroke-width="3.3284"/>
<path d="M1795.98 1818.86C1795.28 1823.37 1794.76 1827.91 1794.53 1832.46" fill="#ffef89" fill-rule="evenodd" opacity="1" stroke="#2222a6" stroke-linecap="round" stroke-linejoin="round" stroke-width="3.3284"/>
<path d="M1774.53 1829.79C1774.42 1831.9 1774.31 1834 1774.2 1836.11" fill="#ffef89" fill-rule="evenodd" opacity="1" stroke="#2222a6" stroke-linecap="round" stroke-linejoin="round" stroke-width="3.3284"/>
<path d="M1784.61 1827.08C1785.44 1826.72 1784.4 1825.22 1783.92 1824.45C1783.44 1823.68 1783.77 1827.44 1784.61 1827.08Z" fill="#ffef89" fill-rule="evenodd" opacity="1" stroke="#2222a6" stroke-linecap="round" stroke-linejoin="round" stroke-width="3.3284"/>
<path d="M1877.67 1788.98C1876.99 1798.15 1875.98 1807.3 1873.87 1816.27" fill="#ffef89" fill-rule="evenodd" opacity="1" stroke="#2222a6" stroke-linecap="round" stroke-linejoin="round" stroke-width="3.3284"/>
<path d="M1982.2 1881.84C1982.88 1889.28 1982.66 1896.75 1983.34 1904.19" fill="#ffef89" fill-rule="evenodd" opacity="1" stroke="#2222a6" stroke-linecap="round" stroke-linejoin="round" stroke-width="3.3284"/>
<path d="M2008.4 1898.31C2008.87 1896.53 2010.21 1891.28 2009.25 1892.85C2007.91 1895.02 2007.87 1897.75 2007.22 1900.22C2006.98 1901.13 2006.08 1903.77 2006.57 1902.97C2007.45 1901.55 2007.97 1899.93 2008.4 1898.31Z" fill="#ffef89" fill-rule="evenodd" opacity="1" stroke="#2222a6" stroke-linecap="round" stroke-linejoin="round" stroke-width="3.3284"/>
<path d="M1996.94 1876.01C1994.47 1882.32 1993.49 1887.5 1994.11 1894.23" fill="#ffef89" fill-rule="evenodd" opacity="1" stroke="#2222a6" stroke-linecap="round" stroke-linejoin="round" stroke-width="3.3284"/>
<path d="M1943.74 1873.67C1943.28 1882.73 1942.53 1891.75 1941.72 1900.79" fill="#ffef89" fill-rule="evenodd" opacity="1" stroke="#2222a6" stroke-linecap="round" stroke-linejoin="round" stroke-width="3.3284"/>
<path d="M1874.77 1924.84C1873.77 1928.18 1872.89 1931.56 1872.1 1934.96" fill="#ffef89" fill-rule="evenodd" opacity="1" stroke="#2222a6" stroke-linecap="round" stroke-linejoin="round" stroke-width="3.3284"/>
<path d="M2150.85 1919.48C2150.61 1922.76 2150.55 1926.08 2150.85 1929.36" fill="#ffef89" fill-rule="evenodd" opacity="1" stroke="#2222a6" stroke-linecap="round" stroke-linejoin="round" stroke-width="3.3284"/>
<path d="M2182.91 1916.56C2181.59 1919.94 2181.78 1923.8 2182.1 1927.41" fill="#ffef89" fill-rule="evenodd" opacity="1" stroke="#2222a6" stroke-linecap="round" stroke-linejoin="round" stroke-width="3.3284"/>
<path d="M2182.9 1391.46C2182.9 1398.56 2183.78 1405.63 2184.42 1412.7" fill="#ffef89" fill-rule="evenodd" opacity="1" stroke="#2222a6" stroke-linecap="round" stroke-linejoin="round" stroke-width="3.3284"/>
<path d="M2196.56 1392.98C2196.56 1398.54 2196.56 1404.1 2196.56 1409.67" fill="#ffef89" fill-rule="evenodd" opacity="1" stroke="#2222a6" stroke-linecap="round" stroke-linejoin="round" stroke-width="3.3284"/>
<path d="M2179.87 1315.59C2179.87 1327.22 2179.87 1338.86 2179.87 1350.49" fill="#ffef89" fill-rule="evenodd" opacity="1" stroke="#2222a6" stroke-linecap="round" stroke-linejoin="round" stroke-width="3.3284"/>
</g>
<g id="Layer-2" vectornator:layerName="Layer 2">
<path d="M1615.74 818.458C1618.87 796.148 1609.51 772.913 1608.76 750.426C1608.05 729.124 1611.54 708.784 1612.25 687.626C1612.57 678.013 1611.62 673.967 1613.12 664.949C1614.4 657.295 1616.78 650.042 1617.48 642.271C1618.7 628.886 1616.59 614.476 1619.23 601.278C1619.35 600.658 1620.3 593.07 1621.84 592.555C1622.89 592.208 1630.83 600.883 1632.31 602.15C1637.92 606.96 1645.71 611.813 1653.24 610.872C1667.63 609.074 1679.89 599.664 1693.37 595.172C1695.72 594.387 1697.86 592.555 1700.34 592.555C1705.93 592.555 1707.74 597.779 1711.68 600.405C1713.96 601.922 1718.71 604.034 1721.28 604.766C1728.17 606.737 1731.67 599.738 1736.1 596.044C1739.63 593.108 1743.91 591.362 1748.32 590.811C1758.68 589.515 1763.94 599.439 1773.61 600.405C1782.23 601.268 1791.47 595.399 1798.9 591.683C1800.97 590.648 1805.57 589.271 1807.63 590.811C1811.71 593.876 1810.84 604.434 1811.11 608.255C1812.11 622.184 1812.86 636.112 1812.86 650.121C1812.86 697.748 1810.22 745.61 1812.86 793.164C1813.5 804.793 1813.73 816.344 1813.73 828.052C1813.73 832.457 1814.65 837.822 1812.86 842.008C1811.49 845.193 1811.03 844.346 1808.5 846.369C1800.03 853.144 1787.72 853.734 1780.59 843.752C1778.59 840.961 1773.64 829.335 1768.38 833.286C1763.63 836.847 1755.14 858.069 1747.44 854.219C1742.09 851.542 1741.7 834.334 1734.36 833.286C1728.34 832.425 1722.65 838.892 1718.66 842.88C1712.35 849.191 1705.97 854.078 1696.85 855.091C1687.89 856.087 1678.23 854.778 1671.56 848.113C1669.59 846.144 1665.06 835.346 1662.84 835.902C1658.31 837.036 1658.46 853.133 1650.63 855.091C1646.97 856.005 1641.02 843.224 1637.54 841.136C1635.95 840.181 1629.77 839.353 1627.95 840.263C1626.79 840.845 1625.94 845.213 1623.59 844.624C1621.29 844.051 1621.99 841.624 1620.97 840.263C1620.1 839.1 1618.36 838.81 1617.48 837.647C1615.48 834.976 1615.29 821.641 1615.74 818.458Z" fill="#ecece4" fill-opacity="0.817568" fill-rule="evenodd" opacity="1" stroke="#2222a6" stroke-linecap="round" stroke-linejoin="round" stroke-width="5"/>
</g>
</svg>
