<?xml version="1.0" encoding="UTF-8" standalone="no"?> <!-- Created with Vectornator (http://vectornator.io/) --><!DOCTYPE svg PUBLIC "-//W3C//DTD SVG 1.1//EN" "http://www.w3.org/Graphics/SVG/1.1/DTD/svg11.dtd">
<svg height="100%" stroke-miterlimit="10" style="fill-rule:nonzero;clip-rule:evenodd;stroke-linecap:round;stroke-linejoin:round;" version="1.1" viewBox="0 0 3370.82 2384.24" width="100%" xml:space="preserve" xmlns="http://www.w3.org/2000/svg" xmlns:vectornator="http://vectornator.io" xmlns:xlink="http://www.w3.org/1999/xlink">
<defs/>
<g id="Layer-1" vectornator:layerName="Layer 1">
<path d="M848.766 745L1835.46 745L1835.46 2045.43L848.766 2045.43L848.766 745Z" fill="#dcf8e9" fill-rule="evenodd" opacity="1" stroke="#2222a6" stroke-linecap="round" stroke-linejoin="round" stroke-width="5"/>
<path d="M2052.2 264.537L3038.89 264.537L3038.89 1564.97L2052.2 1564.97L2052.2 264.537Z" fill="#fffbd0" fill-rule="evenodd" opacity="1" stroke="#2222a6" stroke-linecap="round" stroke-linejoin="round" stroke-width="5"/>
<path d="M926.065 825.329L1746.03 825.329L1746.03 1805.96L926.065 1805.96L926.065 825.329Z" fill="#dce0f8" fill-rule="evenodd" opacity="1" stroke="#2222a6" stroke-linecap="round" stroke-linejoin="round" stroke-width="5"/>
<path d="M2129.49 344.867L2949.46 344.867L2949.46 1325.5L2129.49 1325.5L2129.49 344.867Z" fill="#ffee8d" fill-rule="evenodd" opacity="1" stroke="#2222a6" stroke-linecap="round" stroke-linejoin="round" stroke-width="5"/>
<path d="M1991.57 1525.56L1993.09 1525.56L1993.09 1527.08L1991.57 1527.08L1991.57 1525.56Z" fill="none" fill-rule="evenodd" opacity="1" stroke="#2222a6" stroke-linecap="round" stroke-linejoin="round" stroke-width="5"/>
<path d="M1248.99 891.895C1252.9 869.732 1250.51 846.17 1250 823.801C1249.59 805.972 1252.14 788.379 1253.22 770.632C1253.8 760.951 1253.12 751.234 1253.07 741.535C1252.99 727.101 1255.74 713.37 1257.89 699.221C1260.06 685.008 1263.03 672.109 1268.55 658.818C1269.95 655.447 1270.33 651.535 1272.57 648.516C1273.93 646.68 1276.03 645.477 1277.4 643.641C1279.14 641.29 1279.83 638.197 1281.82 636.053C1297.89 618.773 1305.98 648.245 1311.62 659.373C1313.24 662.582 1316.15 668.408 1321.17 667.665C1325.94 666.958 1327.63 658.199 1330.41 655.202C1337.95 647.1 1346.57 641.12 1356.9 637.414C1371.33 632.236 1375.84 660.098 1391.87 648.873C1394.52 647.019 1395.53 643.525 1397.65 641.084C1402.3 635.734 1407.64 631.138 1413.69 627.617C1414.57 627.102 1415.19 625.68 1416.2 625.858C1418.45 626.256 1420.82 627.328 1422.23 629.125C1423.36 630.563 1422.54 632.791 1423.03 634.552C1424.66 640.416 1429.57 651.663 1437.45 647.669C1440.07 646.347 1441.26 643.201 1443.44 641.237C1449.35 635.89 1454.38 629.819 1460.42 624.855C1462.48 623.163 1463.95 619.519 1466.6 619.78C1471.64 620.274 1471.31 632.862 1471.73 635.66C1473.75 649.318 1474.57 663.121 1473.69 676.969C1473.26 683.613 1471.41 690.12 1471.07 696.769C1468.73 743.32 1467.02 789.941 1464.03 836.475C1462.3 863.495 1464.38 891.167 1458.05 917.786C1457.24 921.157 1456.96 925.381 1452.07 924.218C1449.55 923.619 1448.07 920.897 1445.83 919.594C1436.34 914.058 1416.47 900.43 1405.03 906.225C1398.49 909.536 1398.8 924.387 1398.95 930.698C1399 932.994 1400.87 938.757 1398.59 937.683C1394.22 935.619 1392.84 925.974 1390.76 922.205C1385.37 912.474 1376.6 909.302 1365.88 913.409C1354.32 917.835 1344.52 928.076 1339.04 938.183C1337.66 940.74 1334.11 943.726 1331.1 940.745C1326.32 936.007 1323.57 923.344 1322.06 917.126C1321.42 914.503 1321.26 904.55 1317.13 902.602C1313.46 900.866 1309.88 911.969 1309.04 913.507C1304.91 921.134 1302.57 933.878 1292.86 935.316C1291.96 935.45 1290.88 936.263 1290.15 935.718C1285.4 932.199 1287.09 927.251 1280.4 926.069C1273.38 924.83 1270.83 937.54 1263.56 934.109C1262.64 933.672 1262.78 931.914 1261.8 931.596C1256.55 929.873 1259.17 934.471 1254.82 931.244C1251.9 929.082 1252.32 923.725 1251.85 920.59C1250.5 911.482 1247.39 900.981 1248.99 891.895Z" fill="#fffbe7" fill-opacity="0.734234" fill-rule="evenodd" opacity="1" stroke="#2222a6" stroke-linecap="round" stroke-linejoin="round" stroke-width="5"/>
<path d="M2555.48 191.593C2557.32 191.552 2560.24 189.789 2561 191.468C2562.9 195.654 2561.63 200.643 2561.66 205.238C2561.68 210.349 2561.41 215.46 2561.15 220.565C2560.01 243.286 2560.12 266.159 2558.79 288.86C2558.21 298.713 2556.93 308.514 2556.22 318.359C2555.65 326.324 2555.2 334.306 2554.21 342.23C2552.62 355.059 2545.58 385.525 2554.11 397.71C2556.33 400.888 2560.19 402.546 2563.46 404.645C2565.19 405.764 2569.64 408.379 2572.4 408.867C2589.9 411.955 2608.56 407.581 2626.12 406.458C2641.56 405.47 2657.96 406.985 2673.46 407.766C2676.35 407.912 2679.43 410.581 2682.01 409.275C2683.97 408.282 2685.19 398.079 2685.62 396.259C2688.21 385.389 2687.88 374.946 2689.14 363.845C2694.11 320.275 2687.33 276.489 2686.34 232.532C2686.07 221 2685.91 209.32 2686.74 197.806C2686.98 194.483 2689.68 187.908 2686.29 185.393C2679.17 180.111 2664.34 184.261 2655.63 184.387C2637.39 184.651 2618.26 189.059 2600.15 184.284C2595.98 183.184 2592.39 180.45 2588.29 179.107C2580.58 176.58 2572.39 178.413 2564.62 178.452C2561.18 178.47 2553.93 176.583 2550.85 179.105C2549.03 180.6 2547.52 190.159 2549.95 191.719C2551.5 192.716 2553.63 191.635 2555.48 191.593Z" fill="#b5eeff" fill-opacity="0.252253" fill-rule="evenodd" opacity="1" stroke="#2222a6" stroke-linecap="round" stroke-linejoin="round" stroke-width="5"/>
<path d="M1361.64 1845.15C1361.64 1850.59 1361.64 1856.03 1361.64 1861.47C1361.64 1863.69 1361.64 1865.91 1361.64 1868.13C1361.64 1870.95 1361.64 1873.77 1361.64 1876.59C1361.64 1877.6 1361.64 1879.62 1361.64 1879.62C1361.64 1879.62 1361.64 1875.99 1361.64 1874.17C1361.64 1871.75 1361.64 1869.34 1361.64 1866.92C1361.64 1860.11 1360.5 1851.47 1365.27 1845.75C1368.75 1841.57 1380.31 1835.84 1384.01 1842.73C1389.04 1852.06 1376.95 1862.38 1368.89 1863.89C1366.58 1864.33 1362.85 1864.53 1362.85 1861.47" fill="none" fill-rule="evenodd" opacity="1" stroke="#2222a6" stroke-linecap="round" stroke-linejoin="round" stroke-width="5"/>
<path d="M1404.57 1883.24C1404.57 1876.66 1408.36 1869.84 1409.41 1863.29C1410.29 1857.82 1410.54 1852.16 1412.43 1846.96C1414.14 1842.27 1416 1840.47 1416.67 1840.91C1419.86 1843.04 1419.46 1849.83 1419.69 1853.01C1420.26 1860.93 1420.23 1870.35 1422.72 1877.8" fill="none" fill-rule="evenodd" opacity="1" stroke="#2222a6" stroke-linecap="round" stroke-linejoin="round" stroke-width="5"/>
<path d="M1406.39 1865.71L1408.2 1863.89L1410.02 1862.68L1413.64 1861.47L1413.64 1861.47" fill="none" fill-rule="evenodd" opacity="1" stroke="#2222a6" stroke-linecap="round" stroke-linejoin="round" stroke-width="5"/>
<path d="M1457.19 1882.64C1457.19 1878.61 1457.19 1874.58 1457.19 1870.55C1457.19 1865.51 1456.95 1860.46 1457.19 1855.43C1457.24 1854.2 1457.65 1853.02 1457.79 1851.8C1457.86 1851.2 1457.22 1850.18 1457.79 1849.98C1459.43 1849.44 1460.77 1853.82 1462.02 1856.64C1464.31 1861.79 1467.18 1867.8 1470.49 1872.36C1470.89 1872.91 1474.5 1877.17 1475.93 1874.78C1478.31 1870.81 1475.93 1855.02 1475.93 1850.59C1475.93 1848.35 1475.01 1845.61 1477.14 1844.54" fill="none" fill-rule="evenodd" opacity="1" stroke="#2222a6" stroke-linecap="round" stroke-linejoin="round" stroke-width="5"/>
<path d="M1501.33 1848.17C1507.82 1848.17 1514.25 1847.57 1520.68 1847.57" fill="none" fill-rule="evenodd" opacity="1" stroke="#2222a6" stroke-linecap="round" stroke-linejoin="round" stroke-width="5"/>
<path d="M1516.45 1846.36C1513.93 1847.61 1514.18 1851.06 1514.03 1853.61C1513.56 1861.56 1515.24 1869.41 1515.24 1877.2" fill="none" fill-rule="evenodd" opacity="1" stroke="#2222a6" stroke-linecap="round" stroke-linejoin="round" stroke-width="5"/>
<path d="M1545.78 1852.1C1546.77 1862.97 1543.16 1882.11 1560.59 1879.62C1564.06 1879.12 1566.08 1872.85 1565.43 1869.94C1564.75 1866.89 1564.32 1863.71 1563.01 1860.87C1562.06 1858.78 1560.16 1857.27 1558.78 1855.43C1557.19 1853.31 1555.75 1849.98 1553.34 1848.77C1551.4 1847.8 1549.41 1846.84 1547.29 1846.36C1545.95 1846.05 1543.6 1848.4 1543.66 1849.38C1543.73 1850.53 1545.67 1850.96 1545.78 1852.1Z" fill="none" fill-rule="evenodd" opacity="1" stroke="#2222a6" stroke-linecap="round" stroke-linejoin="round" stroke-width="5"/>
<path d="M1593.86 1878.41C1593.86 1870.48 1594.98 1862.75 1595.67 1854.82C1595.76 1853.8 1596.16 1852.82 1596.27 1851.8C1596.36 1851 1595.55 1849.74 1596.27 1849.38C1596.92 1849.05 1597.24 1850.51 1597.48 1851.19C1598.26 1853.36 1598.61 1855.65 1599.3 1857.85C1600.05 1860.25 1601.45 1863.08 1602.93 1865.1C1607.68 1871.63 1613.63 1878.36 1614.42 1865.71C1614.53 1863.89 1614.93 1862.09 1615.02 1860.26C1615.13 1858.05 1615.02 1855.83 1615.02 1853.61C1615.02 1850.19 1615.02 1846.76 1615.02 1843.33" fill="none" fill-rule="evenodd" opacity="1" stroke="#2222a6" stroke-linecap="round" stroke-linejoin="round" stroke-width="5"/>
<path d="M1662.19 1846.96C1659.98 1845.49 1650.59 1840.58 1648.28 1842.12C1645.92 1843.7 1646.3 1855.58 1645.86 1858.45C1645.22 1862.65 1643.16 1870.9 1644.65 1875.38C1646.77 1881.72 1654.88 1882.04 1660.38 1882.04" fill="none" fill-rule="evenodd" opacity="1" stroke="#2222a6" stroke-linecap="round" stroke-linejoin="round" stroke-width="5"/>
<path d="M1641.63 1861.47C1645.86 1861.47 1650.1 1861.47 1654.33 1861.47" fill="none" fill-rule="evenodd" opacity="1" stroke="#2222a6" stroke-linecap="round" stroke-linejoin="round" stroke-width="5"/>
<path d="M2693.86 1359.87C2690.19 1362.17 2691.65 1368.32 2691.47 1372.64C2691.43 1373.55 2691.11 1375.21 2692.02 1375.32C2692.88 1375.42 2692.22 1373.6 2692.33 1372.75C2692.5 1371.32 2692.79 1369.89 2692.84 1368.45C2692.91 1366.42 2692.58 1364.38 2692.7 1362.34C2693.01 1357.1 2693.34 1346.16 2700.86 1345.04C2706.83 1344.15 2710.87 1354.73 2708.01 1358.08C2704.58 1362.09 2697.62 1357.52 2693.86 1359.87Z" fill="none" fill-rule="evenodd" opacity="1" stroke="#2222a6" stroke-linecap="round" stroke-linejoin="round" stroke-width="5"/>
<path d="M2724.87 1381.55C2725.8 1377.74 2728.4 1374.62 2729.36 1370.69C2730.15 1367.44 2730.87 1364.37 2732.12 1361.25C2732.97 1359.14 2733.57 1357 2734.58 1354.96C2737.62 1348.79 2738.54 1350.02 2741.96 1356.76C2743.55 1359.91 2745.13 1363.87 2745.81 1367.35C2746.46 1370.71 2746.18 1376.83 2748.9 1379.14" fill="none" fill-rule="evenodd" opacity="1" stroke="#2222a6" stroke-linecap="round" stroke-linejoin="round" stroke-width="5"/>
<path d="M2731.83 1366.24C2735.63 1367.16 2738.61 1364.07 2742.21 1363.25" fill="none" fill-rule="evenodd" opacity="1" stroke="#2222a6" stroke-linecap="round" stroke-linejoin="round" stroke-width="5"/>
<path d="M2773.85 1384.31C2771.45 1382.28 2772.35 1378.41 2771.85 1375.55C2770.98 1370.56 2770.01 1365.47 2770.03 1360.39C2770.04 1356.78 2770.35 1351.18 2771.82 1351.17C2773.52 1351.17 2774.41 1355.41 2774.44 1355.49C2776.83 1361.07 2779.86 1365.9 2783.63 1370.61C2784.97 1372.28 2786.46 1373.84 2787.98 1375.35C2788.51 1375.87 2788.9 1376.53 2789.4 1377.07C2789.63 1377.32 2790.09 1378.04 2790.16 1377.72C2790.55 1376.15 2788.91 1374.74 2788.51 1373.18C2787.52 1369.28 2783.45 1351.98 2790.02 1351.94" fill="none" fill-rule="evenodd" opacity="1" stroke="#2222a6" stroke-linecap="round" stroke-linejoin="round" stroke-width="5"/>
<path d="M2805.53 1356.19C2808.66 1356.95 2813.55 1356 2816.79 1355.26" fill="none" fill-rule="evenodd" opacity="1" stroke="#2222a6" stroke-linecap="round" stroke-linejoin="round" stroke-width="5"/>
<path d="M2811.18 1359.41C2810.55 1362.01 2810.97 1379.79 2812.82 1380.95" fill="none" fill-rule="evenodd" opacity="1" stroke="#2222a6" stroke-linecap="round" stroke-linejoin="round" stroke-width="5"/>
<path d="M2839.63 1361.52C2844.07 1364.94 2835.69 1370.39 2836.51 1376.16C2836.85 1378.52 2838.61 1382.07 2841.85 1380.68C2849.41 1377.45 2855.43 1364.08 2846.17 1359.21C2842.64 1357.35 2830.61 1354.58 2839.63 1361.52Z" fill="none" fill-rule="evenodd" opacity="1" stroke="#2222a6" stroke-linecap="round" stroke-linejoin="round" stroke-width="5"/>
<path d="M2869.04 1382.26C2870.56 1376.03 2869.38 1369.58 2870.89 1363.41C2871.09 1362.56 2872.1 1360.95 2872.72 1361.56C2874.66 1363.48 2875.9 1372.51 2877.13 1375.5C2877.54 1376.49 2881.82 1382.88 2883.44 1379.8C2885.12 1376.61 2883.23 1371.47 2883.05 1368.21C2882.78 1363.4 2882.95 1362.07 2883.85 1357.38C2884.26 1355.27 2884.16 1352.86 2886.65 1353.46" fill="none" fill-rule="evenodd" opacity="1" stroke="#2222a6" stroke-linecap="round" stroke-linejoin="round" stroke-width="5"/>
<path d="M2921.43 1355.98C2918.76 1356.2 2908.53 1355.8 2907.14 1358.01C2904.93 1361.52 2905.99 1367.33 2906.24 1371.12C2906.42 1373.76 2905.88 1379.04 2907.38 1381.51C2910 1385.82 2918.83 1384.53 2922.34 1382.4" fill="none" fill-rule="evenodd" opacity="1" stroke="#2222a6" stroke-linecap="round" stroke-linejoin="round" stroke-width="5"/>
<path d="M2905.05 1370.37C2909.36 1371.42 2914.86 1369.56 2919.23 1368.77" fill="none" fill-rule="evenodd" opacity="1" stroke="#2222a6" stroke-linecap="round" stroke-linejoin="round" stroke-width="5"/>
<path d="M947.195 855.998C947.195 872.512 949.007 889.03 948.132 905.654C947.259 922.25 944.553 938.736 943.448 955.31C942.753 965.727 944.585 975.915 945.322 986.228C945.965 995.239 944.678 1004.39 945.322 1013.4C946.593 1031.19 946.652 1049.03 948.132 1066.8C949.062 1077.96 947.019 1089.4 948.132 1100.53C949.905 1118.25 950.514 1136.17 951.88 1153.93C952.756 1165.33 950.034 1177.47 952.817 1188.6" fill="#b5eeff" fill-opacity="0.252253" fill-rule="evenodd" opacity="1" stroke="#2222a6" stroke-linecap="round" stroke-linejoin="round" stroke-width="3"/>
<path d="M1762.3 828.828C1765.19 840.382 1761.01 851.875 1760.43 863.493C1758.99 892.24 1758.56 920.861 1758.56 949.689C1758.56 955.835 1759.03 962.3 1758.56 968.427C1758.11 974.191 1754.86 980.704 1757.62 986.228" fill="#b5eeff" fill-opacity="0.252253" fill-rule="evenodd" opacity="1" stroke="#2222a6" stroke-linecap="round" stroke-linejoin="round" stroke-width="3"/>
<path d="M1508.02 1788.05C1539.66 1788.05 1571.31 1788.05 1602.96 1788.05C1619.17 1788.05 1636.07 1789.4 1652.22 1788.05C1661.53 1787.28 1670.72 1785.5 1679.99 1784.47C1684.51 1783.97 1689.89 1785.52 1694.32 1786.26C1700.52 1787.29 1707.24 1784.38 1713.13 1785.37C1715.49 1785.76 1723.64 1788.07 1725.67 1785.37C1730 1779.59 1727.46 1760.16 1727.46 1753.12C1727.46 1735.04 1724.92 1716.51 1726.56 1698.48C1727.44 1688.84 1728.35 1679.57 1728.35 1669.82" fill="#b5eeff" fill-opacity="0.252253" fill-rule="evenodd" opacity="1" stroke="#2222a6" stroke-linecap="round" stroke-linejoin="round" stroke-width="3"/>
<path d="M2149.58 406.19C2149.58 426.429 2149.13 446.439 2148.07 466.624C2147.38 479.681 2148.8 492.852 2148.07 505.907C2145.99 543.442 2142.69 581.472 2145.05 619.221C2146.22 637.973 2151.35 656.362 2152.6 675.123C2153.41 687.158 2151.85 699.346 2152.6 711.384C2156.08 766.996 2154.11 823.296 2154.11 879.09C2154.11 908.3 2154.11 937.51 2154.11 966.72C2154.11 979.681 2153.12 993.092 2154.11 1006C2155.16 1019.65 2157.14 1033.04 2157.14 1046.8" fill="#b5eeff" fill-opacity="0.252253" fill-rule="evenodd" opacity="1" stroke="#2222a6" stroke-linecap="round" stroke-linejoin="round" stroke-width="3"/>
<path d="M2927.68 596.558C2927.68 606.127 2927.17 615.709 2927.68 625.265C2928.13 633.873 2930.34 642.336 2930.7 650.949C2931.83 678.097 2929.52 705.391 2930.7 732.536C2931.38 748.183 2934.48 763.718 2935.23 779.373C2937.23 821.466 2935.23 864.126 2935.23 906.285C2935.23 943.553 2935.23 980.821 2935.23 1018.09C2935.23 1034.06 2936.37 1050.52 2935.23 1066.44C2934.19 1081.06 2931.74 1095.62 2930.7 1110.25C2929.56 1126.17 2930.7 1142.63 2930.7 1158.6C2930.7 1181.77 2930.7 1204.93 2930.7 1228.1C2930.7 1239.5 2929.56 1251.51 2930.7 1262.85C2931.62 1272.09 2932.21 1280.68 2932.21 1290.04" fill="#b5eeff" fill-opacity="0.252253" fill-rule="evenodd" opacity="1" stroke="#2222a6" stroke-linecap="round" stroke-linejoin="round" stroke-width="3"/>
<path d="M2067.99 1477.39C2064.97 1483.43 2069.51 1499.65 2069.51 1507.61C2069.51 1518.45 2069.27 1528.84 2071.02 1539.34C2071.43 1541.82 2069.62 1544.8 2071.02 1546.89C2074.7 1552.42 2090.44 1549.91 2095.19 1549.91C2104.42 1549.91 2113.11 1548.4 2122.39 1548.4C2138.62 1548.4 2154.73 1549.91 2170.73 1549.91" fill="none" fill-rule="evenodd" opacity="1" stroke="#2222a6" stroke-linecap="round" stroke-linejoin="round" stroke-width="3"/>
<path d="M3018.33 1345.95C3018.33 1390.82 3019.84 1435.55 3019.84 1480.41C3019.84 1496.03 3019.84 1511.64 3019.84 1527.25C3019.84 1528.58 3021.35 1556.23 3021.35 1545.38" fill="none" fill-rule="evenodd" opacity="1" stroke="#2222a6" stroke-linecap="round" stroke-linejoin="round" stroke-width="3"/>
</g>
</svg>
