<!-- <?xml version="1.0" encoding="UTF-8" standalone="no"?> Created with Vectornator (http://vectornator.io/)<!DOCTYPE svg PUBLIC "-//W3C//DTD SVG 1.1//EN" "http://www.w3.org/Graphics/SVG/1.1/DTD/svg11.dtd"> -->
<svg height="100%" stroke-miterlimit="10" style="fill-rule:nonzero;clip-rule:evenodd;stroke-linecap:round;stroke-linejoin:round;" version="1.1" viewBox="0 0 3370.82 2384.24" width="100%" xml:space="preserve" xmlns="http://www.w3.org/2000/svg" xmlns:vectornator="http://vectornator.io" xmlns:xlink="http://www.w3.org/1999/xlink">
<style>
  @import url(style8.css);
</style>
<g id="layer" vectornator:layerName="layer">
<path class = "letter" d="M272.006 505.436C272.006 525.549 278.417 544.827 279.748 564.788C280.989 583.407 281.879 600.798 284.909 618.979C286.31 627.388 286.282 636.332 287.489 644.785C287.991 648.296 287.562 652.599 290.07 655.107C291.43 656.467 292.503 651.863 292.65 649.946C293.376 640.512 291.605 630.964 292.65 621.56C294.197 607.643 294.705 593.067 300.392 580.271C305.357 569.1 315.356 560.897 323.617 551.885C331.541 543.24 346.267 547.133 354.583 551.885C359.717 554.819 359.753 557.706 362.325 562.208C364.813 566.562 368.305 570.414 370.066 575.11C370.972 577.526 369.56 580.321 370.066 582.852C371.449 589.767 374.654 596.04 375.227 603.496C375.956 612.969 377.079 622.409 377.808 631.882C378.84 645.298 374.275 660.944 380.388 673.17" fill="none" fill-rule="evenodd" opacity="1" stroke="#2222a6" stroke-linecap="round" stroke-linejoin="round" stroke-width="28.3955"/>
<path class = "letter" d="M444.902 603.496C465.785 634.821 487.308 610.12 506.834 590.593C515.726 581.702 519.737 572.303 519.737 559.627C519.737 557.907 520.724 555.875 519.737 554.466C514.493 546.975 508.139 540.287 501.673 533.822C500.313 532.462 498.39 531.658 496.512 531.241C490.575 529.922 483.418 525.153 478.449 528.661C466.923 536.796 460.307 550.363 452.643 562.208C447.878 569.572 448.924 579.36 447.482 588.013C442.324 618.961 437.444 678.403 478.449 688.654C483.765 689.983 500.191 689.669 504.254 688.654C516.489 685.595 528.049 671.813 535.22 662.848C540.353 656.432 549.076 651.798 553.284 644.785C554.683 642.452 554.465 639.375 555.865 637.043C563.453 624.396 571.93 613.903 576.509 598.335C582.81 576.911 586.556 554.665 594.573 533.822C595.446 531.551 598.83 526.402 599.734 528.661C601.97 534.251 600.034 540.711 599.734 546.724C599.174 557.926 597.62 569.066 597.153 580.271C596.211 602.869 594.573 622.159 594.573 644.785C594.573 656.245 594.682 663.288 597.153 673.17C597.62 675.036 599.267 676.466 599.734 678.331C600.151 680 598.701 684.869 599.734 683.493C603.196 678.876 604.895 673.17 607.475 668.009" fill="none" fill-rule="evenodd" opacity="1" stroke="#2222a6" stroke-linecap="round" stroke-linejoin="round" stroke-width="28.3955"/>
<path class = "letter" d="M661.666 536.402C670.085 565.868 666.827 596.252 666.827 626.721C666.827 641.575 665.268 654.568 671.988 668.009" fill="none" fill-rule="evenodd" opacity="1" stroke="#2222a6" stroke-linecap="round" stroke-linejoin="round" stroke-width="28.3955"/>
<path class = "letter" d="M746.824 551.885C739.147 560.416 740.506 574.045 739.082 585.432C737.909 594.821 739.082 604.356 739.082 613.818C739.082 619.839 737.428 626.092 739.082 631.882C745.619 654.76 767.791 662.646 788.112 649.946C794.837 645.743 799.983 639.417 806.176 634.462C813.628 628.501 813.54 631.063 819.079 624.14C825.652 615.923 835.112 601.603 834.562 590.593C833.827 575.888 833.865 560.755 829.401 546.724C827.557 540.928 822.333 535.538 816.498 533.822C806.596 530.909 795.524 531.231 785.532 533.822C771.749 537.395 756.349 541.302 746.824 551.885Z" fill="none" fill-rule="evenodd" opacity="1" stroke="#2222a6" stroke-linecap="round" stroke-linejoin="round" stroke-width="28.3955"/>
<path class = "letter" d="M991.974 523.5C991.974 540.703 990.791 557.947 991.974 575.11C993.913 603.217 999.716 630.069 999.716 657.687" fill="none" fill-rule="evenodd" opacity="1" stroke="#2222a6" stroke-linecap="round" stroke-linejoin="round" stroke-width="28.3955"/>
<path class = "letter" d="M971.33 567.369C1001.26 567.369 1032.02 561.279 1061.65 557.047" fill="none" fill-rule="evenodd" opacity="1" stroke="#2222a6" stroke-linecap="round" stroke-linejoin="round" stroke-width="28.3955"/>
<path class = "letter" d="M1082.29 523.5C1082.29 553.751 1086.08 583.65 1087.45 613.818C1087.81 621.552 1087.45 629.301 1087.45 637.043C1087.45 641.344 1083.88 652.331 1087.45 649.946C1092.9 646.312 1093.02 638.059 1095.2 631.882C1098.18 623.413 1099.6 614.415 1102.94 606.077C1108.23 592.857 1114.34 579.952 1121 567.369C1122.14 565.218 1124.04 563.389 1126.16 562.208C1131.89 559.026 1138.29 551.696 1144.23 554.466C1154.21 559.124 1160.63 570.103 1164.87 580.271C1169.55 591.5 1169.06 604.273 1170.03 616.399C1171.2 630.975 1170.03 645.645 1170.03 660.268" fill="none" fill-rule="evenodd" opacity="1" stroke="#2222a6" stroke-linecap="round" stroke-linejoin="round" stroke-width="28.3955"/>
<path class = "letter" d="M1237.12 608.657C1251.31 608.657 1266.5 606.042 1278.41 598.335C1285.07 594.027 1289.38 586.792 1293.9 580.271C1297.18 575.527 1301.12 570.535 1301.64 564.788C1302.06 560.175 1299.75 555.161 1296.48 551.885C1290.74 546.147 1283.62 541.273 1275.83 538.983C1268.41 536.798 1258.27 533.701 1252.61 538.983C1243.03 547.922 1240.3 562.4 1237.12 575.11C1234.2 586.823 1235.18 599.181 1234.54 611.238C1234.14 618.969 1232.42 627.019 1234.54 634.462C1235.4 637.445 1238.32 639.43 1239.71 642.204C1240.92 644.637 1240.89 647.613 1242.29 649.946C1251.99 666.125 1276.79 669.952 1291.32 660.268" fill="none" fill-rule="evenodd" opacity="1" stroke="#2222a6" stroke-linecap="round" stroke-linejoin="round" stroke-width="28.3955"/>
<path class = "letter" d="M1364.46 565.686C1364.46 583.77 1363.74 602.295 1364.46 620.196C1364.81 628.884 1366.33 637.487 1367.06 646.153C1367.79 654.904 1366.55 660.213 1369.65 669.514C1370.2 671.156 1369.65 666.053 1369.65 664.323C1369.65 660.323 1369.65 648.153 1369.65 646.153C1369.65 636.635 1368.52 627.05 1369.65 617.6C1371.13 605.3 1372.31 592.538 1377.44 581.26C1381.25 572.887 1388.38 566.177 1395.61 560.495C1405.09 553.049 1417.92 551.327 1429.35 547.516" fill="none" fill-rule="evenodd" opacity="1" stroke="#2222a6" stroke-linecap="round" stroke-linejoin="round" stroke-width="28.3955"/>
<path class = "letter" d="M1489.05 620.196C1494.25 619.331 1499.79 619.673 1504.63 617.6C1506.41 616.838 1506.26 614.089 1507.22 612.409C1509.73 608.028 1512.56 603.84 1515.01 599.43C1520.17 590.145 1526.87 573.942 1522.8 563.09C1521.28 559.04 1518.43 555.363 1515.01 552.707C1510.43 549.144 1504.94 543.085 1499.44 544.92C1491.87 547.443 1486.39 555.523 1483.86 563.09C1479.18 577.141 1479.73 592.444 1478.67 607.217C1477.99 616.711 1477.99 626.277 1478.67 635.77C1479.63 649.129 1497.09 670.749 1512.42 666.919C1528.1 662.998 1544.8 661.397 1559.14 653.94C1567.3 649.697 1571.25 640.096 1577.31 633.174" fill="none" fill-rule="evenodd" opacity="1" stroke="#2222a6" stroke-linecap="round" stroke-linejoin="round" stroke-width="28.3955"/>
<path class = "letter" d="M1649.99 503.389C1649.99 541.595 1647.39 579.402 1647.39 617.6" fill="none" fill-rule="evenodd" opacity="1" stroke="#2222a6" stroke-linecap="round" stroke-linejoin="round" stroke-width="28.3955"/>
<path class = "letter" d="M1629.22 685.088C1630.95 685.954 1632.68 686.819 1634.41 687.684" fill="none" fill-rule="evenodd" opacity="1" stroke="#2222a6" stroke-linecap="round" stroke-linejoin="round" stroke-width="28.3955"/>
<path class = "letter" d="M1782.37 555.303C1777.87 582.311 1766.04 636.85 1779.77 664.323" fill="none" fill-rule="evenodd" opacity="1" stroke="#2222a6" stroke-linecap="round" stroke-linejoin="round" stroke-width="28.3955"/>
<path class = "letter" d="M1790.16 503.389L1790.16 498.198L1795.35 495.602L1797.94 490.411L1797.94 490.411" fill="none" fill-rule="evenodd" opacity="1" stroke="#2222a6" stroke-linecap="round" stroke-linejoin="round" stroke-width="28.3955"/>
<path class = "letter" d="M1891.39 542.325C1872.79 542.325 1846.35 571.851 1839.47 589.047C1838.19 592.261 1839.47 595.969 1839.47 599.43" fill="none" fill-rule="evenodd" opacity="1" stroke="#2222a6" stroke-linecap="round" stroke-linejoin="round" stroke-width="28.3955"/>
<path class = "letter" d="M1938.11 573.473C1938.11 586.48 1936.88 599.473 1935.52 612.409C1934.7 620.201 1933.41 627.95 1932.92 635.77C1932.54 641.815 1933.59 647.92 1932.92 653.94C1932.71 655.863 1931.19 657.401 1930.32 659.131C1929.46 660.862 1929.66 664.323 1927.73 664.323C1926 664.323 1927.35 660.821 1927.73 659.131C1929.1 652.982 1930.68 646.848 1932.92 640.961C1937.61 628.646 1942.6 616.409 1948.49 604.622C1953.87 593.87 1958.44 582.242 1966.66 573.473C1971.96 567.827 1979.89 561.35 1987.43 563.09C1994.68 564.764 1998.36 574.104 2000.41 581.26C2003.74 592.937 2002.04 605.495 2003 617.6C2003.77 627.127 2005 636.615 2005.6 646.153C2005.98 652.198 2006.6 658.349 2005.6 664.323C2005.01 667.842 2006.57 674.706 2003 674.706C1999.54 674.706 2001.99 667.631 2003 664.323C2005.51 656.178 2010.16 648.849 2013.39 640.961C2017.95 629.807 2020.63 617.814 2026.37 607.217C2031.97 596.869 2037.94 586.016 2047.13 578.665C2051.91 574.843 2059.93 573.139 2065.3 576.069C2071.43 579.409 2072.56 587.999 2075.68 594.239C2076.91 596.686 2078.05 599.299 2078.28 602.026C2080.12 624.082 2078.28 647.329 2078.28 669.514" fill="none" fill-rule="evenodd" opacity="1" stroke="#2222a6" stroke-linecap="round" stroke-linejoin="round" stroke-width="28.3955"/>
<path class = "letter" d="M2277.3 605.353C2275.51 592.83 2273.25 579.79 2266.87 568.863C2264.07 564.058 2260.38 559.765 2256.45 555.831C2249.37 548.757 2237.43 535.928 2230.38 548.012C2225.28 556.763 2218.51 564.669 2214.74 574.076C2209.74 586.599 2206.96 599.947 2204.32 613.173C2201.74 626.065 2198.51 639.135 2199.11 652.269C2199.41 658.879 2201.8 666.324 2206.93 670.514C2212.47 675.051 2220.63 676.174 2227.78 675.727C2241.49 674.87 2253.23 663.113 2261.66 652.269C2280.62 627.888 2279.91 597.973 2279.91 568.863C2279.91 566.257 2279.91 574.076 2279.91 576.682C2279.91 587.108 2279.91 597.534 2279.91 607.96C2279.91 629.472 2275.11 655.705 2285.12 675.727" fill="none" fill-rule="evenodd" opacity="1" stroke="#2222a6" stroke-linecap="round" stroke-linejoin="round" stroke-width="28.3955"/>
<path class = "letter" d="M2352.89 540.192C2347.3 579.307 2344.96 635.588 2365.92 670.514" fill="none" fill-rule="evenodd" opacity="1" stroke="#2222a6" stroke-linecap="round" stroke-linejoin="round" stroke-width="28.3955"/>
<path class = "letter" d="M2433.69 558.437C2429.58 578.955 2426.93 600.125 2428.47 620.992C2429.32 632.388 2428.58 644.655 2433.69 654.876C2437.82 663.136 2446.28 668.99 2454.54 673.121C2459.2 675.452 2465.44 675.305 2470.18 673.121C2477.45 669.764 2483.61 663.89 2488.42 657.482C2501.2 640.445 2505.76 617.738 2509.27 597.534C2510.77 588.932 2511.37 580.186 2511.88 571.47C2512.24 565.398 2517.96 553.225 2511.88 553.225C2505.74 553.225 2509.5 565.33 2509.27 571.47C2508.63 588.834 2508.38 606.245 2509.27 623.598C2511 657.279 2514.15 695.583 2524.91 727.856" fill="none" fill-rule="evenodd" opacity="1" stroke="#2222a6" stroke-linecap="round" stroke-linejoin="round" stroke-width="28.3955"/>
<path class = "letter" d="M2636.99 581.895C2632.74 569.166 2634.32 563.996 2621.35 558.437C2611.8 554.346 2601.03 563.622 2597.89 571.47C2595.93 576.376 2592.92 582.381 2595.28 587.108C2598.87 594.273 2607.48 597.501 2613.53 602.747C2620.51 608.796 2628.47 613.897 2634.38 620.992C2637.38 624.586 2640.51 629.436 2639.59 634.024C2638.5 639.479 2633.1 643.123 2629.17 647.056C2621.18 655.048 2608.24 654.895 2597.89 657.482" fill="none" fill-rule="evenodd" opacity="1" stroke="#2222a6" stroke-linecap="round" stroke-linejoin="round" stroke-width="28.3955"/>
<path class = "letter" d="M2770.49 581.567C2770.49 573.5 2769.24 564.946 2765.24 557.941C2750.89 532.822 2718.54 559.886 2715.36 578.942C2714.49 584.192 2715.13 590.202 2717.99 594.693C2721.66 600.459 2728.7 603.2 2733.74 607.818C2744.14 617.353 2754.74 630.461 2754.74 644.57C2754.74 651.786 2753.13 659.339 2749.49 665.571C2744.56 674.022 2729.31 679.74 2720.61 681.322C2716.31 682.105 2711.05 683.865 2707.49 681.322C2700.29 676.179 2702.24 658.583 2702.24 652.446" fill="none" fill-rule="evenodd" opacity="1" stroke="#2222a6" stroke-linecap="round" stroke-linejoin="round" stroke-width="28.3955"/>
<path class = "letter" d="M2875.5 578.942C2872.87 578.067 2870.19 575.289 2867.62 576.317C2860.63 579.113 2853.89 583.524 2849.24 589.443C2840.93 600.018 2838.36 613.485 2836.12 626.194C2834.27 636.678 2832.28 647.144 2830.87 657.696C2830.29 662.062 2831.34 676.546 2833.49 678.697C2837.41 682.61 2843.92 685.468 2849.24 683.947C2857.66 681.543 2864.64 674.919 2870.25 668.196C2878.03 658.858 2883.18 647.568 2888.62 636.695C2896.42 621.1 2898.86 603.358 2904.37 586.817C2905.2 584.327 2904.7 592.088 2904.37 594.693C2903.82 599.12 2901.95 603.361 2901.75 607.818C2901.07 622.679 2901.28 637.577 2901.75 652.446C2902.16 665.594 2902.02 678.88 2904.37 691.823C2905.56 698.379 2909.62 704.073 2912.25 710.199" fill="none" fill-rule="evenodd" opacity="1" stroke="#2222a6" stroke-linecap="round" stroke-linejoin="round" stroke-width="28.3955"/>
<path class = "letter" d="M2985.75 683.947C2984 685.697 2982.25 687.447 2980.5 689.198" fill="none" fill-rule="evenodd" opacity="1" stroke="#2222a6" stroke-linecap="round" stroke-linejoin="round" stroke-width="28.3955"/>
<path class = "letter" d="M297.618 888.707C293.854 877.416 285.032 868.247 276.617 859.831C274.386 857.6 271.67 855.752 268.741 854.581C262.826 852.215 256.649 848.283 250.365 849.33C244.838 850.252 239.539 854.722 237.24 859.831C231.317 872.991 230.082 887.794 226.739 901.833C222.68 918.879 224.114 936.813 224.114 954.336C224.114 959.586 222.975 964.961 224.114 970.086C226.515 980.891 227.635 992.998 234.614 1001.59C240.049 1008.28 249.675 1011.14 258.241 1012.09C266.259 1012.98 274.651 1010.45 281.867 1006.84C290.79 1002.38 297.953 994.997 305.493 988.462C316.754 978.703 325.708 966.462 334.369 954.336" fill="none" fill-rule="evenodd" opacity="1" stroke="#2222a6" stroke-linecap="round" stroke-linejoin="round" stroke-width="28.3955"/>
<path class = "letter" d="M363.246 849.33C363.246 865.106 365.186 880.823 365.871 896.583C367.026 923.149 364.74 949.044 368.496 975.337C370.248 987.598 367.049 992.266 376.371 1001.59" fill="none" fill-rule="evenodd" opacity="1" stroke="#2222a6" stroke-linecap="round" stroke-linejoin="round" stroke-width="28.3955"/>
<path class = "letter" d="M426.249 909.708C429.723 944.453 425.771 979.154 436.749 1012.09" fill="none" fill-rule="evenodd" opacity="1" stroke="#2222a6" stroke-linecap="round" stroke-linejoin="round" stroke-width="28.3955"/>
<path class = "letter" d="M423.624 857.206C421.874 857.206 418.374 857.206 418.374 857.206C418.374 857.206 421.874 857.206 423.624 857.206" fill="none" fill-rule="evenodd" opacity="1" stroke="#2222a6" stroke-linecap="round" stroke-linejoin="round" stroke-width="28.3955"/>
<path class = "letter" d="M578.506 901.833C574.819 894.458 569.876 882.738 562.756 878.207C557.381 874.787 550.734 872.503 544.38 872.957C537.733 873.431 530.167 875.628 526.004 880.832C518.898 889.715 516.063 901.413 512.878 912.334C506.202 935.225 505.315 957.897 512.878 980.587C515.871 989.566 527.716 992.823 536.504 996.338C538.942 997.313 541.775 996.663 544.38 996.338C555.8 994.91 567.677 994.986 578.506 991.088C589.944 986.97 600.283 980.006 610.008 972.712C634.864 954.07 645.864 928.707 652.01 899.208C654.358 887.94 656.169 876.539 657.26 865.081C657.924 858.112 657.26 837.08 657.26 844.08C657.26 882.582 657.26 921.084 657.26 959.586C657.26 972.712 656.016 985.896 657.26 998.963C657.951 1006.21 661.867 1013.43 665.136 1019.96" fill="none" fill-rule="evenodd" opacity="1" stroke="#2222a6" stroke-linecap="round" stroke-linejoin="round" stroke-width="28.3955"/>
<path class = "letter" d="M751.765 893.958C728.018 900.743 704.98 909.399 680.887 914.959C676.539 915.962 671.939 916.017 667.761 917.584C664.807 918.692 660.332 919.711 659.886 922.834C659.219 927.499 663.28 931.629 665.136 935.96C665.907 937.758 666.307 939.901 667.761 941.21C675.177 947.884 683.462 953.525 691.387 959.586C708.516 972.685 724.778 981.532 743.89 991.088" fill="none" fill-rule="evenodd" opacity="1" stroke="#2222a6" stroke-linecap="round" stroke-linejoin="round" stroke-width="28.3955"/>
<path class = "letter" d="M914.13 856.839C908.946 872.39 911.857 894.716 911.857 909.11C911.857 926.551 912.887 943.986 914.13 961.382C914.832 971.205 914.13 981.079 914.13 990.927C914.13 996.987 914.13 1009.11 914.13 1009.11C914.13 1009.11 913.284 995.42 914.13 988.654C914.34 986.973 916.1 985.775 916.403 984.109C917.63 977.359 917.155 970.344 918.675 963.655C920.959 953.607 922.524 942.981 927.766 934.11C932.671 925.809 940.068 918.805 948.22 913.656C954.907 909.432 963.05 906.399 970.947 906.838C977.712 907.214 984.518 910.963 989.128 915.928C994.892 922.135 998.263 930.484 1000.49 938.655C1006.62 961.117 1002.76 990.545 1002.76 1013.65" fill="none" fill-rule="evenodd" opacity="1" stroke="#2222a6" stroke-linecap="round" stroke-linejoin="round" stroke-width="28.3955"/>
<path class = "letter" d="M1100.49 961.382C1123.97 961.382 1142.14 945.081 1152.76 925.019C1157.92 915.271 1152.28 900.092 1143.67 893.202C1137.06 887.911 1129.37 882.681 1120.94 881.838C1113.07 881.051 1103.16 882.48 1098.22 888.656C1089.69 899.321 1087.5 913.95 1084.58 927.292C1081.5 941.372 1080.4 956.186 1082.31 970.473C1083.43 978.868 1084.95 987.219 1086.85 995.472C1087.23 997.123 1087.86 998.892 1089.13 1000.02C1094.79 1005.05 1100.12 1011.26 1107.31 1013.65C1114.49 1016.05 1122.54 1014.78 1130.03 1013.65C1166.97 1008.11 1191.73 976.623 1207.31 945.473" fill="none" fill-rule="evenodd" opacity="1" stroke="#2222a6" stroke-linecap="round" stroke-linejoin="round" stroke-width="28.3955"/>
<path class = "letter" d="M1243.67 893.202C1243.67 913.656 1243.67 934.11 1243.67 954.564C1243.67 969.715 1243.67 984.866 1243.67 1000.02C1243.67 1003.05 1243.67 1012.14 1243.67 1009.11C1243.67 984.029 1247.14 953.086 1261.85 931.837C1265.83 926.095 1269.67 919.803 1275.49 915.928C1288.95 906.954 1301.52 909.11 1316.39 909.11" fill="none" fill-rule="evenodd" opacity="1" stroke="#2222a6" stroke-linecap="round" stroke-linejoin="round" stroke-width="28.3955"/>
<path class = "letter" d="M1370.94 954.564C1396.35 954.564 1415.6 942.936 1423.21 918.201C1424.79 913.081 1427.88 907.084 1425.48 902.292C1422.57 896.464 1415.79 892.873 1409.57 890.929C1403.07 888.895 1394.38 886.595 1389.12 890.929C1379.69 898.694 1375 911.228 1370.94 922.747C1365.8 937.317 1363.17 952.805 1361.85 968.2C1360.88 979.547 1360.36 991.541 1364.12 1002.29C1366.07 1007.87 1372.83 1010.37 1377.76 1013.65C1379.75 1014.98 1382.18 1015.78 1384.57 1015.93C1394.4 1016.54 1404.52 1018.14 1414.12 1015.93C1424.69 1013.49 1434.4 1007.93 1443.66 1002.29C1457.85 993.658 1468.52 981.981 1480.03 970.473" fill="none" fill-rule="evenodd" opacity="1" stroke="#2222a6" stroke-linecap="round" stroke-linejoin="round" stroke-width="28.3955"/>
<path class = "letter" d="M1671.21 994.018C1715.59 971.825 1765.44 972.113 1813.93 973.628C1854.35 974.891 1896.49 979.777 1932.87 997.416C1951.25 1006.32 1968.21 1018.26 1983.84 1031.4C1996.74 1042.23 2009.16 1054.34 2017.83 1068.78C2026.49 1083.22 2030.1 1100.19 2034.82 1116.35C2043.11 1144.79 2043.45 1175.39 2041.61 1204.71C2040.7 1219.4 2031.48 1232.45 2024.62 1245.49C2001.77 1288.91 1969.71 1327.42 1915.88 1320.25C1908.78 1319.3 1901.45 1317.42 1895.49 1313.45C1890.78 1310.31 1888.05 1304.81 1885.3 1299.86C1862.81 1259.37 1919.69 1243.53 1946.46 1231.89C1959.97 1226.02 1973.11 1219.03 1987.24 1214.9C2000.47 1211.04 2014.3 1209.35 2028.02 1208.11C2039.3 1207.08 2050.92 1205.77 2062 1208.11C2072.92 1210.4 2083.51 1215.21 2092.59 1221.7C2099.79 1226.84 2104.51 1234.84 2109.58 1242.09C2126.34 1266.03 2124.75 1299.73 2126.57 1327.04C2126.8 1330.43 2127.33 1333.93 2126.57 1337.24C2120.26 1364.58 2111.06 1387.88 2095.99 1412C2077.23 1442.01 2051.32 1466.92 2028.02 1493.56C2004.26 1520.71 1979.7 1562.9 1943.07 1575.11" fill="none" fill-rule="evenodd" opacity="1" stroke="#2222a6" stroke-linecap="round" stroke-linejoin="round" stroke-width="28.3955"/>
<path class = "letter" d="M1926.08 1500.35C1926.08 1528.83 1922.68 1556.88 1922.68 1585.31C1922.68 1593.16 1921.4 1605.03 1926.08 1605.7C1945.17 1608.42 1962.11 1592.03 1977.05 1585.31C2008.54 1571.14 2044.36 1561.52 2078.99 1561.52" fill="none" fill-rule="evenodd" opacity="1" stroke="#2222a6" stroke-linecap="round" stroke-linejoin="round" stroke-width="28.3955"/>
</g>
</svg>
